<svg width="297" height="133" viewBox="0 0 297 133" fill="none" xmlns="http://www.w3.org/2000/svg">
<path d="M53.1812 68.7124C53.1378 69.2448 53.0889 69.7773 53.0289 70.299C52.54 74.4882 51.4749 78.3679 49.9808 81.7421C48.5626 84.9479 46.7532 87.6974 44.6884 89.8111C41.7436 92.8213 38.2712 94.5438 34.6634 94.4569C34.4622 94.4569 34.2558 94.4461 34.0492 94.4297C33.3104 94.37 32.5877 94.2395 31.8812 94.0331C30.7509 93.707 29.6642 93.1963 28.6428 92.5226C24.4698 89.7841 21.3184 84.3504 19.9056 77.5965C19.3187 74.7981 19.0308 71.7771 19.096 68.6256C19.1068 67.7617 19.1503 66.8924 19.2208 66.0121C20.4055 51.0642 28.9743 39.5503 38.3525 40.3001C41.053 40.5121 43.5254 41.7183 45.6499 43.6853C49.8665 47.592 52.7136 54.4981 53.2297 62.5781C53.3606 64.5611 53.3496 66.6148 53.1812 68.7124Z" fill="#62A984"/>
<path d="M73.7419 61.8768C73.0518 63.3167 72.2586 64.7567 71.3673 66.1693C65.575 75.3575 57.1856 81.1607 49.9806 81.7422C47.2421 81.9703 44.6719 81.4379 42.4767 80.0578C41.5097 79.4493 40.6619 78.6994 39.9284 77.8301C38.9178 76.6347 38.1298 75.2057 37.5702 73.6081C35.2065 66.8596 36.8637 57.0138 42.542 48.0048C43.5093 46.4672 44.5524 45.0272 45.6499 43.6851C51.1976 36.9093 58.1526 32.7798 64.2276 32.4104C66.8576 32.2473 69.3189 32.7852 71.4326 34.1165C78.5071 38.5774 79.2678 50.401 73.7419 61.8768Z" fill="#62A984"/>
<path d="M64.64 94.8818C77.2399 86.7532 83.3195 73.7548 78.2193 65.849C73.119 57.9432 58.7702 58.1237 46.1703 66.2523C33.5704 74.3808 27.4908 87.3792 32.591 95.285C37.6913 103.191 52.0401 103.01 64.64 94.8818Z" fill="#62A984"/>
<path d="M22.3943 121.272C18.8299 121.929 15.1947 120.766 11.9182 118.234C6.69658 114.208 2.38767 106.726 0.714144 97.6681C-1.45929 85.888 1.48017 75.0045 7.46821 70.2336C8.97331 69.0328 10.674 68.2178 12.5377 67.8754C14.7327 67.4731 16.9497 67.7559 19.0962 68.6252C23.2095 70.288 27.0511 74.086 29.9254 79.2642C30.6045 80.4976 31.2349 81.8071 31.7999 83.1819C32.7726 85.5619 33.555 88.1373 34.0984 90.865C34.142 91.0716 34.18 91.278 34.2179 91.4844C34.4027 92.4842 34.5494 93.473 34.6635 94.4566C34.7937 95.6141 34.8809 96.7605 34.9134 97.8852C35.2936 109.91 30.2838 119.816 22.3943 121.272Z" fill="#62A984"/>
<path d="M41.3526 124.172C55.7653 120.035 65.3449 109.351 62.7491 100.307C60.1533 91.2641 46.3652 87.2868 31.9525 91.4238C17.5398 95.5608 7.96023 106.246 10.556 115.289C13.1517 124.332 26.9398 128.309 41.3526 124.172Z" fill="#62A984"/>
<path d="M65.3309 41.7778C65.3309 48.5807 63.6412 54.9543 60.6797 60.4478C58.6693 64.1861 56.0775 67.517 53.0292 70.299C49.2691 73.7386 44.819 76.3412 39.9289 77.8301C37.9021 78.4495 35.8048 78.8788 33.6475 79.096C32.539 79.2101 31.4197 79.2698 30.2841 79.2698C30.1646 79.2698 30.0451 79.2698 29.9254 79.2644C26.4369 79.2319 23.0737 78.6505 19.9056 77.5963C15.2762 76.064 11.0542 73.532 7.46802 70.2336C8.97311 69.0328 10.6738 68.2179 12.5376 67.8754C14.7326 67.4732 16.9495 67.7559 19.096 68.6252C19.1068 67.7613 19.1504 66.892 19.2209 66.0117C20.4055 51.0638 28.9744 39.5499 38.3526 40.2997C41.0531 40.5117 43.5254 41.7179 45.6499 43.6849C51.1976 36.9091 58.1526 32.7796 64.2276 32.4102C64.9505 35.4042 65.3309 38.5449 65.3309 41.7778Z" fill="#77CC9C"/>
<path d="M39.3473 133C34.4876 127.501 31.257 121.412 29.7461 114.902C25.4615 96.4466 35.4294 74.9439 55.1399 60.122L55.7931 60.9907C36.4257 75.5547 26.617 96.6196 30.8045 114.656C32.2742 120.988 35.4225 126.918 40.1616 132.281L39.3473 133Z" fill="#89E8B7"/>
<path d="M38.4726 61.0655C46.1554 59.239 51.8999 55.7243 51.3034 53.2152C50.7068 50.706 43.9952 50.1527 36.3124 51.9792C28.6297 53.8057 22.8852 57.3204 23.4817 59.8296C24.0782 62.3387 30.7899 62.892 38.4726 61.0655Z" fill="#EFC860"/>
<path d="M45.9856 66.1689C39.4959 69.7396 32.7295 70.9184 30.8725 68.8019C29.0154 66.6854 32.7709 62.075 39.2606 58.5043C45.7503 54.9336 52.5166 53.7548 54.3737 55.8713C56.2307 57.9878 52.4752 62.5982 45.9856 66.1689Z" fill="#EFC860"/>
<path d="M54.1469 68.7091C50.7885 74.7824 45.984 78.5545 43.4159 77.1344C40.8478 75.7142 41.4883 69.6395 44.8468 63.5665C48.2053 57.4933 53.0098 53.7211 55.5778 55.1413C58.1462 56.5614 57.5054 62.6359 54.1469 68.7091Z" fill="#EFC860"/>
<path d="M61.1588 72.7403C63.436 80.2636 67.4598 86.3077 70.1462 86.2398C72.8327 86.1718 73.1644 80.0177 70.8873 72.4942C68.6101 64.9707 64.5863 58.9268 61.8998 58.9947C59.2133 59.0629 58.8816 65.2167 61.1588 72.7403Z" fill="#EFC860"/>
<path d="M51.7788 68.4695C49.8816 75.2281 50.5459 81.5647 53.2623 82.6227C55.9788 83.6807 59.7188 79.0596 61.616 72.3012C63.5131 65.5426 62.8489 59.2062 60.1324 58.148C57.416 57.09 53.676 61.7109 51.7788 68.4695Z" fill="#EFC860"/>
<path d="M63.2952 60.1224C62.6573 61.2762 58.8211 60.3762 54.727 58.1122C50.6329 55.8482 47.8313 53.0776 48.4692 51.9238C49.1071 50.77 52.9433 51.67 57.0374 53.934C61.1317 56.1978 63.9334 58.9686 63.2952 60.1224Z" fill="#D568DB"/>
<path d="M94.0451 117.988L93.2205 117.281C102.468 106.512 106.709 95.9706 105.826 85.9486C105.299 79.961 103.159 76.0494 100.68 71.5198C98.7586 68.0087 96.7715 64.3782 95.2776 59.3229C91.7192 47.2834 93.0816 33.465 99.3271 18.2518L100.333 18.6646C94.1836 33.6431 92.8333 47.2187 96.3199 59.0152C97.7808 63.9586 99.7392 67.537 101.633 70.9984C104.065 75.4418 106.362 79.639 106.909 85.8533C107.819 96.1781 103.49 106.99 94.0451 117.988Z" fill="#488465"/>
<path d="M109.085 30.4093C115.112 32.513 120.718 32.1525 121.608 29.6038C122.498 27.0553 118.333 23.2838 112.306 21.1803C106.279 19.0765 100.673 19.4373 99.783 21.9858C98.8936 24.5342 103.058 28.3055 109.085 30.4093Z" fill="#E79DEF"/>
<path d="M107.807 12.2511C107.288 15.2636 106.322 17.9132 105.162 19.8132C104.228 21.336 103.177 22.3733 102.13 22.7128C101.758 22.84 101.385 22.873 101.022 22.8118C100.791 22.7693 100.57 22.6938 100.358 22.576C100.141 22.4628 99.9334 22.3073 99.7446 22.1139C99.6692 22.0432 99.6032 21.9677 99.5324 21.8877C99.4852 21.8357 99.4429 21.7792 99.4005 21.7179C99.2825 21.5719 99.179 21.4115 99.08 21.237C99.0752 21.2323 99.0705 21.2275 99.0705 21.223C98.5188 20.2801 98.1324 18.9693 97.9389 17.423C97.6844 15.4476 97.7457 13.0809 98.1746 10.5868C98.5143 8.62559 99.0422 6.81512 99.6929 5.26883C101.121 1.85061 103.13 -0.285086 104.959 0.030857C107.623 0.488058 108.896 5.96175 107.807 12.2511Z" fill="#E79DEF"/>
<path d="M99.2243 34.9155C98.3353 42.0908 95.632 48.1979 93.1864 48.5559C90.7406 48.9139 89.4785 43.3873 90.3675 36.2121C91.2564 29.0368 93.9598 22.9298 96.4056 22.5718C98.8514 22.2138 100.113 27.7403 99.2243 34.9155Z" fill="#E79DEF"/>
<path d="M100.004 24.0516C99.7541 24.4618 99.3864 24.8862 98.915 25.3199C98.2786 25.8998 97.4535 26.4937 96.4681 27.0739C95.1905 27.833 93.644 28.5684 91.895 29.2283C91.3341 29.4405 90.7542 29.6432 90.1555 29.8365C83.2768 32.0711 76.601 32.2079 75.2432 30.1429C74.2626 28.6626 76.304 26.442 80.085 24.4855C81.5608 23.7169 83.3005 22.991 85.2285 22.3638C86.6571 21.9019 88.0714 21.5292 89.4389 21.2465C93.5735 20.3884 97.2085 20.3741 99.0707 21.223C99.0847 21.2277 99.0942 21.2325 99.1037 21.237C99.2404 21.2982 99.3677 21.3642 99.4809 21.4397C99.5091 21.4537 99.5376 21.4727 99.5659 21.4962C99.6836 21.5717 99.7921 21.6565 99.8863 21.7509C99.9901 21.8452 100.075 21.9489 100.146 22.0574C100.254 22.2224 100.325 22.3921 100.358 22.576C100.452 23.024 100.32 23.5237 100.004 24.0516Z" fill="#E79DEF"/>
<path d="M107.06 29.5792C109.835 35.4092 110.223 41.2566 107.926 42.6401C105.629 44.0233 101.517 40.419 98.7414 34.589C95.966 28.759 95.5783 22.9116 97.8753 21.5282C100.172 20.1447 104.284 23.7492 107.06 29.5792Z" fill="#E79DEF"/>
<path d="M98.9905 24.1461C98.882 24.278 98.764 24.3913 98.6323 24.4855C98.0806 24.8957 97.3122 25.0277 96.3976 24.9192C96.2844 24.9052 96.1712 24.8862 96.0534 24.8627C95.483 24.7637 94.8656 24.5703 94.2147 24.2923C92.7391 23.6746 91.0889 22.6375 89.4389 21.2467C88.84 20.7423 88.2413 20.1954 87.6521 19.6012C83.1025 15.0234 80.7924 9.63445 82.4989 7.56949C84.2056 5.4998 89.2832 7.53651 93.8377 12.1143C95.5585 13.8446 96.954 15.688 97.9394 17.423C98.7267 18.8138 99.2454 20.1339 99.4529 21.2747C99.4624 21.3312 99.4716 21.388 99.4811 21.4397C99.4906 21.4915 99.4954 21.5435 99.5001 21.5905C99.5141 21.6942 99.5283 21.7932 99.5331 21.8877C99.6129 22.821 99.4432 23.5991 98.9905 24.1461Z" fill="#E79DEF"/>
<path d="M102.248 13.2929C102.248 16.282 101.305 19.0588 99.6883 21.3265C99.6554 21.3832 99.6129 21.4397 99.5659 21.4962C99.5469 21.5292 99.5281 21.5622 99.4999 21.5905C99.4714 21.633 99.4386 21.6754 99.4009 21.7177C98.9719 22.2881 98.4957 22.8208 97.9818 23.3112C97.4962 23.7827 96.973 24.2211 96.4213 24.6078C96.2986 24.702 96.1808 24.7823 96.0534 24.8623C95.1153 25.4941 94.0922 26.0126 93.0078 26.3945C91.551 26.918 89.9763 27.2007 88.3405 27.2007C85.2524 27.2007 82.3954 26.1918 80.0852 24.4851C81.561 23.7165 83.3007 22.9905 85.2287 22.3634C86.6573 21.9015 88.0716 21.5288 89.4391 21.2461C88.8402 20.7416 88.2415 20.1947 87.6523 19.6006C83.1027 15.0227 80.7926 9.6338 82.4991 7.56885C84.2058 5.49915 89.2834 7.53586 93.8379 12.1137C95.5587 13.8439 96.9542 15.6874 97.9396 17.4224C97.6851 15.4469 97.7463 13.0803 98.1753 10.5862C98.5149 8.62495 99.0429 6.81448 99.6935 5.26819C101.305 7.53651 102.248 10.3086 102.248 13.2929Z" fill="#EAB7F4"/>
<path d="M95.1585 26.8468C96.4477 28.4547 98.7313 28.7655 100.259 27.5406C101.787 26.3156 101.98 24.0192 100.691 22.4113C99.4018 20.8033 97.1184 20.4925 95.5904 21.7175C94.0627 22.9422 93.8694 25.2388 95.1585 26.8468Z" fill="#CE5354"/>
<path d="M75.8958 122.832L75.4822 122.48C82.3439 114.426 85.2889 106.797 84.2356 99.8074C83.7228 96.4006 82.4485 94.2376 80.9733 91.7324C80.1193 90.283 79.2368 88.7839 78.4231 86.9045C74.7017 78.3063 75.1602 67.5705 79.7853 54.9953L80.2953 55.1829C75.7198 67.6226 75.2579 78.2226 78.9218 86.6886C79.7219 88.5374 80.5959 90.0216 81.4413 91.457C82.8828 93.9042 84.244 96.2158 84.7731 99.7266C85.8503 106.879 82.8638 114.653 75.8958 122.832Z" fill="#46795C"/>
<path d="M79.8209 46.3216C81.7489 52.3243 80.1988 58.1905 76.3583 59.4241C72.5178 60.6576 67.8414 56.7915 65.9134 50.7888C63.9852 44.7861 65.5355 38.9199 69.376 37.6863C73.2165 36.4527 77.8927 40.3189 79.8209 46.3216Z" fill="#CE5354"/>
<path d="M85.788 49.4856C85.2576 55.768 81.5696 60.586 77.5501 60.2468C73.5307 59.9076 70.7021 54.5396 71.2324 48.2572C71.7627 41.9747 75.4509 37.1567 79.4702 37.4961C83.4897 37.8351 86.318 43.2031 85.788 49.4856Z" fill="#CE5354"/>
<path d="M93.3524 52.5771C96.2271 46.7002 95.62 40.4992 91.9965 38.7268C88.373 36.9543 83.1051 40.2817 80.2304 46.1586C77.3558 52.0355 77.9628 58.2365 81.5864 60.009C85.2099 61.7814 90.4778 58.4541 93.3524 52.5771Z" fill="#CE5354"/>
<path d="M89.7797 55.2711C89.8246 51.6784 85.355 48.7096 79.7965 48.6401C74.238 48.5706 69.6956 51.4268 69.6507 55.0195C69.6057 58.6122 74.0754 61.581 79.6339 61.6505C85.1923 61.72 89.7348 58.8638 89.7797 55.2711Z" fill="#CE5354"/>
<path d="M68.4836 40.7664C68.8164 40.6331 70.351 40.061 72.1052 40.7504C73.9869 41.4899 74.7089 43.1264 74.834 43.424C75.0814 43.0988 76.1849 41.7222 78.112 41.4395C79.9316 41.1723 81.791 41.9821 82.9715 43.5258C85.328 41.1695 88.3618 40.7133 90.0133 41.9566C90.2852 42.1615 91.1147 42.8603 91.3933 44.4904" stroke="white" stroke-miterlimit="10"/>
<path d="M79.7317 59.1448C80.9247 59.0892 84.7219 58.759 87.9986 55.8033C90.1033 53.9049 91.0711 51.7547 91.5014 50.5684" stroke="white" stroke-miterlimit="10"/>
<path d="M86.662 79.9498C88.5944 80.0464 89.6371 80.3812 89.7906 80.9539C90.1109 82.15 86.5559 84.384 79.126 87.656C79.2107 87.0513 79.889 82.7096 83.5539 80.7926C84.6969 80.195 85.811 80.0001 86.662 79.9498Z" fill="#46795C"/>
<path d="M68.6163 68.9246C66.6821 68.9727 65.6314 69.2813 65.4636 69.8502C65.1134 71.0379 68.6114 73.3601 75.957 76.8171C75.8874 76.2105 75.318 71.8531 71.7022 69.845C70.5745 69.219 69.4658 68.9962 68.6163 68.9246Z" fill="#46795C"/>
<path d="M77.2148 95.0206C75.1966 95.0708 74.1002 95.3926 73.9251 95.9863C73.5597 97.2255 77.2096 99.6487 84.874 103.256C84.8013 102.623 84.2074 98.0763 80.4344 95.9809C79.2579 95.3277 78.1011 95.0952 77.2148 95.0206Z" fill="#46795C"/>
<path d="M243.547 68.7124C243.59 69.2448 243.639 69.7773 243.699 70.299C244.188 74.4882 245.253 78.3679 246.747 81.7421C248.165 84.9479 249.975 87.6974 252.04 89.8111C254.984 92.8213 258.457 94.5438 262.065 94.4569C262.266 94.4569 262.472 94.4461 262.679 94.4297C263.418 94.37 264.14 94.2395 264.847 94.0331C265.977 93.707 267.064 93.1963 268.085 92.5226C272.258 89.7841 275.41 84.3504 276.822 77.5965C277.409 74.7981 277.697 71.7771 277.632 68.6256C277.621 67.7617 277.578 66.8924 277.507 66.0121C276.323 51.0642 267.754 39.5503 258.375 40.3001C255.675 40.5121 253.203 41.7183 251.078 43.6853C246.862 47.592 244.014 54.4981 243.498 62.5781C243.367 64.5611 243.378 66.6148 243.547 68.7124Z" fill="#62A984"/>
<path d="M222.986 61.8768C223.676 63.3167 224.469 64.7567 225.361 66.1693C231.153 75.3575 239.542 81.1607 246.747 81.7422C249.486 81.9703 252.056 81.4379 254.251 80.0578C255.218 79.4493 256.066 78.6994 256.799 77.8301C257.81 76.6347 258.598 75.2057 259.158 73.6081C261.521 66.8596 259.864 57.0138 254.186 48.0048C253.219 46.4672 252.175 45.0272 251.078 43.6851C245.53 36.9093 238.575 32.7798 232.5 32.4104C229.87 32.2473 227.409 32.7852 225.295 34.1165C218.221 38.5774 217.46 50.401 222.986 61.8768Z" fill="#62A984"/>
<path d="M232.088 94.8818C219.488 86.7532 213.409 73.7548 218.509 65.849C223.609 57.9432 237.958 58.1237 250.558 66.2523C263.158 74.3808 269.237 87.3792 264.137 95.285C259.037 103.191 244.688 103.01 232.088 94.8818Z" fill="#62A984"/>
<path d="M274.333 121.272C277.898 121.929 281.533 120.766 284.81 118.234C290.031 114.208 294.34 106.726 296.014 97.6681C298.187 85.888 295.248 75.0045 289.26 70.2336C287.754 69.0328 286.054 68.2178 284.19 67.8754C281.995 67.4731 279.778 67.7559 277.632 68.6252C273.518 70.288 269.677 74.086 266.802 79.2642C266.123 80.4976 265.493 81.8071 264.928 83.1819C263.955 85.5619 263.173 88.1373 262.629 90.865C262.586 91.0716 262.548 91.278 262.51 91.4844C262.325 92.4842 262.178 93.473 262.064 94.4566C261.934 95.6141 261.847 96.7605 261.814 97.8852C261.434 109.91 266.444 119.816 274.333 121.272Z" fill="#62A984"/>
<path d="M255.375 124.172C240.962 120.035 231.383 109.351 233.979 100.307C236.574 91.2641 250.363 87.2868 264.775 91.4238C279.188 95.5608 288.768 106.246 286.172 115.289C283.576 124.332 269.788 128.309 255.375 124.172Z" fill="#62A984"/>
<path d="M231.397 41.7778C231.397 48.5807 233.087 54.9543 236.048 60.4478C238.058 64.1861 240.65 67.517 243.699 70.299C247.459 73.7386 251.909 76.3412 256.799 77.8301C258.826 78.4495 260.923 78.8788 263.08 79.096C264.189 79.2101 265.308 79.2698 266.444 79.2698C266.563 79.2698 266.683 79.2698 266.802 79.2644C270.291 79.2319 273.654 78.6505 276.822 77.5963C281.452 76.064 285.674 73.532 289.26 70.2336C287.755 69.0328 286.054 68.2179 284.19 67.8754C281.995 67.4732 279.778 67.7559 277.632 68.6252C277.621 67.7613 277.577 66.892 277.507 66.0117C276.322 51.0638 267.753 39.5499 258.375 40.2997C255.675 40.5117 253.202 41.7179 251.078 43.6849C245.53 36.9091 238.575 32.7796 232.5 32.4102C231.777 35.4042 231.397 38.5449 231.397 41.7778Z" fill="#77CC9C"/>
<path d="M257.381 133C262.24 127.501 265.471 121.412 266.982 114.902C271.266 96.4466 261.298 74.9439 241.588 60.122L240.935 60.9907C260.302 75.5547 270.111 96.6196 265.923 114.656C264.454 120.988 261.305 126.918 256.566 132.281L257.381 133Z" fill="#89E8B7"/>
<path d="M258.255 61.0655C250.572 59.239 244.828 55.7243 245.424 53.2152C246.021 50.706 252.733 50.1527 260.415 51.9792C268.098 53.8057 273.843 57.3204 273.246 59.8296C272.65 62.3387 265.938 62.892 258.255 61.0655Z" fill="#EFC860"/>
<path d="M250.742 66.1689C257.232 69.7396 263.998 70.9184 265.855 68.8019C267.712 66.6854 263.957 62.075 257.467 58.5043C250.978 54.9336 244.211 53.7548 242.354 55.8713C240.497 57.9878 244.253 62.5982 250.742 66.1689Z" fill="#EFC860"/>
<path d="M242.581 68.7091C245.939 74.7824 250.744 78.5545 253.312 77.1344C255.88 75.7142 255.239 69.6395 251.881 63.5665C248.522 57.4933 243.718 53.7211 241.15 55.1413C238.581 56.5614 239.222 62.6359 242.581 68.7091Z" fill="#EFC860"/>
<path d="M235.569 72.7403C233.292 80.2636 229.268 86.3077 226.582 86.2398C223.895 86.1718 223.563 80.0177 225.841 72.4942C228.118 64.9707 232.141 58.9268 234.828 58.9947C237.514 59.0629 237.846 65.2167 235.569 72.7403Z" fill="#EFC860"/>
<path d="M244.949 68.4695C246.846 75.2281 246.182 81.5647 243.466 82.6227C240.749 83.6807 237.009 79.0596 235.112 72.3012C233.215 65.5426 233.879 59.2062 236.596 58.148C239.312 57.09 243.052 61.7109 244.949 68.4695Z" fill="#EFC860"/>
<path d="M233.433 60.1224C234.07 61.2762 237.907 60.3762 242.001 58.1122C246.095 55.8482 248.897 53.0776 248.259 51.9238C247.621 50.77 243.784 51.67 239.69 53.934C235.596 56.1978 232.794 58.9686 233.433 60.1224Z" fill="#D568DB"/>
<path d="M202.683 117.988L203.507 117.281C194.26 106.512 190.019 95.9706 190.901 85.9486C191.428 79.961 193.569 76.0494 196.048 71.5198C197.969 68.0087 199.956 64.3782 201.45 59.3229C205.009 47.2834 203.646 33.465 197.401 18.2518L196.395 18.6646C202.544 33.6431 203.894 47.2187 200.408 59.0152C198.947 63.9586 196.989 67.537 195.094 70.9984C192.663 75.4418 190.366 79.639 189.819 85.8533C188.909 96.1781 193.237 106.99 202.683 117.988Z" fill="#488465"/>
<path d="M187.643 30.4093C181.616 32.513 176.01 32.1525 175.12 29.6038C174.23 27.0553 178.395 23.2838 184.422 21.1803C190.449 19.0765 196.055 19.4373 196.945 21.9858C197.834 24.5342 193.67 28.3055 187.643 30.4093Z" fill="#E79DEF"/>
<path d="M188.921 12.2511C189.44 15.2636 190.406 17.9132 191.566 19.8132C192.499 21.336 193.551 22.3733 194.597 22.7128C194.97 22.84 195.342 22.873 195.705 22.8118C195.936 22.7693 196.158 22.6938 196.37 22.576C196.587 22.4628 196.794 22.3073 196.983 22.1139C197.058 22.0432 197.124 21.9677 197.195 21.8877C197.242 21.8357 197.285 21.7792 197.327 21.7179C197.445 21.5719 197.549 21.4115 197.648 21.237C197.652 21.2323 197.657 21.2275 197.657 21.223C198.209 20.2801 198.595 18.9693 198.789 17.423C199.043 15.4476 198.982 13.0809 198.553 10.5868C198.213 8.62559 197.685 6.81512 197.035 5.26883C195.606 1.85061 193.598 -0.285086 191.768 0.030857C189.105 0.488058 187.832 5.96175 188.921 12.2511Z" fill="#E79DEF"/>
<path d="M197.504 34.9155C198.392 42.0908 201.096 48.1979 203.541 48.5559C205.987 48.9139 207.249 43.3873 206.36 36.2121C205.471 29.0368 202.768 22.9298 200.322 22.5718C197.876 22.2138 196.614 27.7403 197.504 34.9155Z" fill="#E79DEF"/>
<path d="M196.724 24.0516C196.974 24.4618 197.341 24.8862 197.813 25.3199C198.449 25.8998 199.274 26.4937 200.26 27.0739C201.537 27.833 203.084 28.5684 204.833 29.2283C205.394 29.4405 205.974 29.6432 206.572 29.8365C213.451 32.0711 220.127 32.2079 221.485 30.1429C222.465 28.6626 220.424 26.442 216.643 24.4855C215.167 23.7169 213.427 22.991 211.499 22.3638C210.071 21.9019 208.656 21.5292 207.289 21.2465C203.154 20.3884 199.519 20.3741 197.657 21.223C197.643 21.2277 197.634 21.2325 197.624 21.237C197.487 21.2982 197.36 21.3642 197.247 21.4397C197.219 21.4537 197.19 21.4727 197.162 21.4962C197.044 21.5717 196.936 21.6565 196.841 21.7509C196.738 21.8452 196.653 21.9489 196.582 22.0574C196.474 22.2224 196.403 22.3921 196.37 22.576C196.276 23.024 196.408 23.5237 196.724 24.0516Z" fill="#E79DEF"/>
<path d="M189.668 29.5792C186.893 35.4092 186.505 41.2566 188.802 42.6401C191.099 44.0233 195.211 40.419 197.986 34.589C200.762 28.759 201.149 22.9116 198.852 21.5282C196.555 20.1447 192.443 23.7492 189.668 29.5792Z" fill="#E79DEF"/>
<path d="M197.737 24.1461C197.846 24.278 197.964 24.3913 198.096 24.4855C198.647 24.8957 199.416 25.0277 200.33 24.9192C200.443 24.9052 200.557 24.8862 200.674 24.8627C201.245 24.7637 201.862 24.5703 202.513 24.2923C203.989 23.6746 205.639 22.6375 207.289 21.2467C207.888 20.7423 208.486 20.1954 209.076 19.6012C213.625 15.0234 215.935 9.63445 214.229 7.56949C212.522 5.4998 207.445 7.53651 202.89 12.1143C201.169 13.8446 199.774 15.688 198.788 17.423C198.001 18.8138 197.482 20.1339 197.275 21.2747C197.265 21.3312 197.256 21.388 197.247 21.4397C197.237 21.4915 197.232 21.5435 197.228 21.5905C197.214 21.6942 197.199 21.7932 197.195 21.8877C197.115 22.821 197.285 23.5991 197.737 24.1461Z" fill="#E79DEF"/>
<path d="M194.48 13.2929C194.48 16.282 195.422 19.0588 197.039 21.3265C197.072 21.3832 197.115 21.4397 197.162 21.4962C197.181 21.5292 197.2 21.5622 197.228 21.5905C197.256 21.633 197.289 21.6754 197.327 21.7177C197.756 22.2881 198.232 22.8208 198.746 23.3112C199.232 23.7827 199.755 24.2211 200.306 24.6078C200.429 24.702 200.547 24.7823 200.674 24.8623C201.613 25.4941 202.636 26.0126 203.72 26.3945C205.177 26.918 206.752 27.2007 208.387 27.2007C211.475 27.2007 214.332 26.1918 216.643 24.4851C215.167 23.7165 213.427 22.9905 211.499 22.3634C210.071 21.9015 208.656 21.5288 207.289 21.2461C207.888 20.7416 208.486 20.1947 209.075 19.6006C213.625 15.0227 215.935 9.6338 214.229 7.56885C212.522 5.49915 207.444 7.53586 202.89 12.1137C201.169 13.8439 199.774 15.6874 198.788 17.4224C199.043 15.4469 198.981 13.0803 198.553 10.5862C198.213 8.62495 197.685 6.81448 197.034 5.26819C195.422 7.53651 194.48 10.3086 194.48 13.2929Z" fill="#EAB7F4"/>
<path d="M201.57 26.8468C200.28 28.4547 197.997 28.7655 196.469 27.5406C194.941 26.3156 194.748 24.0192 196.037 22.4113C197.326 20.8033 199.61 20.4925 201.138 21.7175C202.665 22.9422 202.859 25.2388 201.57 26.8468Z" fill="#CE5354"/>
<path d="M220.832 122.832L221.246 122.48C214.384 114.426 211.439 106.797 212.492 99.8074C213.005 96.4006 214.28 94.2376 215.755 91.7324C216.609 90.283 217.491 88.7839 218.305 86.9045C222.026 78.3063 221.568 67.5705 216.943 54.9953L216.433 55.1829C221.008 67.6226 221.47 78.2226 217.806 86.6886C217.006 88.5374 216.132 90.0216 215.287 91.457C213.845 93.9042 212.484 96.2158 211.955 99.7266C210.878 106.879 213.864 114.653 220.832 122.832Z" fill="#46795C"/>
<path d="M216.907 46.3216C214.979 52.3243 216.529 58.1905 220.37 59.4241C224.21 60.6576 228.886 56.7915 230.814 50.7888C232.743 44.7861 231.192 38.9199 227.352 37.6863C223.511 36.4527 218.835 40.3189 216.907 46.3216Z" fill="#CE5354"/>
<path d="M210.94 49.4856C211.47 55.768 215.158 60.586 219.178 60.2468C223.197 59.9076 226.026 54.5396 225.495 48.2572C224.965 41.9747 221.277 37.1567 217.258 37.4961C213.238 37.8351 210.41 43.2031 210.94 49.4856Z" fill="#CE5354"/>
<path d="M203.375 52.5771C200.501 46.7002 201.108 40.4992 204.731 38.7268C208.355 36.9543 213.623 40.2817 216.497 46.1586C219.372 52.0355 218.765 58.2365 215.141 60.009C211.518 61.7814 206.25 58.4541 203.375 52.5771Z" fill="#CE5354"/>
<path d="M206.948 55.2711C206.903 51.6784 211.373 48.7096 216.932 48.6401C222.49 48.5706 227.032 51.4268 227.077 55.0195C227.122 58.6122 222.653 61.581 217.094 61.6505C211.536 61.72 206.993 58.8638 206.948 55.2711Z" fill="#CE5354"/>
<path d="M228.244 40.7664C227.911 40.6331 226.377 40.061 224.623 40.7504C222.741 41.4899 222.019 43.1264 221.894 43.424C221.646 43.0988 220.543 41.7222 218.616 41.4395C216.796 41.1723 214.937 41.9821 213.756 43.5258C211.4 41.1695 208.366 40.7133 206.715 41.9566C206.443 42.1615 205.613 42.8603 205.334 44.4904" stroke="white" stroke-miterlimit="10"/>
<path d="M216.996 59.1448C215.803 59.0892 212.006 58.759 208.729 55.8033C206.625 53.9049 205.657 51.7547 205.226 50.5684" stroke="white" stroke-miterlimit="10"/>
<path d="M210.066 79.9498C208.134 80.0464 207.091 80.3812 206.937 80.9539C206.617 82.15 210.172 84.384 217.602 87.656C217.517 87.0513 216.839 82.7096 213.174 80.7926C212.031 80.195 210.917 80.0001 210.066 79.9498Z" fill="#46795C"/>
<path d="M228.111 68.9246C230.046 68.9727 231.096 69.2813 231.264 69.8502C231.614 71.0379 228.116 73.3601 220.771 76.8171C220.84 76.2105 221.41 71.8531 225.026 69.845C226.153 69.219 227.262 68.9962 228.111 68.9246Z" fill="#46795C"/>
<path d="M219.513 95.0206C221.531 95.0708 222.628 95.3926 222.803 95.9863C223.168 97.2255 219.518 99.6487 211.854 103.256C211.927 102.623 212.521 98.0763 216.294 95.9809C217.47 95.3277 218.627 95.0952 219.513 95.0206Z" fill="#46795C"/>
</svg>
