<svg width="350" height="309" viewBox="0 0 350 309" fill="none" xmlns="http://www.w3.org/2000/svg">
<g clip-path="url(#clip0_20_2500)">
<path d="M89.2578 261.72C89.2578 261.72 40.0432 237.573 31.58 224.979C23.1167 212.384 35.5577 211.67 35.5577 211.67C35.5577 211.67 13.5947 190.415 16.6847 181.467C19.7746 172.52 31.1516 180.727 31.1516 180.727C31.1516 180.727 17.0301 149.446 23.6884 146.301C36.0914 140.443 53.4894 174.101 53.4894 174.101C53.4894 174.101 49.75 159.48 58.291 159.956C71.1707 160.673 70.6387 193.746 70.6387 193.746C70.6387 193.746 72.093 181.065 79.8567 185.183C93.7848 192.574 89.2578 261.72 89.2578 261.72Z" fill="#3C8F7C"/>
<path d="M82.6583 180.066C76.5958 176.72 70.5593 186.503 70.5593 186.503C70.5593 186.503 71.1707 160.671 58.291 159.954C49.7501 159.48 53.4895 174.099 53.4895 174.099C53.4895 174.099 36.0914 140.443 23.6885 146.299L89.3149 261.18C89.7778 253.157 94.6675 186.696 82.6583 180.065V180.066Z" fill="#50BFA5"/>
<path d="M87.9866 262.018C87.9866 262.018 47.7361 266.992 37.3143 262.56C26.8924 258.127 34.3608 252.651 34.3608 252.651C34.3608 252.651 11.9833 248.274 10.2561 241.444C8.52888 234.613 18.8523 235.158 18.8523 235.158C18.8523 235.158 -2.6046 221.331 0.264268 216.677C5.6082 208.009 30.2034 221.967 30.2034 221.967C30.2034 221.967 21.9008 214.36 27.4226 211.203C35.7494 206.442 48.9227 227.286 48.9227 227.286C48.9227 227.286 48.104 222.149 54.6276 221.579C66.3328 220.556 87.9866 262.02 87.9866 262.02V262.018Z" fill="#3C8F7C"/>
<path d="M54.8919 217.844C48.3683 218.413 48.9227 227.285 48.9227 227.285C48.9227 227.285 35.5111 202.576 27.1843 207.337C21.6642 210.495 28.1947 220.862 28.1947 220.862C28.1947 220.862 5.60822 208.008 0.264282 216.675L88.1093 261.795C85.123 256.603 65.8268 216.888 54.8919 217.842V217.844Z" fill="#50BFA5"/>
<path d="M319.436 203.522L321.598 198.323C323.275 194.499 327.567 192.673 331.186 194.244C340.302 198.204 344.266 209.226 340.038 218.863L336.948 225.908C335.593 228.995 336.065 232.389 337.891 234.784C339.549 236.958 339.82 239.981 338.67 242.602L337.041 246.316C335.277 250.338 331.845 253.315 327.774 254.544C325.394 255.262 323.291 257.039 322.18 259.574L319.873 264.834C317.322 270.648 310.796 273.424 305.295 271.035L302.157 269.672C296.656 267.283 294.265 260.633 296.816 254.819C300.941 247.866 300.613 242.678 299.15 239.159C297.001 233.984 297.025 228.031 299.35 222.732L299.677 221.989C302.131 216.397 306.869 212.22 312.511 210.431C315.002 209.642 317.6 207.714 319.437 203.524L319.436 203.522Z" fill="#50BFA5"/>
<path d="M177.018 306.227C171.175 298.689 139.139 258.308 118.249 251.577C95.1908 244.149 116.922 273.652 116.922 273.652C116.922 273.652 76.0172 229.143 61.0062 233.156C47.2457 236.834 61.0062 264.423 61.0062 264.423C61.0062 264.423 45.5081 249.145 26.7145 249.145C7.92095 249.145 39.494 303.328 41.1694 306.227H177.018Z" fill="#96D9C9"/>
<path d="M349.591 144.559C349.591 144.559 343.694 152.136 340.221 155.109C336.749 158.082 333.438 160.927 329.013 170.385C324.586 179.843 324.714 180.926 323.538 183.361C322.361 185.797 316.185 195.336 315.719 197.24C315.251 199.142 305.167 208.26 302.046 212.897C298.925 217.535 293.804 224.004 293.132 227.747L294.042 227.728C294.042 227.728 296.759 219.269 304.76 211.937C312.762 204.605 312.292 202.76 320.113 199.852C327.933 196.944 335.198 185.59 335.198 185.59C335.198 185.59 345.228 173.755 346.539 166.698C347.85 159.643 351.15 153.768 349.592 144.559H349.591Z" fill="#256653"/>
<path d="M343.47 129.392C343.47 129.392 341.939 134.911 339.361 137.803C336.78 140.696 334.756 142.346 333.59 145.85C332.426 149.355 329.134 158.325 323.044 161.668C316.954 165.009 313.156 178.365 308.366 181.563C303.578 184.762 302.392 187.582 301.461 194.753C300.532 201.923 300.666 212.191 292.144 223.578L291.624 220.135C291.624 220.135 298.039 210.629 298.504 204.3C298.967 197.972 297.771 187.971 300.032 183.83C302.293 179.69 297.934 177.77 302.245 171.713C306.556 165.657 305.97 163.07 311.062 158.149C311.062 158.149 311.51 157.967 313.636 153.299C315.764 148.631 325.785 141.492 330.153 139.274C334.521 137.057 340.931 133.369 343.47 129.392Z" fill="#256653"/>
<path d="M322.147 153.536C322.147 153.536 316.033 159.975 314.85 164.758C313.667 169.539 313.278 173.561 309.53 179.616C305.782 185.671 309.204 190.839 307.091 194.174C304.977 197.506 303.877 201.777 303.155 205.041C302.433 208.305 294.866 217.913 292.823 223.189C290.78 228.467 291.757 228.711 291.757 228.711C291.757 228.711 294.277 221.702 295.996 219.59C297.715 217.478 303.166 210.084 304.732 207.097C306.3 204.111 309.012 202.59 312.199 197.656C315.385 192.721 319.187 188.825 320.762 181.142C322.337 173.46 327.308 166.116 322.149 153.536H322.147Z" fill="#3C8F7C"/>
<path d="M295.83 224.385C295.83 224.385 300.079 215.402 308.902 216.447C317.722 217.493 322.379 220.353 330.07 214.85C337.76 209.347 343.851 199.199 346.233 197.761C346.233 197.761 343.546 195.492 337.367 199.039C331.189 202.587 326.787 205.344 323.206 207.411C319.626 209.481 317.658 207.136 314.133 208.231C311.178 209.149 306.791 212.76 304.774 214.718C304.119 215.353 303.388 215.907 302.592 216.357C301.868 216.766 301.001 217.273 300.431 217.662C299.29 218.439 295.16 224.267 295.16 224.267L295.834 224.387L295.83 224.385Z" fill="#3C8F7C"/>
<path d="M293.189 222.015C293.189 222.015 298.924 211.151 298.215 205.022C297.507 198.893 292.13 193.234 293.217 189.738C294.303 186.242 300.628 177.578 298.974 169.654C298.974 169.654 296.219 175.744 294.64 176.875C293.061 178.006 283.165 181.749 282.916 189.66C282.667 197.572 290.574 201.263 292.103 203.963C293.631 206.664 296.398 207.301 296.07 208.785C295.742 210.268 295.024 215.775 292.865 220.871L293.189 222.015Z" fill="#3C8F7C"/>
<path d="M298.312 215.042L305.423 203.823C305.423 203.823 310.219 194.584 313.582 186.733C316.945 178.882 322.149 153.536 322.149 153.536C322.149 153.536 316.035 159.976 314.852 164.758C313.669 169.539 313.28 173.561 309.532 179.616C305.784 185.671 309.205 190.839 307.093 194.174C304.979 197.506 303.879 201.777 303.157 205.041C302.435 208.305 294.868 217.913 292.825 223.189C291.706 226.08 291.493 227.46 291.529 228.117C291.961 223.187 298.314 215.042 298.314 215.042H298.312Z" fill="#327F6B"/>
<path d="M320.985 212.626C317.011 212.502 313.674 211.459 308.383 213.755C303.093 216.051 299.607 219.004 299.607 219.004C299.607 219.004 296.739 222.139 295.455 223.846C295.267 224.109 295.155 224.265 295.155 224.265L295.828 224.385C295.828 224.385 300.077 215.402 308.9 216.447C317.721 217.493 322.377 220.353 330.068 214.85C337.758 209.347 343.85 199.199 346.231 197.762C346.231 197.762 338.601 201.27 333.573 204.773C328.545 208.276 324.959 212.75 320.985 212.626Z" fill="#327F6B"/>
<path d="M294.64 176.875C293.061 178.006 283.165 181.749 282.916 189.66C282.667 197.572 290.574 201.263 292.103 203.963C293.631 206.664 296.398 207.301 296.07 208.785C295.742 210.268 295.024 215.775 292.865 220.871L293.006 221.371C293.939 219.403 295.3 216.392 296.063 214.042C297.303 210.226 297.046 208.47 296.526 205.026C296.006 201.583 289.697 193.354 288.528 189.526C287.36 185.697 294.409 181.381 296.317 178.951C298.226 176.521 298.974 169.654 298.974 169.654C298.974 169.654 296.219 175.744 294.64 176.875Z" fill="#327F6B"/>
<path d="M188.832 306.227C194.675 298.689 226.711 258.308 247.602 251.577C270.66 244.149 248.928 273.652 248.928 273.652C248.928 273.652 289.833 229.143 304.844 233.156C318.605 236.834 304.844 264.423 304.844 264.423C304.844 264.423 320.342 249.145 339.136 249.145C357.93 249.145 326.357 303.328 324.681 306.227H188.832Z" fill="#96D9C9"/>
<path d="M86.0417 305.995C67.3656 280.723 44.6599 257.364 17.6622 237.052C17.3927 236.849 17.0283 237.317 17.2995 237.525C42.9051 257.111 65.5589 280.238 84.6202 306.375L86.04 305.997L86.0417 305.995Z" fill="#256653"/>
<path d="M32.7286 259.676C33.3521 259.236 34.9705 257.563 37.1277 257.041C39.171 256.353 41.7549 256.814 41.6668 256.871C41.7204 256.993 39.9638 255.008 37.2227 254.43C34.5888 253.665 30.9703 254.308 29.7872 255.348C27.1031 257.156 26.8872 260.227 28.2189 260.796C29.5402 261.403 31.3071 260.566 32.7286 259.677V259.676Z" fill="#256653"/>
<path d="M21.7332 250.037C22.3567 249.597 23.9751 247.927 26.1324 247.402C28.1757 246.715 30.7595 247.175 30.6714 247.232C30.725 247.354 28.9702 245.369 26.2274 244.792C23.5934 244.027 19.9749 244.67 18.7918 245.709C16.1078 247.518 15.8919 250.589 17.2235 251.158C18.5448 251.764 20.3117 250.927 21.7332 250.039V250.037Z" fill="#256653"/>
<path d="M51.2354 255.394C50.6499 255.757 48.5704 256.486 47.6135 258.141C46.5046 259.631 46.5202 262.048 46.5979 261.993C46.7188 262.087 44.9225 259.777 44.8103 257.18C44.4769 254.6 45.8293 251.732 47.1575 251.125C49.5808 249.53 52.8987 250.572 53.2614 251.948C53.6656 253.332 52.4479 254.523 51.2371 255.396L51.2354 255.394Z" fill="#256653"/>
<path d="M54.0818 220.946C70.7941 246.919 82.9916 275.773 89.966 306.427L91.1111 306.121C84.1661 276.11 72.0498 247.306 55.3651 221.36C51.4876 215.331 47.3009 208.176 40.0397 205.825C39.8998 205.78 39.8463 205.992 39.981 206.041C46.6117 208.528 50.453 215.307 54.0818 220.944V220.946Z" fill="#256653"/>
<path d="M52.555 204.838C52.125 205.467 50.4772 207.11 49.9936 209.267C49.3442 211.314 49.8572 213.875 49.9124 213.786C50.0368 213.838 48.0073 212.129 47.3735 209.414C46.5531 206.808 47.1265 203.195 48.149 201.997C49.9124 199.29 52.9938 199.017 53.5914 200.328C54.227 201.631 53.4204 203.405 52.555 204.838Z" fill="#256653"/>
<path d="M48.5566 228.022C49.1801 227.582 50.7985 225.912 52.9558 225.387C54.999 224.7 57.5829 225.16 57.4948 225.217C57.5484 225.339 55.7935 223.354 53.0507 222.777C50.4168 222.012 46.7983 222.655 45.6152 223.694C42.9311 225.502 42.7152 228.574 44.0469 229.143C45.3699 229.749 47.1351 228.912 48.5566 228.024V228.022Z" fill="#256653"/>
<path d="M54.5897 238.183C55.2132 237.743 56.8316 236.071 58.9888 235.548C61.0321 234.861 63.616 235.321 63.5279 235.378C63.5814 235.5 61.8249 233.515 59.0838 232.938C56.4499 232.173 52.8314 232.816 51.6483 233.855C48.9642 235.664 48.7483 238.735 50.08 239.304C51.4013 239.91 53.1682 239.073 54.5897 238.185V238.183Z" fill="#256653"/>
<path d="M60.9976 216.335C60.4725 216.888 58.5864 218.253 57.7677 220.307C56.8022 222.227 56.9024 224.836 56.9715 224.757C57.0855 224.827 55.3514 222.821 55.1562 220.04C54.759 217.339 55.8989 213.86 57.0959 212.839C59.2669 210.443 62.3517 210.656 62.7351 212.045C63.1566 213.432 62.0788 215.056 60.9976 216.335Z" fill="#256653"/>
<path d="M69.8702 227.859C69.124 228.252 66.5143 228.967 65.2033 230.91C63.7179 232.639 63.5297 235.595 63.6281 235.535C63.768 235.662 61.7679 232.683 61.8543 229.493C61.6695 226.309 63.5711 222.914 65.2465 222.285C68.3485 220.539 72.3176 222.096 72.6441 223.811C73.0189 225.539 71.4264 226.893 69.8719 227.857L69.8702 227.859Z" fill="#256653"/>
<path d="M79.2091 245.312C78.406 245.575 75.7133 245.843 74.0932 247.54C72.3366 248.996 71.6509 251.878 71.7597 251.837C71.8755 251.984 70.4091 248.714 71.0326 245.586C71.3884 242.415 73.8358 239.388 75.5941 239.048C78.9466 237.846 82.5961 240.045 82.6272 241.791C82.705 243.556 80.9069 244.625 79.2108 245.314L79.2091 245.312Z" fill="#256653"/>
<path d="M37.1882 208.924C37.5388 208.637 38.4214 207.578 39.6754 207.174C40.8533 206.679 42.4026 206.839 42.3525 206.875C42.3888 206.945 41.2644 205.847 39.6166 205.626C38.0259 205.287 35.9118 205.825 35.2589 206.492C33.7511 207.678 33.758 209.505 34.5698 209.783C35.3781 210.084 36.3868 209.512 37.1882 208.924Z" fill="#256653"/>
<path d="M40.5389 201.507C40.5234 201.959 40.2194 203.302 40.6633 204.536C40.988 205.768 42.0606 206.89 42.0606 206.829C42.1383 206.815 40.5769 206.598 39.3955 205.436C38.1554 204.388 37.2936 202.394 37.4248 201.473C37.449 199.56 38.9067 198.452 39.6235 198.921C40.3576 199.375 40.5165 200.517 40.5389 201.509V201.507Z" fill="#256653"/>
<path d="M13.8141 240.218C14.1629 239.931 15.0473 238.872 16.3012 238.467C17.4792 237.972 19.0285 238.132 18.9784 238.168C19.0164 238.238 17.8902 237.14 16.2425 236.918C14.65 236.58 12.5377 237.118 11.8848 237.784C10.3769 238.97 10.3839 240.797 11.1956 241.076C12.004 241.377 13.0126 240.806 13.8141 240.218Z" fill="#256653"/>
<path d="M17.8574 232.737C17.8056 233.185 17.3911 234.498 17.7331 235.765C17.9559 237.018 18.9317 238.226 18.9369 238.163C19.0164 238.156 17.4774 237.812 16.3945 236.557C15.2442 235.411 14.5498 233.355 14.7554 232.446C14.9367 230.542 16.4808 229.555 17.1579 230.083C17.8522 230.595 17.9179 231.747 17.8574 232.737Z" fill="#256653"/>
<path d="M21.4517 282.636C38.5181 284.497 54.4117 291.994 69.7129 299.304C80.0311 304.233 79.5095 305.638 81.6115 306.372C81.9518 306.49 82.292 306.122 82.1262 305.796C81.3179 304.203 79.1986 303.125 77.7236 302.207C76.0068 301.14 74.2122 300.198 72.3935 299.318C68.4987 297.436 64.5037 295.743 60.5329 294.026C52.4565 290.534 44.2506 287.251 35.7183 285.027C31.0411 283.808 26.2809 282.93 21.4638 282.497C21.374 282.488 21.3636 282.626 21.4517 282.634V282.636Z" fill="#256653"/>
<path d="M35.3729 277.15C35.2624 277.846 34.5318 279.869 34.9825 281.868C35.2485 283.837 36.6959 285.785 36.7063 285.687C36.8306 285.682 34.4523 285.046 32.8443 283.019C31.124 281.158 30.1723 277.904 30.554 276.499C30.9599 273.537 33.4333 272.099 34.454 272.963C35.5024 273.807 35.5318 275.61 35.3746 277.15H35.3729Z" fill="#256653"/>
<path d="M50.4063 282.507C50.2958 283.203 49.5652 285.226 50.016 287.225C50.282 289.196 51.7294 291.142 51.7397 291.044C51.8641 291.037 49.4857 290.403 47.8777 288.377C46.1574 286.515 45.2058 283.262 45.5875 281.856C45.9934 278.894 48.4667 277.456 49.4875 278.32C50.5359 279.164 50.5652 280.967 50.4081 282.507H50.4063Z" fill="#256653"/>
<path d="M65.6834 289.282C65.5729 289.978 64.8423 292.001 65.2931 294C65.5591 295.972 67.0065 297.917 67.0168 297.819C67.1412 297.812 64.7628 297.178 63.1548 295.152C61.4345 293.29 60.4829 290.037 60.8646 288.631C61.2705 285.67 63.7438 284.231 64.7646 285.096C65.813 285.939 65.8423 287.741 65.6852 289.282H65.6834Z" fill="#256653"/>
<path d="M30.884 291.128C31.1931 290.552 31.7908 288.657 33.2416 287.435C34.5439 286.13 36.6994 285.499 36.6545 285.577C36.7426 285.651 34.6337 284.797 32.3124 285.398C29.9997 285.814 27.4745 287.684 26.9667 288.93C25.604 291.336 26.6195 293.772 27.8579 293.701C29.1032 293.662 30.1361 292.35 30.884 291.127V291.128Z" fill="#256653"/>
<path d="M46.5219 296.637C46.8311 296.061 47.4287 294.165 48.8795 292.943C50.1818 291.639 52.3374 291.008 52.2925 291.085C52.3806 291.159 50.2717 290.305 47.9503 290.906C45.6376 291.322 43.1124 293.192 42.6046 294.438C41.2419 296.845 42.2575 299.28 43.4959 299.21C44.7412 299.17 45.774 297.859 46.5219 296.635V296.637Z" fill="#256653"/>
<path d="M18.975 285.458C19.2444 285.139 19.8714 284.027 20.9457 283.449C21.9354 282.801 23.3742 282.689 23.3344 282.731C23.3793 282.789 22.1686 281.976 20.6314 282.047C19.1235 282.004 17.2893 282.846 16.8056 283.562C15.6311 284.894 15.9455 286.556 16.7314 286.675C17.519 286.814 18.3411 286.125 18.9733 285.456L18.975 285.458Z" fill="#256653"/>
<path d="M20.7799 278.142C20.842 278.556 20.7919 279.829 21.4034 280.88C21.9077 281.947 23.0736 282.792 23.0615 282.736C23.1306 282.71 21.6711 282.772 20.3981 281.911C19.0907 281.163 17.9714 279.489 17.9352 278.628C17.6346 276.882 18.7763 275.629 19.5104 275.937C20.2548 276.227 20.5933 277.243 20.7799 278.142Z" fill="#256653"/>
<path d="M268.093 271.166C315.28 224.21 315.28 148.079 268.093 101.123C220.905 54.1676 144.399 54.1676 97.2118 101.123C50.0244 148.079 50.0244 224.21 97.2118 271.166C144.399 318.122 220.905 318.121 268.093 271.166Z" fill="#B75742"/>
<path d="M260.567 263.677C303.598 220.857 303.598 151.432 260.567 108.612C217.536 65.7922 147.769 65.7922 104.738 108.612C61.7065 151.432 61.7065 220.857 104.738 263.677C147.769 306.497 217.536 306.497 260.567 263.677Z" fill="#F47458"/>
<path d="M248.172 251.343C284.357 215.335 284.357 156.954 248.172 120.946C211.986 84.9385 153.318 84.9385 117.133 120.946C80.947 156.954 80.947 215.335 117.133 251.343C153.318 287.351 211.986 287.351 248.172 251.343Z" fill="#FCF5EB"/>
<path d="M231.903 235.153C259.103 208.087 259.103 164.203 231.903 137.136C204.702 110.069 160.602 110.069 133.402 137.136C106.201 164.203 106.201 208.087 133.402 235.153C160.602 262.22 204.702 262.22 231.903 235.153Z" fill="#F47458"/>
<path d="M217.626 220.946C236.941 201.726 236.941 170.563 217.626 151.343C198.31 132.122 166.994 132.122 147.679 151.343C128.363 170.563 128.363 201.726 147.679 220.946C166.994 240.167 198.31 240.167 217.626 220.946Z" fill="#FCF5EB"/>
<path d="M195.264 186.144C195.264 193.075 189.618 198.694 182.652 198.694C175.687 198.694 170.04 193.075 170.04 186.144C170.04 179.212 175.687 173.594 182.652 173.594C189.618 173.594 195.264 179.212 195.264 186.144Z" fill="#B75742"/>
<path d="M260.089 123.847L259.642 115.694L287.381 94.1031L285.93 105.911L258.745 127.068L260.089 123.847Z" fill="#184655"/>
<path d="M262.139 126.594L269.984 128.99L297.723 107.399L285.859 105.957L258.675 127.114L262.139 126.594Z" fill="#12353D"/>
<path d="M181.706 187.185C182.336 187.988 183.502 188.129 184.309 187.502L262.461 126.674L260.176 123.768L182.024 184.595C181.217 185.223 181.075 186.383 181.706 187.185Z" fill="#184655"/>
<path d="M298.314 209.768C298.314 210.548 298.607 211.179 298.968 211.179C299.329 211.179 299.623 210.546 299.623 209.768C299.623 208.989 299.329 208.357 298.968 208.357C298.607 208.357 298.314 208.989 298.314 209.768Z" fill="#F7A491"/>
<path d="M292.153 301.279C292.324 300.064 292.377 298.197 292.358 296.044H296.635C296.189 299.095 295.842 301.468 295.842 301.468L295.949 302.432L295.953 305.278H286.596C286.596 305.278 288.583 304.393 291.36 302.644C291.566 302.515 292.039 302.102 292.155 301.279H292.153Z" fill="#F7A491"/>
<path d="M310.39 300.564L309.147 297.018H312.402C312.572 299.294 312.636 300.83 312.636 300.83L313.463 303.161L314.304 305.932C314.304 305.932 311.535 306.641 310.083 305.844L310.243 303.087L310.39 300.566V300.564Z" fill="#F7A491"/>
<path d="M293.503 223.507C294.633 221.971 299.291 217.522 299.808 217.531C301.316 217.557 306.267 217.559 307.236 218.048L307.19 226.517C307.033 227.228 303.614 238.3 303.813 240.723L303.789 240.746C300.923 243.499 296.405 243.283 293.785 240.266C293.785 240.266 293.797 236.908 293.393 233.843C292.761 229.043 290.7 227.319 293.503 223.504V223.507Z" fill="#F7CC7F"/>
<path d="M301.326 212.763C301.326 212.763 301.195 215.888 301.478 217.072C301.76 218.256 302.136 218.346 299.715 218.707C298.765 218.848 297.847 219.059 297.847 219.059C297.847 219.059 298.096 217.32 298.134 216.586C298.196 215.376 297.854 211.641 297.854 211.641L301.328 212.762L301.326 212.763Z" fill="#F7A491"/>
<path d="M299.483 214.319C298.986 214.587 298.519 214.745 298.091 214.81C298.008 213.336 297.854 211.643 297.854 211.643L301.167 212.712C300.782 213.351 300.236 213.913 299.483 214.319Z" fill="#F47458"/>
<path d="M310.244 303.073C311.522 303.641 312.897 303.298 313.449 303.118L313.632 303.611L314.337 305.949C314.337 305.949 311.534 306.641 310.081 305.842L310.244 303.073Z" fill="#E25A44"/>
<path d="M296.048 305.985H286.322C285.963 305.952 285.875 305.66 285.999 305.48C286.256 305.108 287.391 304.835 288.666 304.244C290.902 304.479 295.597 302.941 295.949 302.425C296.153 303.46 296.246 305.94 296.048 305.985Z" fill="#E25A44"/>
<path d="M296.783 240.887L302.483 281.237L307.673 299.842H313.321C313.321 299.842 312.01 284.853 309.202 279.544C309.202 279.544 307.976 265.315 306.748 256.613C306.565 255.312 307.473 251.936 307.236 251.063C305.416 244.355 303.811 240.725 303.811 240.725L296.783 240.887Z" fill="#355389"/>
<path d="M300.309 258.333L298.989 273.833C298.989 273.833 300.338 282.691 299.412 288.569C298.486 294.447 297.26 299.84 297.26 299.84H292.07L291.039 270.569C291.039 270.569 289.044 254.664 289.735 250.352C290.426 246.039 293.787 240.268 293.787 240.268L301.953 240.639C301.953 240.639 304.167 248.535 303.792 251.185C303.514 253.153 300.31 258.333 300.31 258.333H300.309Z" fill="#466EB6"/>
<path d="M308.337 231.75C314.508 229.906 312.855 224.494 312.82 224.698C312.838 224.531 313.42 223.849 313.706 223.266C314.905 220.84 313.325 217.916 311.513 216.905C312.713 213.819 311.522 210.857 309.261 209.623C308.119 209.001 307.159 208.114 306.387 207.09C304.675 204.816 301.561 202.528 297.816 203.274C294.111 204.218 299.072 206.353 298.58 209.9C298.331 211.698 299.046 211.44 300.162 212.885C298.556 215.695 299.485 220.412 301.948 222.551C300.74 227.615 302.038 233.63 308.335 231.75H308.337Z" fill="#184655"/>
<path d="M303.751 207C304.48 209.993 300.535 212.165 297.411 212.244C295.379 212.296 294.447 212.088 294.119 209.958C293.587 206.504 295.017 204.398 297.02 203.527C299.606 202.403 303.152 204.531 303.753 206.999L303.751 207Z" fill="#184655"/>
<path d="M299.162 204.988C299.162 204.988 300.535 205.448 301.267 206.829C302 208.209 301.635 212.629 298.588 214.087C295.542 215.544 294.143 212.234 294.364 209.792C294.585 207.349 295.467 204.154 299.162 204.99V204.988Z" fill="#F7A491"/>
<path d="M297.258 211.791L295.096 211.758C295.096 211.758 295.134 212.59 296.084 212.633C297.243 212.684 297.258 211.791 297.258 211.791Z" fill="white"/>
<path d="M302.35 210.173C302.801 207.889 302.625 206.158 300.994 205.323C299.364 204.488 297.97 203.659 296.511 205.161L296.181 205.347C296.181 205.347 298.934 206.105 299.088 207.561C299.241 209.017 300.706 210.746 300.48 211.461C300.253 212.176 299.994 213.6 299.994 213.6L300.597 213.107C300.597 213.107 301.899 212.459 302.35 210.175V210.173Z" fill="#184655"/>
<path d="M299.513 209.298C299.285 209.929 299.457 210.562 299.896 210.713C300.335 210.864 300.877 210.474 301.103 209.843C301.331 209.212 301.159 208.58 300.72 208.429C300.281 208.277 299.739 208.668 299.513 209.298Z" fill="#F7A491"/>
<path d="M67.927 263.701H95.9766L89.282 306.081H92.1751L129.932 67.0591H127.038L126.47 70.6598H98.3619L98.9301 67.0591H96.0371L58.2444 306.081H61.1374L67.927 263.701ZM116.048 136.641L111.418 165.956H83.3388L87.9607 136.641H116.048ZM88.3459 134.19L92.9679 104.876H121.066L116.435 134.19H88.3459ZM111.031 168.405L106.4 197.719H78.3299L82.9519 168.405H111.031ZM106.013 200.17L101.383 229.485H73.3228L77.9447 200.17H106.013ZM126.083 73.1107L121.453 102.425H93.3548L97.9767 73.1107H126.083ZM68.3139 261.252L72.9359 231.937H100.996L96.3652 261.252H68.3139Z" fill="#F7CC7F"/>
<path d="M187.426 27.6179C187.395 27.7245 187.162 28.4601 186.805 29.5567L190.556 30.3095C190.596 29.6993 190.634 29.1888 190.677 28.8176C190.986 26.2275 192.209 25.5245 192.838 24.0877C193.466 22.6491 195.907 21.7382 195.606 21.2501C195.306 20.762 193.031 22.7368 192.485 22.5254C191.939 22.314 194.43 19.3423 194.131 18.947C193.58 18.2183 191.212 22.063 190.934 21.7451C190.656 21.4271 192.907 17.3692 192.005 17.3177C191.105 17.2661 190.105 21.7107 189.632 21.5148C189.159 21.3188 190.941 17.4208 190.036 16.8381C189.551 16.5271 187.832 23.7766 187.065 24.1943C186.299 24.6119 185.219 21.7554 184.487 21.9977C183.754 22.2401 187.552 27.1694 187.425 27.6179H187.426Z" fill="#F79C8D"/>
<path d="M152.497 12.2062C152.48 12.3162 152.388 13.0828 152.261 14.2274L148.532 13.3732C148.749 12.8009 148.927 12.3196 149.039 11.9656C149.83 9.48032 149.008 8.33738 149.032 6.76991C149.055 5.20243 147.21 3.36856 147.687 3.04888C148.164 2.72748 149.416 5.46024 150.001 5.49118C150.587 5.52212 149.549 1.7925 149.986 1.55532C150.791 1.11704 151.354 5.59258 151.739 5.41727C152.124 5.24196 151.756 0.622052 152.599 0.945171C153.44 1.26829 152.509 5.72664 153.021 5.74211C153.534 5.75758 153.525 1.47454 154.591 1.31641C155.161 1.2322 153.722 8.5419 154.247 9.23798C154.772 9.93406 156.94 7.77364 157.506 8.29441C158.073 8.81518 152.57 11.7473 152.499 12.2079L152.497 12.2062Z" fill="#F79C8D"/>
<path d="M191.005 29.2026C191.005 29.2026 186.535 28.1387 186.494 28.4962C185.554 36.3198 185.133 39.1488 184.974 39.2313C184.431 39.508 177.251 32.9752 175.972 32.5318C175.36 32.3204 174.693 32.3547 174.054 32.3736C172.531 32.4183 172.23 32.4235 172.23 32.4235C172.187 32.4269 172.175 32.4269 172.175 32.4269L172.184 33.8517C173.899 35.3883 177.828 58.6563 178.158 58.6408C178.528 58.6236 186.292 60.5675 186.155 59.9178C186.133 59.8112 180.892 55.5437 179.405 49.3838C178.906 47.3162 178.659 45.0887 178.39 43.1414C180.115 44.0025 186.853 47.3007 187.92 46.8659C191.242 45.5098 191.008 29.2026 191.008 29.2026H191.005Z" fill="#F7CC7F"/>
<path d="M204.375 70.5171C204.375 70.5171 211.598 76.1477 211.84 77.1462C212.187 78.5848 218.802 76.6942 217.207 76.402C216.84 76.335 215.666 76.0377 215.569 75.9878C215.053 75.7128 208.626 68.0061 208.626 68.0061L204.377 70.5189L204.375 70.5171Z" fill="#F7A491"/>
<path d="M220.307 76.402L215.695 76.0291C215.695 76.0291 214.377 77.1153 211.844 77.1651C211.844 77.1651 211.439 78.3167 211.631 79.6624C211.664 79.8945 211.704 80.5957 211.939 80.5802C212.79 80.5218 215.061 79.9598 217.647 79.4459C217.647 79.4459 221.124 78.7137 223.131 77.5175C225.138 76.323 220.307 76.4003 220.307 76.4003V76.402Z" fill="#F7CC7F"/>
<path d="M172.009 56.3944C172.009 56.3944 177.298 57.2796 183.15 55.9166C189.919 54.3406 197.404 52.8831 199.598 54.1532C201.363 55.1741 212.388 71.7494 212.388 71.7494L208.13 74.8414L195.991 61.3168C195.991 61.3168 180.505 67.0023 177.027 66.3733C169.106 64.9382 168.994 58.6425 172.009 56.3961V56.3944Z" fill="#355389"/>
<path d="M188.549 81.6389C188.549 81.6389 188.228 90.3322 188.027 91.8052C187.829 93.2712 191.736 97.6866 191.236 96.1501C191.121 95.796 190.825 94.6273 190.825 94.519C190.824 93.9364 192.275 84.0194 192.275 84.0194L188.551 81.6407L188.549 81.6389Z" fill="#F7A491"/>
<path d="M193.734 99.316L190.85 94.6496C190.85 94.6496 189.264 94.012 188.014 91.8172C188.014 91.8172 186.803 92.0097 185.704 92.8175C185.514 92.9567 184.222 93.8968 184.312 94.1134C184.644 94.9126 186.402 96.6227 188.326 98.4893C188.326 98.4893 191.053 100.677 193.064 101.868C195.074 103.058 193.732 99.316 193.732 99.316H193.734Z" fill="#F7CC7F"/>
<path d="M197.123 64.4982C195.273 62.0438 180.345 59.7133 180.345 59.7133L176.182 51.7522L166.978 57.3999C166.978 57.3999 167.899 64.689 168.59 66.6363C169.51 69.2315 175.695 69.3639 179.474 69.3243C182.951 69.2882 189.3 69.9946 189.3 69.9946L187.153 88.8472C187.153 88.8472 191.375 89.8029 192.561 89.6482C192.696 89.631 199.427 67.5506 197.124 64.4982H197.123Z" fill="#466EB6"/>
<path d="M172.225 32.4407L167.033 32.7294C167.033 32.7294 166.914 32.7655 166.878 32.7724C166.455 32.8497 166.84 47.9091 167.216 53.5345C167.593 59.1599 168.358 61.5214 168.358 61.5214C168.358 61.5214 175.402 60.277 177.562 59.4417C178.459 59.0945 180.63 56.3944 180.63 56.3944C180.63 56.3944 178.412 53.4279 177.295 48.6069C176.433 44.8893 175.37 38.2998 174.762 36.9248C173.365 33.7658 172.225 32.4407 172.225 32.4407Z" fill="#184655"/>
<path d="M167.18 28.1662L167.033 32.7294C167.033 32.7294 170.394 38.494 172.122 37.6896C173.569 37.0159 172.284 32.6314 172.284 32.6314C172.284 32.6314 172.034 31.626 171.685 30.471C171.441 29.6632 171.239 28.7901 171.255 28.149C171.291 26.5901 167.18 28.1662 167.18 28.1662Z" fill="#F7A491"/>
<path d="M171.255 28.149C171.291 26.5901 167.18 28.1662 167.18 28.1662L167.166 28.6114C167.305 28.8193 167.458 28.9946 167.626 29.1304C168.731 30.0224 170.329 30.4246 171.629 30.2768C171.412 29.5257 171.243 28.7368 171.256 28.1473L171.255 28.149Z" fill="#F47458"/>
<path d="M171.196 17.7611C171.196 17.7611 172.909 20.3306 173.037 22.4927C173.165 24.6549 172.705 26.1312 172.705 26.1312L167.208 19.5932L171.196 17.7611Z" fill="#F7CC7F"/>
<path d="M173.605 22.0493C173.683 22.8072 173.388 23.4569 172.945 23.5016C172.503 23.5463 172.082 22.9688 172.004 22.2126C171.926 21.4546 172.222 20.8049 172.666 20.7603C173.108 20.7156 173.529 21.2931 173.607 22.0493H173.605Z" fill="#F48C7F"/>
<path d="M165.429 20.64C165.303 20.6125 165.315 26.9081 167.149 28.3896C168.983 29.8712 172.173 30.0018 173.106 28.5082C174.137 26.8583 173.156 20.224 170.429 18.8164C167.702 17.407 165.429 20.64 165.429 20.64Z" fill="#F7A491"/>
<path d="M164.964 16.7367C163.565 17.9587 162.886 18.8508 161.94 21.0215C160.776 23.6907 163.085 26.4578 165.023 27.5561C166.961 28.656 167.121 29.9846 167.121 29.9846L167.201 29.1648C167.239 28.8657 167.228 28.6217 167.177 28.412C167.114 28.1645 167 27.96 166.9 27.7468C166.736 27.3962 166.206 26.1948 165.999 25.8769C165.453 25.0399 165.346 24.8594 165.615 24.0636C165.823 23.4518 165.582 22.1026 165.902 21.0937L168.51 20.5334C168.51 20.5334 170.142 20.1432 170.966 19.1962C173.332 16.4789 168.653 13.4506 164.962 16.735L164.964 16.7367Z" fill="#F7CC7F"/>
<path d="M166.235 24.7528C166.557 25.4438 166.489 26.1536 166.087 26.3409C165.683 26.5266 165.095 26.1175 164.774 25.4266C164.453 24.7357 164.52 24.0258 164.923 23.8385C165.327 23.6529 165.914 24.0619 166.235 24.7528Z" fill="#F7A491"/>
<path d="M167.032 32.7294C167.032 32.7294 161.883 32.4905 160.555 31.8924C159.75 31.5297 153.133 26.2258 153.133 26.2258L153.207 12.0223L148.554 11.67C148.554 11.67 146.141 27.3687 146.977 29.0875C147.841 30.8612 157.523 38.1674 159.46 41.3368C160.575 43.1637 162.902 68.0009 163.254 68.2244C165.76 69.522 173.498 70.8179 173.315 70.0307C168.279 48.2769 167.03 32.7277 167.03 32.7277L167.032 32.7294Z" fill="#F7CC7F"/>
<path d="M169.229 26.3925L172.225 25.4455C172.225 25.4455 172.517 26.6005 171.211 27.0542C169.619 27.6076 169.229 26.3925 169.229 26.3925Z" fill="white"/>
<path d="M297.11 81.6613C297.497 81.596 297.69 81.089 297.493 80.7693C297.177 80.2554 296.868 79.7363 296.557 79.219C295.87 78.0778 295.808 78.0537 295.863 77.9231C295.996 77.612 296.585 77.7547 296.797 77.8268C297.267 77.9867 297.699 78.2668 298.198 78.3304C299.172 78.4542 299.88 77.7134 299.449 76.7733C299.051 75.9139 298.604 75.07 298.15 74.233C299.195 74.4461 300.233 74.6885 301.279 74.8861C301.651 74.9566 301.906 74.6266 301.756 74.2846C301.424 73.5249 300.44 71.2734 300.115 70.5309C300.031 70.3384 299.535 69.4911 299.706 69.3278C299.86 69.1817 300.576 69.3793 300.74 69.4034C301.649 69.534 301.97 69.5684 304.936 69.9293C305.29 69.9723 305.584 69.4928 305.375 69.1989C303.304 66.32 303.665 66.0588 302.927 65.6549C302.761 65.5638 302.604 65.6755 302.58 65.8457C302.514 66.2788 302.528 66.3871 303.309 67.7603C303.511 68.1161 303.722 68.465 303.941 68.8087C300.35 68.3034 299.457 68.0903 298.97 68.8929C298.633 69.4498 298.796 69.6011 300.67 73.8566C299.587 73.5764 298.492 73.365 297.395 73.1296C296.979 73.0402 296.673 73.4321 296.851 73.8153C298.288 76.8867 298.45 76.909 298.504 77.2133C298.504 77.2218 298.694 77.2648 298.412 77.239C297.936 77.1961 297.056 76.5051 296.143 76.6117C295.34 76.7045 294.574 77.3576 294.756 78.229C294.861 78.736 295.051 78.9148 296.006 80.606C295.063 80.7916 294.148 81.089 293.208 81.5169C292.801 81.7025 292.557 81.8779 292.303 82.2474C292.096 82.5499 292.353 83.038 292.728 83.0174C293.792 82.9572 294.253 82.1374 297.112 81.6579L297.11 81.6613Z" fill="#F7CC7F"/>
<path d="M315.978 90.1569C315.843 89.2563 315.779 88.3935 315.803 87.4482C315.808 87.2695 315.777 86.9378 315.959 86.826C316.394 86.5562 317.047 87.3021 318.722 87.6665C319.449 87.8246 320.938 88.2148 321.258 87.2437C321.422 86.7453 321.315 86.1162 321.313 85.5989C321.313 85.207 321.325 84.8151 321.332 84.4233C324.052 85.1864 323.897 85.3462 324.514 85.0781C324.674 85.0093 324.757 84.7653 324.662 84.6158C324.308 84.0589 324.381 84.2187 320.959 83.2202C320.646 83.1291 320.263 83.3439 320.265 83.698C320.266 84.229 320.408 86.6335 320.377 86.9309C320.349 86.912 320.22 86.936 320.19 86.936C319.054 86.8965 318.099 86.4874 317.069 86.0646C316.225 85.7175 315.078 85.7106 314.814 86.7865C314.67 87.3709 314.729 88.574 314.817 89.5021C313.161 88.9744 311.508 88.4348 309.848 87.9191C309.523 87.8177 309.057 88.0584 309.083 88.4451C309.155 89.521 309.193 90.5952 309.221 91.6711C308.247 91.3531 307.328 90.8839 306.492 90.2841C305.877 89.8424 305.095 90.7 306.722 91.7089C307.615 92.3019 308.596 92.735 309.648 93.0117C309.995 93.1028 310.413 92.8811 310.414 92.4841C310.418 91.4184 310.373 90.3511 310.306 89.2855C311.962 89.7908 313.625 90.2789 315.28 90.7842C315.686 90.908 316.035 90.5591 315.974 90.1586L315.978 90.1569Z" fill="#F47458"/>
<path d="M321.709 111.749C321.715 112.077 321.924 112.285 322.235 112.342C323.757 112.615 325.263 112.756 326.79 112.497C327.584 112.363 327.301 111.185 326.524 111.268C325.306 111.399 324.049 111.469 322.817 111.311C322.847 110.402 322.964 109.501 323.189 108.621C323.273 108.286 323.052 107.837 322.659 107.848C321.676 107.875 317.961 108.09 317.929 108.13C317.933 108.123 317.938 108.097 317.926 108.032C317.853 107.638 318.144 106.303 318.114 105.692C318.08 105.007 317.166 104.759 316.612 104.706C315.487 104.598 314.24 105.405 313.145 104.971C312.092 104.553 313.276 102.908 312.427 101.622C311.772 100.632 310.646 100.93 308.869 101.27C308.433 101.354 308.008 101.44 307.787 101.867C307.734 101.971 307.723 102.128 307.822 102.219C308.356 102.714 308.998 102.49 310.622 102.224C310.829 102.19 311.178 102.068 311.361 102.221C311.974 102.728 311.076 104.12 311.803 105.294C312.368 106.208 313.501 106.376 314.461 106.261C315.214 106.17 316.144 105.735 316.907 106.005C316.866 106.657 316.805 107.311 316.814 107.961C316.822 108.671 317.187 109.164 317.905 109.223C318.7 109.288 319.525 109.18 320.316 109.144C320.85 109.12 321.382 109.097 321.916 109.068C321.764 109.951 321.69 110.843 321.707 111.751L321.709 111.749Z" fill="#3CB4C5"/>
<path d="M277.945 70.4501C273.696 66.9817 271.53 70.1029 272.753 71.5415C273.276 72.1585 274.207 72.2084 274.677 71.5106C274.891 71.1909 274.575 70.6632 274.174 70.787C273.843 70.8901 273.765 70.5154 274.116 70.371C274.589 70.1768 275.164 70.5223 275.572 70.7371C276.523 71.239 277.765 71.8766 277.928 73.0643C278.169 74.8363 276.358 76.7114 273.674 75.6784C269.803 74.1883 269.986 67.8858 274.092 66.8391C276.325 66.2702 278.726 67.2138 280.095 69.0425C280.363 69.4 280.841 68.9806 280.696 68.6231C279.601 65.9093 276.119 64.8746 273.478 65.7941C270.77 66.7377 269.421 69.5787 269.825 72.3252C270.25 75.2041 272.724 77.6 275.743 77.2923C279.054 76.9554 280.91 72.8752 277.94 70.4518L277.945 70.4501Z" fill="#3CB4C5"/>
<path d="M319.791 121.35C319.099 120.867 317.669 120.571 317.202 121.51C316.986 121.946 317.107 122.484 317.617 122.651C318.116 122.814 318.581 122.548 318.966 123.007C319.296 123.4 319.097 123.966 318.797 124.32C317.878 125.396 315.917 125.066 314.819 124.469C313.074 123.521 312.77 121.037 314.651 119.848C315.24 119.476 315.924 119.394 316.589 119.241C316.957 119.155 317.133 118.576 316.745 118.382C315.251 117.631 313.408 118.595 312.523 119.858C311.594 121.185 311.632 123.075 312.492 124.426C313.454 125.937 315.396 126.688 317.142 126.669C320.771 126.63 322.037 122.912 319.791 121.35Z" fill="#3C8F7C"/>
<path d="M248.12 232.774C248.009 233.156 247.945 233.283 247.804 233.539C246.892 235.191 244.776 237.547 244.776 237.547L243.139 233.878C243.139 233.878 243.406 232.726 243.867 231.078C245.448 231.489 246.954 231.726 248.12 232.774Z" fill="#F8A492"/>
<path d="M238.736 229.591C238.736 229.591 247.866 233.503 248.161 233.429C248.351 233.381 251.906 227.46 251.944 221.893C251.961 219.322 249.277 216.228 246.284 216.84C244.776 217.148 244.8 217.565 242.569 220.79C240.339 224.014 238.736 229.591 238.736 229.591Z" fill="#466EB6"/>
<path d="M230.943 299.734C230.943 299.734 231.159 303.302 231.161 303.309C231.24 303.763 231.554 304.881 231.554 305.292C231.554 306.839 224.172 303.979 225.827 303.293C225.977 303.231 226.761 302.762 226.81 302.235C226.886 301.423 227.077 299.782 227.077 299.782L230.943 299.732V299.734Z" fill="#F7A491"/>
<path d="M225.844 303.28C225.844 303.28 227.578 303.752 228.464 303.871C229.352 303.989 230.523 302.993 231.15 303.262C231.841 303.558 231.813 306.224 231.813 306.224C231.813 306.224 222.519 306.983 219.904 306.198C218.87 305.887 222.298 304.381 225.842 303.28H225.844Z" fill="#3C8F7C"/>
<path d="M246.044 299.734C246.044 299.734 246.26 303.302 246.261 303.309C246.341 303.763 246.655 304.881 246.655 305.292C246.655 306.839 239.273 303.979 240.928 303.293C241.078 303.231 242.095 302.412 242.144 301.886C242.22 301.074 242.18 299.784 242.18 299.784L246.045 299.734H246.044Z" fill="#F7A491"/>
<path d="M240.945 303.28C240.945 303.28 242.679 303.752 243.565 303.871C244.453 303.989 245.624 302.993 246.251 303.262C246.942 303.558 246.97 306.224 246.97 306.224C246.97 306.224 237.632 307.109 235.007 306.198C233.988 305.844 237.401 304.381 240.945 303.28Z" fill="#3C8F7C"/>
<path d="M245.36 211.017L246.197 216.285C246.197 216.285 243.009 218.834 241.149 218.296C239.589 217.846 240.658 215.816 240.658 215.816C240.658 215.816 241.489 213.004 241.233 211.529C240.978 210.055 245.36 211.017 245.36 211.017Z" fill="#F7A491"/>
<path d="M244.759 212.61C243.959 212.987 242.379 213.499 241.149 213.623C241.266 212.885 241.334 212.105 241.233 211.529C241.116 210.849 241.985 210.689 242.955 210.711C244.225 210.819 245.358 211.017 245.358 211.017L245.519 212.029C245.277 212.284 245.023 212.485 244.757 212.61H244.759Z" fill="#FE875E"/>
<path d="M249.384 204.941C249.515 204.941 248.123 210.826 245.969 211.839C243.814 212.851 240.601 212.323 239.998 210.739C239.332 208.986 241.764 202.982 244.795 202.219C247.826 201.456 249.386 204.941 249.386 204.941H249.384Z" fill="#F7A491"/>
<path d="M246.89 199.534C248.61 200.523 249.401 201.987 249.667 202.587C250.476 202.968 251.453 203.793 251.921 206.017C252.498 208.75 250.448 210.857 248.273 211.491C246.099 212.126 245.764 213.557 245.764 213.557L245.517 212.016C245.517 212.016 246 210.673 246.728 210.003C247.455 209.331 246.382 208.353 246.289 207.554C246.216 206.939 246.671 205.746 246.572 204.737C246.572 204.737 245.363 202.915 244.173 202.465C242.142 201.697 244.683 198.266 246.892 199.534H246.89Z" fill="#13375B"/>
<path d="M245.975 208.58C245.693 209.259 245.809 209.934 246.232 210.087C246.655 210.24 247.227 209.812 247.508 209.133C247.79 208.455 247.674 207.779 247.251 207.626C246.828 207.473 246.256 207.901 245.975 208.58Z" fill="#F7A491"/>
<path d="M237.948 234.897L225.407 232.862C225.407 232.862 226.834 229.287 227.343 229.287C227.853 229.287 236.827 233.185 236.827 233.185L237.541 234.612L237.948 234.897Z" fill="#F8A492"/>
<path d="M244.373 243.454C244.373 243.454 245.624 249.473 245.114 254.037C244.605 258.6 244.565 274.812 244.565 274.812L246.51 300.751L241.893 300.851C241.893 300.851 236.42 274.924 236.522 275.591C236.624 276.256 234.686 257.337 234.686 257.337L241.211 242.886L244.372 243.456L244.373 243.454Z" fill="#184655"/>
<path d="M243.149 243.169C243.149 243.169 243.964 248.588 242.945 250.965C241.926 253.342 234.199 276.664 234.097 278.566C233.995 280.467 231.425 301.485 231.425 301.485L226.057 301.336L224.896 277.968L227.328 248.599L229.689 241.174L243.149 243.171V243.169Z" fill="#13375B"/>
<path d="M246.196 216.285C246.196 216.285 244.873 217.149 243.638 217.05C242.403 216.95 240.658 215.816 240.658 215.816L240.9 214.998C240.9 214.998 244.094 214.535 244.175 214.585C244.256 214.635 246.196 216.287 246.196 216.287V216.285Z" fill="#F7A491"/>
<path d="M232.088 229.112C232.088 229.112 227.343 233.567 225.202 232.807C223.06 232.046 222.174 229.447 227.399 225.642C232.074 222.237 232.086 229.112 232.086 229.112H232.088Z" fill="#F8A492"/>
<path d="M228.874 234.612C229.578 230.796 234.686 218.923 235.093 216.737C235.292 215.673 238.047 215.651 240.67 215.788C243.443 215.934 246.196 216.283 246.196 216.283C246.196 216.283 248.65 216.684 249.73 217.691C250.809 218.698 251.096 221.481 249.543 226.766C248.318 230.937 246.8 233.228 246.047 236.267C245.895 237.286 245.764 238.291 245.591 239.467C245.315 244.011 245.595 250.013 245.595 250.013C245.595 250.013 232.237 252.77 227.24 248.587C227.24 248.587 228.15 238.518 228.872 234.61L228.874 234.612Z" fill="#50BFA5"/>
<path d="M225.468 226.408C225.468 226.408 230.71 230.714 231.015 230.714C231.212 230.714 238.496 225.382 240.176 221.003C241.106 218.581 239.156 215.872 236.929 215.881C235.385 215.888 234.699 216.283 231.641 218.849C228.582 221.417 225.468 226.407 225.468 226.407V226.408Z" fill="#466EB6"/>
<path d="M240.372 208.193L242.339 209.266C242.339 209.266 241.824 210.089 240.943 209.646C239.869 209.104 240.373 208.193 240.373 208.193H240.372Z" fill="white"/>
<path d="M115.794 231.14C115.641 230.7 117.786 230.346 117.902 229.902C118.016 229.459 115.192 229.423 115.091 229.033C114.905 228.314 118.187 228.881 118.123 228.545C118.059 228.208 114.703 227.457 115.065 226.881C115.428 226.303 118.463 228.02 118.554 227.63C118.646 227.238 115.589 226.286 115.642 225.429C115.672 224.97 120.662 227.716 121.24 227.467C121.819 227.218 120.618 225.062 121.078 224.741C121.539 224.421 122.862 229.122 123.18 229.28C123.496 229.437 130.239 233.266 132.638 233.874C132.93 233.075 136.365 228.125 136.621 227.369C137.966 228.323 139.348 228.454 140.737 229.321C139.73 231.831 135.111 238.798 134.41 239.113C132.275 240.072 124.019 233.259 122.37 232.092C120.72 230.925 119.776 231.303 118.662 230.935C117.546 230.566 115.948 231.58 115.794 231.14Z" fill="#F7A491"/>
<path d="M161.605 212.958C160.368 209.682 157.14 207.698 153.779 208.31C152.748 206.653 151.027 205.423 149.155 205.024C145.464 204.237 140.473 205.687 140.607 209.577C139.175 212.189 139.12 215.926 141.312 217.913C140.55 221.426 143.856 224.824 148.155 224.7C149.653 227.156 152.504 228.737 155.34 228.399C156.021 228.318 157.059 228.149 157.231 228.191C157.016 228.151 161.788 231.791 165.831 226.193C169.957 220.48 167.057 213.564 161.606 212.956L161.605 212.958Z" fill="#184655"/>
<path d="M150.017 244.553C150.14 244.604 148.395 246.84 146.696 248.423C145.324 250.135 144.039 252.16 143.597 254.37C142.925 257.728 143.483 274.321 142.899 275.502C137.87 280.395 134.229 292.673 133.206 296.42C133.008 297.151 132.603 297.809 132.044 298.321L132.268 302.554L134.768 304.845C134.768 304.845 134.211 301.396 135.322 298.837C135.322 298.837 147.984 279.754 148.735 278.296C150.171 274.142 155.401 252.861 155.401 252.861L156.615 247.97C156.615 247.97 150.029 244.56 150.019 244.556L150.017 244.553Z" fill="#F7A491"/>
<path d="M129.304 299.682C129.304 299.682 130.887 302.107 131.021 303.053C131.156 303.998 131.999 306.141 132.93 306.277C133.142 306.308 136.764 306.573 136.738 306.122C136.718 305.779 135.407 305.287 134.797 304.868C133.743 304.144 132.109 298.251 132.109 298.251C132.109 298.251 129.37 298.926 129.303 299.682H129.304Z" fill="#355389"/>
<path d="M150.545 218.638C150.545 218.638 155.844 209.154 157.133 207.138C158.421 205.122 161.781 197.111 161.9 196.795C162.019 196.478 159.587 192.689 160.13 192.558C160.672 192.427 161.273 194.557 161.853 194.303C162.432 194.048 164.125 188.925 164.455 189.177C165.073 189.653 163.543 192.357 163.871 192.527C164.201 192.697 165.197 189.554 165.845 189.645C166.491 189.738 164.615 192.527 164.796 192.773C164.978 193.019 166.926 190.391 167.278 190.951C167.47 191.255 165.487 193.246 165.867 193.431C166.247 193.617 168.013 192.333 168.199 192.704C168.386 193.075 166.569 193.582 166.025 194.581C165.48 195.58 164.555 196.011 164.171 197.86C163.786 199.71 163.213 206.402 161.242 209.74C159.273 213.08 154.941 220.468 154.941 220.468L150.544 218.636L150.545 218.638Z" fill="#F79C8D"/>
<path d="M160.84 251.907C160.84 251.907 168.995 269.259 169.047 272.312C169.092 274.928 167.622 289.6 168.032 301.819C168.047 302.26 168.608 302.846 169.425 303.219C169.885 303.429 172.106 304.416 172.106 304.416L172.412 305.206L164.762 304.665L164.653 302.587C164.653 302.587 161.608 284.308 161.919 279.138C161.967 278.326 162.365 273.465 162.365 273.465L153.167 255.793L158.952 248.229L160.84 251.909V251.907Z" fill="#F7A491"/>
<path d="M142.144 272.752C142.144 272.752 142.147 272.757 142.15 272.752H142.144Z" fill="#F47458"/>
<path d="M153.81 223.77C154.029 222.436 156.104 219.097 156.432 218.279C156.432 218.279 154.026 215.237 152.074 215.467C152.074 215.467 149.45 219.796 147.958 219.941C146.466 220.087 141.219 220.312 140.298 220.869C139.377 221.424 135.474 227.388 135.474 227.388C135.474 227.388 138.982 230.953 140.393 230.946C140.393 230.946 141.143 229.476 141.441 229.155C141.654 229.837 144.922 240.375 144.917 242.76L144.942 242.781C147.998 245.247 152.456 244.676 154.812 241.519C154.812 241.519 154.535 238.235 154.692 235.206C154.938 230.461 155.903 227.94 153.81 223.772V223.77Z" fill="#3C8F7C"/>
<path d="M170.821 264.531L154.813 241.517C153.825 241.916 152.893 242.262 151.837 242.464C149.542 242.906 147.243 242.834 144.92 242.76C144.92 242.846 144.915 242.922 144.906 242.987C144.638 244.884 142.11 247.822 141.588 253.579C140.996 260.114 141.355 271.466 141.555 272.212C152.198 270.925 167.802 267.687 170.821 264.533V264.531Z" fill="#F7CC7F"/>
<path d="M145.259 216.105C145.259 216.105 145.822 219.123 145.709 220.312C145.597 221.501 146.139 225.337 148.57 225.351C151.001 225.363 149.031 220.475 148.803 219.308C148.573 218.141 148.519 214.532 148.519 214.532L145.259 216.106V216.105Z" fill="#F7A491"/>
<path d="M148.568 216.343C148.53 215.355 148.518 214.532 148.518 214.532L145.257 216.106C145.257 216.106 145.373 216.723 145.488 217.509C146.915 217.806 147.95 217.258 148.568 216.343Z" fill="#F47458"/>
<path d="M144.067 207.777C144.067 207.777 142.811 208.499 142.352 210.065C141.892 211.631 142.416 215.67 145.661 216.644C148.906 217.619 150.312 214.42 149.644 211.919C148.975 209.419 147.521 206.253 144.069 207.777H144.067Z" fill="#F7A491"/>
<path d="M150.048 210.952C149.984 211.624 149.627 212.136 149.25 212.098C148.872 212.06 148.618 211.485 148.682 210.813C148.746 210.141 149.103 209.628 149.48 209.666C149.858 209.704 150.112 210.28 150.048 210.952Z" fill="#F7A491"/>
<path d="M143.286 213.54C143.668 214.128 143.666 214.819 143.283 215.087C142.899 215.353 142.281 215.094 141.899 214.508C141.518 213.92 141.519 213.229 141.903 212.961C142.286 212.695 142.904 212.954 143.286 213.54Z" fill="#F7A491"/>
<path d="M164.736 306.112H174.4C174.757 306.081 174.844 305.794 174.721 305.617C174.465 305.253 173.339 304.986 172.072 304.405C169.849 304.636 165.009 303.125 164.658 302.618C164.456 303.634 164.539 306.071 164.738 306.114L164.736 306.112Z" fill="#355389"/>
<path d="M145.721 214.207L147.796 213.599C147.796 213.599 147.984 214.412 147.079 214.705C145.977 215.065 145.721 214.207 145.721 214.207Z" fill="white"/>
<path d="M93.0939 166.568C93.3633 166.578 94.1043 166.825 95.1855 168.86C96.5673 171.459 98.5881 179.31 98.5881 179.31L92.5585 181.545L91.7847 179.907L90.5083 167.29C90.5083 167.29 93.0196 166.564 93.0939 166.568Z" fill="#3C8F7C"/>
<path d="M85.123 165.435C86.8467 165.437 91.1129 165.939 93.0923 166.568C93.0923 166.568 94.5466 179.008 91.7831 188.461C91.1647 190.576 92.2943 197.233 92.2943 197.233L74.4282 196.998C74.4282 196.998 76.544 180.907 75.7478 178.308C74.9498 175.71 74.9308 166.652 74.9308 166.652C74.9308 166.652 75.0535 166.633 78.9448 165.963C80.7601 165.65 83.2801 165.433 85.1213 165.435H85.123Z" fill="#96D9C9"/>
<path d="M83.0417 220.322C83.0417 220.322 83.4372 224.861 84.1644 226.119C84.8915 227.376 84.1264 229.514 84.0884 229.808C84.0504 230.102 82.5581 230.519 80.1866 230.268C77.8152 230.018 77.8532 229.473 78.0449 228.593C78.2366 227.713 79.4975 226.582 79.5752 225.743C79.6512 224.904 78.8481 221.888 78.8481 221.888L83.0434 220.324L83.0417 220.322Z" fill="#F7A491"/>
<path d="M90.2804 193.486C90.2804 193.486 102.613 192.806 105.367 194.464C108.121 196.124 103.411 204.269 103.411 204.269C103.411 204.269 94.8281 203.876 78.0208 204.842C74.0396 205.07 73.6976 194.514 74.4421 193.641C75.1865 192.768 90.2821 193.486 90.2821 193.486H90.2804Z" fill="#355389"/>
<path d="M79.8896 230.621C77.4473 230.361 77.7496 229.168 77.9465 228.263C78.0691 227.696 78.7703 227.027 79.1883 226.394C79.406 226.568 79.7618 226.872 80.8222 227.185C81.9242 227.508 83.4338 226.869 84.3941 226.467C84.7361 227.737 84.7533 229.356 84.7205 229.602C84.6808 229.904 82.3318 230.882 79.8896 230.623V230.621Z" fill="#13375B"/>
<path d="M81.2368 202.265C81.7291 205.976 84.1696 224.445 84.1696 224.445L78.5096 225.143C78.5096 225.143 71.549 201.035 71.9048 197.348C72.2623 193.662 74.8669 193.35 74.8669 193.35C74.8669 193.35 79.9328 192.443 81.2368 202.265Z" fill="#466EB6"/>
<path d="M74.7374 168.034C76.4076 167.41 77.2245 182.387 77.4508 188.552C80.4095 188.835 85.5651 188.553 86.8484 188.459C87.453 188.414 88.8451 187.907 89.4444 187.828C90.0593 187.747 90.6172 187.706 90.9194 187.759C91.03 187.778 94.113 189.033 94.3773 189.308C94.7037 189.65 95.588 190.509 95.4395 190.882C95.291 191.255 93.7382 189.846 93.7382 189.846L92.98 189.423C93.923 190.341 95.7245 191.549 95.4654 191.989C95.2132 192.419 93.5879 191.192 92.4307 190.356C93.4239 191.248 94.6571 192.845 94.3721 193.094C94.1165 193.318 92.714 191.47 91.2148 190.937C90.6586 190.74 90.1059 191.286 89.6689 191.352C89.3477 191.4 88.852 191.503 88.5359 191.415L86.9123 190.956C86.3596 191.006 86.3458 191.331 85.7862 191.45C85.1385 191.587 84.0746 191.731 83.249 191.932C78.494 193.089 76.9084 193.625 75.4524 193.624C71.0429 193.62 70.7873 169.508 74.7356 168.035L74.7374 168.034Z" fill="#F7A491"/>
<path d="M71.568 182.095C71.2553 175.78 71.3003 167.998 74.8583 166.669C76.2625 166.145 78.7358 169.295 78.2919 182.223C76.3937 182.38 73.6043 182.505 71.5697 182.095H71.568Z" fill="#3C8F7C"/>
<path d="M99.5934 224.207C99.5934 224.207 99.0994 225.783 99.9838 226.824C100.868 227.866 104.544 228.888 105.025 229.454C105.507 230.018 105.471 230.499 105.471 230.499L95.1562 230.217L95.2685 227.116L95.7435 224.889L99.5934 224.207Z" fill="#F7A491"/>
<path d="M100.626 227.343C100.626 227.343 97.975 228.411 96.6951 227.778C95.4153 227.146 95.4533 226.972 95.0837 227.207C94.7141 227.443 94.5811 230.349 94.5811 230.349L106.179 230.688C106.986 230.669 107.395 230.078 106.739 229.571C106.29 229.223 105.77 228.991 105.474 228.823C104.568 228.306 100.626 227.343 100.626 227.343Z" fill="#13375B"/>
<path d="M99.203 196.396C100.001 194.727 101.813 192.553 105.003 193.863C108.046 195.11 108.863 198.18 107.903 201.322C106.943 204.464 100.623 222.936 100.403 225.477L95.3566 225.509C95.3566 225.509 96.2737 210.883 96.4982 207.348C96.7141 203.946 97.823 199.285 99.203 196.396Z" fill="#466EB6"/>
<path d="M107.395 179.382H90.5274C90.0817 179.382 89.6793 179.652 89.51 180.065L84.3164 192.713H75.0172C74.7564 192.713 74.5457 192.922 74.5457 193.182C74.5457 193.442 74.7564 193.651 75.0172 193.651H101.485C102.212 193.651 102.872 193.225 103.17 192.562L108.4 180.929C108.727 180.202 108.195 179.381 107.397 179.381L107.395 179.382Z" fill="#12353D"/>
<path d="M98.3136 186.747C98.1996 187.316 97.7039 187.696 97.2047 187.596C96.7055 187.496 96.3947 186.955 96.5087 186.388C96.6226 185.819 97.1183 185.439 97.6175 185.539C98.1149 185.639 98.4276 186.18 98.3136 186.747Z" fill="white"/>
<path d="M89.1318 150.242C88.624 150.071 88.1232 149.879 87.6395 149.647C87.0937 149.384 86.3856 149.078 85.9383 149.009C84.9969 148.865 83.3803 148.961 82.4873 149.925C81.375 151.127 79.3974 150.142 79.7964 156.432C80.2472 163.553 84.2249 162.771 84.3216 162.651C84.4183 162.53 87.8693 158.096 87.8693 158.096C87.8693 158.096 89.0766 160.724 89.0766 160.626C89.0766 160.528 95.2392 152.289 89.1318 150.242Z" fill="#0E2E35"/>
<path d="M86.111 163.175L86.4547 165.719C86.4547 165.719 87.2233 169.385 86.2336 170.091C85.2439 170.797 82.0244 165.614 82.0244 165.614L82.3647 159.167L86.111 163.173V163.175Z" fill="#F7A491"/>
<path d="M82.2559 161.259C83.0728 163.457 85.0211 164.809 86.4029 165.334L86.111 163.177L82.3647 159.17L82.2542 161.26L82.2559 161.259Z" fill="#F47458"/>
<path d="M85.9089 152.153C88.0057 151.816 89.8867 153.495 89.8348 155.583C89.8124 156.491 89.7381 157.625 89.5481 158.847C89.0921 161.784 87.0782 164.369 85.7466 164.139C84.4149 163.909 81.0659 161.375 81.6549 157.195C82.0193 154.616 83.7068 152.507 85.9089 152.153Z" fill="#F7A491"/>
<path d="M82.5789 157.694C82.4667 158.34 81.9468 158.789 81.4183 158.698C80.8897 158.607 80.5512 158.008 80.6635 157.362C80.7757 156.716 81.2956 156.267 81.8241 156.358C82.3527 156.45 82.6912 157.048 82.5789 157.694Z" fill="#F7A491"/>
<path d="M81.8241 156.358C81.8241 156.358 83.4338 156.757 84.0314 155.726C84.629 154.696 86.7656 152.472 89.4807 153.394C92.1959 154.315 87.0903 151.152 86.8744 151.152C86.6585 151.152 84.0504 151.134 84.0504 151.134C84.0504 151.134 82.0417 152.778 81.9691 152.959C81.8966 153.139 81.318 155.111 81.318 155.111L81.8258 156.357L81.8241 156.358Z" fill="#0E2E35"/>
<path d="M84.7689 160.657L87.6983 161.214C87.6983 161.214 87.4185 162.312 86.1231 162.104C84.5444 161.851 84.7689 160.657 84.7689 160.657Z" fill="white"/>
<path d="M338.585 305.918H33.1448C32.5472 305.918 32.0619 306.401 32.0619 306.995C32.0619 307.59 32.5472 308.073 33.1448 308.073H338.585C339.183 308.073 339.668 307.59 339.668 306.995C339.668 306.401 339.183 305.918 338.585 305.918Z" fill="#12353D"/>
<path d="M276.069 227.632C275.916 227.192 278.061 226.838 278.176 226.394C278.29 225.951 275.466 225.915 275.366 225.525C275.18 224.806 278.461 225.374 278.398 225.037C278.334 224.7 274.978 223.949 275.34 223.373C275.703 222.796 278.738 224.512 278.829 224.122C278.921 223.73 275.864 222.778 275.917 221.921C275.947 221.462 280.937 224.208 281.515 223.959C282.094 223.71 280.893 221.555 281.353 221.233C281.814 220.914 283.137 225.614 283.455 225.772C283.771 225.929 290.514 229.758 292.913 230.366C293.205 229.567 293.833 228.488 294.091 227.732C295.436 228.686 296.436 229.163 297.825 230.033C296.818 232.542 295.386 235.291 294.685 235.605C292.55 236.564 284.294 229.751 282.645 228.584C280.995 227.417 280.05 227.795 278.936 227.426C277.821 227.058 276.223 228.07 276.069 227.632Z" fill="#F7A491"/>
<path d="M300.977 222.847C301.614 225.461 298.214 231.288 298.214 231.288C298.214 231.288 293.367 229.012 292.516 228.032C292.516 228.032 295.808 222.378 296.024 222.034C297.001 220.477 298.328 220.475 299.191 220.577C299.886 220.657 300.977 222.847 300.977 222.847Z" fill="#EAB765"/>
</g>
<defs>
<clipPath id="clip0_20_2500">
<rect width="350" height="307.147" fill="white" transform="translate(0 0.927979)"/>
</clipPath>
</defs>
</svg>
