<svg width="462" height="378" viewBox="0 0 462 378" fill="none" xmlns="http://www.w3.org/2000/svg">
<path d="M118.03 112.022C133.892 103.189 150.384 90.432 151.622 72.685C151.699 71.579 151.692 70.392 151.069 69.465C149.452 67.061 145.33 68.497 143.854 70.986C139.788 77.839 148.011 86.711 156.13 86.292C164.249 85.872 170.745 79.636 175.444 73.177C178.626 68.805 181.399 64.106 183.142 59.024C183.538 57.872 183.875 56.587 183.378 55.472C182.248 52.93 178.212 53.645 176.077 55.477C169.416 61.192 170.807 72.852 177.875 78.083C184.942 83.315 195.586 82.341 202.645 77.1C209.705 71.859 213.437 63.18 214.189 54.568C214.316 53.124 214.349 51.591 213.636 50.319C212.072 47.528 207.579 47.572 205.134 49.68C202.689 51.788 201.843 55.123 201.384 58.271C200.489 64.405 200.577 70.675 201.647 76.783C202.872 83.783 207.458 91.979 214.719 91.291C217.866 90.993 220.546 88.996 222.887 86.927C236.582 74.818 245.038 57.263 245.842 39.271C246.006 35.582 245.465 31.2 242.142 29.418C239.23 27.856 235.387 29.224 233.236 31.693C231.084 34.162 230.244 37.442 229.579 40.614C225.362 60.756 225.691 81.788 230.536 101.796" stroke="black" stroke-miterlimit="10" stroke-linecap="round"/>
<path d="M412.525 106.404C401.658 106.404 392.848 97.828 392.848 87.25C392.848 76.671 401.658 68.096 412.525 68.096" fill="#D96F48"/>
<path d="M429.733 106.404C418.867 106.404 410.056 97.828 410.056 87.25C410.056 76.671 418.867 68.096 429.733 68.096" fill="#68A4E0"/>
<path d="M413.597 43.443H370.679C370.853 32.049 380.391 22.863 392.138 22.863C403.885 22.863 413.423 32.049 413.597 43.443Z" fill="#A8DCA4"/>
<path d="M404.837 43.296H379.44C379.543 36.553 385.186 31.118 392.138 31.118C399.09 31.118 404.734 36.553 404.837 43.296Z" fill="black"/>
<path d="M18.4681 134.932L17.2014 138.866H13.0388L20.4282 118.609H23.6549L31.0751 138.866H26.8827L25.616 134.932H18.4681ZM22.0266 123.953L19.5231 131.733H24.559L22.0266 123.953Z" fill="black"/>
<path d="M178.837 12.551C178.837 4.184 182.759 0 190.604 0C194.199 0 197.044 0.981004 199.138 2.944C201.232 4.906 202.28 8.108 202.28 12.551V19.762C202.28 24.204 201.209 27.407 199.068 29.369C196.926 31.331 194.043 32.313 190.417 32.313C182.697 32.313 178.838 28.129 178.838 19.762L178.837 12.551ZM196.138 19.671V12.871C196.138 10.194 195.684 8.254 194.777 7.052C193.871 5.85 192.48 5.249 190.604 5.249C188.635 5.249 187.213 5.835 186.338 7.006C185.463 8.177 185.026 10.132 185.026 12.871V19.671C185.026 22.257 185.464 24.121 186.338 25.262C187.214 26.403 188.635 26.974 190.604 26.974C192.479 26.974 193.871 26.388 194.777 25.217C195.684 24.044 196.138 22.196 196.138 19.671Z" fill="black"/>
<path d="M436.917 162.135C436.917 155.945 439.82 152.849 445.625 152.849C448.285 152.849 450.39 153.576 451.939 155.028C453.489 156.479 454.264 158.849 454.264 162.135V167.471C454.264 170.757 453.47 173.126 451.887 174.578C450.303 176.03 448.171 176.757 445.488 176.757C439.775 176.757 436.92 173.661 436.92 167.471V162.135H436.917ZM449.718 167.403V162.372C449.718 160.392 449.383 158.956 448.712 158.067C448.042 157.177 447.013 156.733 445.625 156.733C444.168 156.733 443.116 157.167 442.468 158.033C441.821 158.9 441.497 160.347 441.497 162.372V167.403C441.497 169.317 441.821 170.696 442.468 171.54C443.116 172.385 444.168 172.807 445.625 172.807C447.013 172.807 448.042 172.373 448.712 171.507C449.383 170.639 449.718 169.272 449.718 167.403Z" fill="black"/>
<path d="M169.129 253.909L175.844 260.97L186.19 245.254" stroke="#1C0C00" stroke-miterlimit="10" stroke-linecap="round"/>
<path d="M126.125 138.793L132.84 145.854L143.186 130.138" stroke="#1C0C00" stroke-miterlimit="10" stroke-linecap="round"/>
<path d="M418.548 133.561L425.264 140.621L435.61 124.906" stroke="#1C0C00" stroke-miterlimit="10" stroke-linecap="round"/>
<path d="M429.733 75.214C423.832 76.227 419.341 81.218 419.341 87.253C419.341 93.289 423.83 98.294 429.733 99.306V75.214Z" fill="black"/>
<path d="M434.002 247.046C434.386 249.601 434.77 252.155 435.154 254.709" stroke="#1C0C00" stroke-miterlimit="10"/>
<mask id="mask0_46_4481" style="mask-type:luminance" maskUnits="userSpaceOnUse" x="0" y="3" width="462" height="375">
<path d="M440.8 95.963C431.269 77.838 419.539 61.811 406.957 47.712C393.482 32.613 378.661 19.228 362.083 11.865C342.493 3.16201 321.471 3.26101 300.869 3.44401C267.722 3.73901 234.575 4.033 201.428 4.328C169.633 4.611 137.495 4.94901 106.611 15.269C75.727 25.589 45.7461 46.99 27.0091 82.061C-0.412785 133.389 -8.19978 203.947 9.42262 262.911C25.052 315.209 64.3588 350.466 105.741 364.915C145.253 378.711 191.601 379.789 232.128 375.89C324.873 366.966 454.913 391.473 461.464 216C462.709 182.649 462.671 149.37 451.293 119.256C448.225 111.133 444.696 103.373 440.8 95.963Z" fill="white"/>
</mask>
<g mask="url(#mask0_46_4481)">
<path d="M93.7398 67.296C96.04 65.416 98.6945 64.052 101.742 63.686C106.075 63.166 110.62 64.7101 113.679 67.7421C114.898 68.9511 116.947 71.1481 117.306 72.8581C117.623 74.3631 116.291 76.238 115.639 77.827C115.028 79.315 114.03 80.853 112.432 81.238C110.935 81.599 109.421 80.835 108.077 80.098C105.534 78.701 102.992 77.305 100.449 75.908C99.5246 75.4 98.5815 74.885 97.5429 74.668C94.235 73.976 91.789 77.6311 89.5566 79.4121C88.4821 80.2691 85.6108 81.981 84.6615 79.906C84.116 78.714 85.8234 77.272 86.3802 76.34C88.2766 73.169 90.699 69.782 93.7398 67.296Z" fill="black"/>
<path d="M18.8041 240.58C13.8175 244.914 9.75762 250.253 7.09895 256.228C4.90668 261.154 3.63282 266.412 2.36923 271.638C-2.43856 291.528 -6.7974 310.661 2.30452 330.153C13.7867 354.743 43.8005 369.42 69.4256 375.334C85.5728 379.061 96.0965 378.053 111.428 372.86C127.652 367.365 143.946 360.635 156.602 348.998C158.678 347.089 160.674 345.013 161.877 342.49C170.977 323.399 156.607 306.09 143.103 293.517C126.67 278.216 110.182 262.991 92.7382 248.776C78.0683 236.821 61.1085 225.974 41.0062 229.745C32.7693 231.29 25.0573 235.144 18.8041 240.58Z" fill="#D96F48"/>
<path d="M48.0658 315.381C54.583 328.917 62.1789 342.391 70.2155 354.883C79.8578 369.872 89.421 386.17 88.9926 403.851C88.9525 405.483 88.8991 407.317 90.0548 408.501C90.7175 409.18 91.6667 409.509 92.5871 409.783C102.56 412.758 113.285 412.016 123.61 410.566C130.335 409.621 137.134 408.35 143.158 405.287C146.463 403.607 149.947 401.233 152.139 398.24C154.87 394.511 153.994 393.013 153.023 388.508C151.062 379.427 149.784 370.214 147.435 361.212C144.616 350.413 139.387 340.33 133.166 331.028C126.524 321.098 114.91 313.447 111.533 301.704C125.426 311.234 136.08 324.731 144.035 339.352C150.147 350.588 155.22 362.729 158.893 374.937C161.661 384.141 164.982 394.892 175.406 398.604C181.027 400.605 187.31 399.339 192.949 397.392C198.911 395.333 204.781 392.396 208.76 387.608C216.64 378.124 215.085 364.379 212.421 352.46C208.873 336.576 203.479 322.515 194.279 308.954C186.095 296.889 176.028 290.947 162.779 284.202C146.116 275.72 129.739 266.34 119.014 250.669C111.027 239 97.8819 231.51 83.441 230.915C71.2695 230.414 52.2222 234.82 48.0873 247.028C44.7126 256.993 38.6587 265.753 37.9098 276.457C37.1342 287.555 40.3692 298.634 44.9397 308.697C45.9495 310.924 46.9933 313.154 48.0658 315.381Z" fill="#68A4E0"/>
<path d="M62.8641 170.043C60.5362 165.074 61.4834 157.882 61.7916 152.408C62.7562 135.23 63.7219 118.052 64.6865 100.873C64.891 97.236 65.1067 93.54 66.3723 90.113C71.6075 75.933 93.3956 76.586 104.53 82.366C115.28 87.947 112.413 112.25 107.038 123.529C105.032 127.739 99.393 129.924 95.4174 130.763C94.4507 130.967 93.4665 131.608 92.9169 132.408C92.3765 133.194 92.4361 134.158 92.4299 135.104C92.3601 146.644 92.2892 158.185 92.2193 169.725C92.1937 173.933 93.4572 178.633 87.9992 178.794C82.6736 178.951 76.4841 176.408 71.1493 175.7C66.7288 175.113 64.2314 172.961 62.8641 170.043Z" fill="#EAA896"/>
<path d="M147.225 241.909C149.505 242.336 151.809 242.378 154.037 241.753C159.865 240.12 163.43 234.477 165.835 229.058C167.31 225.734 168.587 222.076 167.754 218.546C166.581 213.575 161.77 210.647 157.293 208.727C151.538 206.259 148.556 202.967 144.29 198.296C135.299 188.45 126.788 178.189 118.794 167.559C114.317 161.606 110.355 152.389 100.849 157.358C89.7179 163.176 92.696 177.885 94.6551 187.76C97.1936 200.554 108.808 215.512 118.018 224.602C124.427 230.928 132.062 236.073 140.4 239.686C142.576 240.628 144.887 241.471 147.225 241.909Z" fill="#EAA896"/>
<path d="M175.188 122.162C174.828 122.01 174.422 121.993 173.974 122.186C173.068 122.576 172.536 124.709 172.309 125.544C169.457 136.059 168.913 146.832 164.995 157.092C161.213 166.995 155.913 176.249 150.905 185.593C147.827 191.336 144.31 196.863 141.634 202.804C140.959 204.303 140.234 205.854 139.784 207.434C139.323 209.053 139.674 209.635 139.99 211.249C140.578 214.242 139.935 217.351 139.842 220.359C139.678 225.688 141.08 231.054 143.839 235.659C145.555 238.522 148.079 241.262 151.436 241.814C154.607 242.334 157.777 240.76 160.204 238.708C166.513 233.375 169.159 225.122 171.394 217.286C176.287 200.126 180.582 182.804 184.268 165.36C184.346 164.99 184.426 164.614 184.606 164.279C184.902 163.727 185.435 163.342 185.926 162.943C191.763 158.209 195.206 144.2 186.476 140.408C183.89 139.285 176.381 137.656 176.381 137.656C175.844 136.086 177.818 128.597 177.028 124.947C176.838 124.068 176.194 122.587 175.188 122.162Z" fill="#EAA896"/>
<path d="M59.771 93.3381C58.4776 97.9941 57.2787 103.125 58.0862 107.975C58.5002 110.461 59.2923 112.934 59.9087 115.382C60.2713 116.824 60.638 118.274 61.2534 119.632C61.727 120.675 62.3701 121.683 63.3214 122.348C64.2726 123.013 65.5794 123.279 66.6416 122.797C67.4819 122.416 68.0541 121.645 68.576 120.899C70.1498 118.649 71.6415 116.296 72.4367 113.686C72.8198 112.427 73.0407 111.113 73.6057 109.92C74.4759 108.083 76.173 106.636 78.1577 106.038C79.0998 105.754 80.1466 105.629 80.8862 104.994C81.405 104.547 81.6978 103.905 81.93 103.269C82.3666 102.073 82.6429 100.821 82.7539 99.5561C82.8042 98.9851 82.4734 96.8461 83.3661 96.9001C83.6466 96.9171 84.2846 97.5301 84.6133 97.6511C85.0571 97.8161 85.5317 97.8951 86.0032 97.9381C86.9936 98.0291 87.9993 97.9191 88.9783 97.7751C93.0187 97.1811 97.0601 96.5881 101.101 95.9941C104.089 95.5581 111.448 95.8801 113.441 93.2311C115.383 90.6501 114.174 87.9081 111.707 85.4251C107.761 81.4521 100.596 78.1431 97.9806 77.2241C89.6019 74.2781 79.6185 73.8801 71.5213 77.8791C64.7565 81.2221 61.6561 86.5511 59.771 93.3381Z" fill="black"/>
<path d="M124.938 254.596C123.157 234.102 121.776 208.546 119.529 196.885C116.802 182.723 119.908 164.804 107.702 155.52C105.918 154.163 104.291 152.521 102.284 152.142C94.1528 150.609 62.3618 143.179 53.0441 152.249C44.3983 160.665 44.5956 201.443 42.6622 213.195C41.1038 222.663 38.0753 241.867 36.0237 254.595H124.938V254.596Z" fill="#A8DCA4"/>
<mask id="mask1_46_4481" style="mask-type:luminance" maskUnits="userSpaceOnUse" x="52" y="78" width="60" height="101">
<path d="M63.6048 169.728C63.4722 169.188 63.3654 168.602 63.2822 167.966C62.8497 164.656 63.4805 161.316 63.9366 158.009C64.8221 151.571 65.1057 143.39 64.0331 136.974C63.3192 132.707 60.7787 130.767 58.2176 127.713C55.449 124.412 54.1946 119.656 53.2865 115.547C51.3295 106.697 51.8935 97.3 55.0966 88.787C59.9507 75.89 74.8086 77.39 86.1675 80.002C90.4986 80.997 94.8914 82.028 98.7725 84.148C111.913 91.325 114.843 110.501 106.523 122.265C103.819 126.088 99.7598 128.849 95.4174 130.764C94.5164 131.161 94.0397 131.045 92.9991 132.366C92.8439 132.563 92.7659 132.795 92.6847 133.026C92.4556 133.673 92.433 134.409 92.4289 135.106C92.3591 146.646 92.2882 158.187 92.2183 169.727C92.1926 173.935 93.4562 178.635 87.9981 178.796C82.6726 178.953 76.4831 176.41 71.1483 175.702C66.9035 175.136 64.5756 173.684 63.6048 169.728Z" fill="white"/>
</mask>
<g mask="url(#mask1_46_4481)">
<path d="M87.6992 136.166C88.5385 136.517 89.3861 136.855 90.249 137.179C92.0817 137.867 93.9493 138.557 95.9423 138.572C97.9106 138.586 99.6396 136.741 99.5492 134.821C99.5153 134.101 99.393 133.386 99.1866 132.694C99.0335 132.181 98.7982 131.639 98.3164 131.383C98.0483 131.24 97.735 131.204 97.4288 131.19C95.3177 131.091 93.2282 131.403 91.1232 131.377C88.5786 131.344 85.6467 130.44 83.1791 131.335C82.5124 131.577 81.9103 132.111 81.8076 132.797C81.7758 133.008 81.7973 133.238 81.9268 133.409C82.0346 133.551 82.2021 133.636 82.3634 133.716C84.1417 134.596 85.8994 135.413 87.6992 136.166Z" fill="black"/>
</g>
<path d="M135.348 291.467C134.292 291.238 129.384 290.791 130.071 288.916C130.216 288.52 130.596 288.251 130.986 288.071C132.225 287.498 133.668 287.595 135.009 287.316C135.666 287.179 136.303 286.949 136.894 286.636C137.625 286.248 138.346 285.617 138.348 284.807C138.351 284.025 137.645 283.376 136.871 283.166C136.098 282.956 135.274 283.089 134.487 283.242C133.152 283.501 131.876 283.394 130.534 283.528C126.781 283.903 122.989 283.894 119.239 283.503C115.961 283.162 113.018 282.005 110.051 280.603C105.412 278.411 101.46 275.149 97.5274 271.867C96.1087 270.683 94.6921 269.496 93.2477 268.356C83.2674 260.482 71.7164 254.714 61.3981 247.265C60.1068 246.333 58.797 245.331 58.0419 243.949C57.481 242.922 57.2663 241.755 57.0598 240.61C55.2918 230.825 54.6518 220.821 53.9451 210.876H16.5552C16.5747 210.965 16.623 211.054 16.6138 211.145C15.2351 225.404 17.601 239.765 24.6833 254.498C28.6261 262.7 32.9202 265.83 39.1395 272.565C47.4227 281.535 62.6987 290.635 74.3247 294.404C86.1747 298.245 103.377 303.163 114.92 307.651C116.386 308.17 117.83 308.723 119.323 309.169C121.374 309.782 123.48 310.217 125.591 310.596C127.791 310.992 130.029 311.182 132.267 311.163C133.409 311.153 134.559 311.087 135.671 310.834C136.307 310.689 136.927 310.483 137.544 310.278C138.098 310.094 138.652 309.91 139.185 309.675C140.125 309.261 140.992 308.689 141.737 307.993C141.834 307.902 141.933 307.803 141.976 307.678C142.067 307.412 141.967 307.096 142.139 306.854C142.278 306.66 142.594 306.548 142.796 306.433C143.385 306.096 143.969 305.738 144.383 305.195C144.85 304.582 145.149 303.647 144.589 303.113C145.515 302.739 146.232 301.909 146.453 300.958C146.674 300.006 146.392 298.957 145.721 298.232C146.635 297.71 146.638 296.332 146.002 295.507C145.366 294.682 144.323 294.275 143.334 293.906C141.761 293.319 140.2 292.71 138.592 292.25C137.525 291.942 136.437 291.703 135.348 291.467Z" fill="#EAA896"/>
<path d="M94.3562 165.524C93.3567 160.942 89.7159 157.321 85.7433 154.677C77.8444 149.42 67.6185 144.343 48.2672 151.32C34.0328 156.452 25.462 171.26 18.8811 184.576C10.9503 200.625 8.88852 207.923 6.32025 221.638C8.81866 222.406 11.3242 223.163 13.873 223.803C21.8418 225.806 30.3346 226.061 38.5047 226.881C43.5919 227.391 47.8357 228.255 52.285 229.616C55.3022 229.85 58.3194 230.083 61.3366 230.317C63.0213 230.447 63.4025 202.206 64.9321 199.742C69.0896 193.045 76.7965 189.436 83.3445 184.898C89.8936 180.359 96.0266 173.178 94.3562 165.524Z" fill="#A8DCA4"/>
<path d="M117.43 219.683C117.345 219.401 116.951 219.915 117.23 220.028C117.51 220.14 117.784 219.87 117.958 219.63C125.451 209.357 131.113 198.18 138.293 187.698C138.812 186.94 131.075 176.333 128.888 173.561C125.187 168.87 121.169 164.388 116.54 160.54C108.259 153.656 97.6004 148.834 86.7407 149.626C88.1533 149.523 92.4649 153.98 93.599 154.916C95.9495 156.855 98.227 158.892 100.28 161.133C104.079 165.279 107.325 170.472 108.621 175.907C110.33 183.068 110.485 190.777 111.934 198.04C113.391 205.338 115.21 212.569 117.43 219.683Z" fill="#A8DCA4"/>
<path d="M65.6049 190.287C65.722 203.156 64.8571 218.335 63.0798 231.087L56.8687 230.622" stroke="black" stroke-miterlimit="10" stroke-linecap="round"/>
<path d="M143.515 198.001C143.21 203.178 142.85 208.352 142.437 213.523" stroke="black" stroke-miterlimit="10" stroke-linecap="round"/>
<path d="M176.533 137.602C175.957 139.693 175.461 141.804 175.043 143.93C174.787 145.236 174.524 146.544 174.406 147.87C174.309 148.952 174.073 150.609 174.789 151.545C175.041 151.874 175.424 152.099 175.834 152.193C176.678 152.387 177.611 152.061 178.218 151.478C178.903 150.819 179.315 149.921 179.661 149.059C179.225 150.15 179.231 151.483 179.723 152.555C180.169 153.527 181.389 154.532 182.545 154.129C183.653 153.743 184.33 152.398 184.719 151.402C184.116 152.954 185.345 154.902 187.04 155.08C188.735 155.258 189.94 154.273 190.373 152.162" stroke="black" stroke-miterlimit="10" stroke-linecap="round" stroke-linejoin="round"/>
<path d="M163.389 149.196C163.759 146.067 164.51 142.98 165.622 140.022C165.994 139.035 166.45 138.006 167.34 137.412C168.451 136.67 170.059 136.994 170.162 138.355C170.299 140.157 170.488 140.392 170.415 142.201C170.268 145.852 169.66 151.222 169.642 154.876C169.635 156.31 169.305 158.503 168.268 159.613C166.548 161.454 164.1 157.524 163.618 156.249C163.117 154.922 163.095 153.473 163.156 152.061C163.199 151.103 163.277 150.148 163.389 149.196Z" fill="#EAA896"/>
<path d="M48.2867 78.1071C42.6807 80.0351 37.3151 83.3091 32.6429 86.0001C31.9094 86.4231 31.1625 86.8551 30.5944 87.4741C29.8918 88.2381 29.5096 89.2401 29.3391 90.2521C28.6374 94.4241 31.7008 98.7571 35.8583 99.9811C41.1911 101.551 45.8633 98.1911 49.5082 94.8121C53.9882 90.6591 58.7262 85.5351 65.4211 85.5991C66.9754 85.6141 68.5729 85.8741 70.0553 85.4211C71.5377 84.9681 72.8475 83.4451 72.3349 82.0171C71.8469 80.6591 70.1498 80.2291 68.7537 79.7531C67.0062 79.1571 65.4088 78.2021 63.6726 77.5731C58.57 75.7251 53.3307 76.3721 48.2867 78.1071Z" fill="black"/>
<path d="M169.242 137.563C170.227 137.938 170.496 139.166 170.488 140.196C170.457 143.852 168.776 147.606 170.022 151.055" stroke="black" stroke-miterlimit="10" stroke-linecap="round"/>
<path d="M121.373 215.156C121.254 207.828 118.605 199.144 116.712 192.05C115.469 187.389 114.225 182.728 112.981 178.067" stroke="black" stroke-miterlimit="10" stroke-linecap="round"/>
<path d="M116.005 189.343C116.276 186.048 116.548 182.753 116.819 179.458" stroke="black" stroke-miterlimit="10" stroke-linecap="round"/>
<path d="M72.0605 83.7871C72.6029 82.4851 72.9337 80.8621 71.4944 79.9881C70.9407 79.6521 70.2771 79.5241 69.6248 79.5061C69.3844 79.4991 69.1368 79.5081 68.9159 79.5991C68.806 79.6441 68.7002 79.7131 68.6519 79.8181C68.6098 79.9101 68.618 80.0141 68.6262 80.1141C68.7361 81.4101 68.7135 82.9521 68.0653 84.1381C67.5363 85.1071 66.6867 85.7981 65.5227 85.8511C65.4601 85.8541 65.3923 85.8561 65.3399 85.8891C65.2382 85.9531 65.233 86.0941 65.2526 86.2101C65.3614 86.8871 65.8946 87.4531 66.5326 87.7431C67.489 88.1771 68.7474 88.0911 69.5015 87.3751C70.6613 86.2711 71.4544 85.2411 72.0605 83.7871Z" fill="#EB845E"/>
<path d="M34.3903 261.337C34.2917 263.812 36.5959 266.129 39.1406 266.114" stroke="black" stroke-miterlimit="10" stroke-linecap="round"/>
<path d="M100.373 122.073C100.543 122.21 100.722 122.332 100.917 122.433C102.629 123.322 104.766 122.837 106.082 121.513C107.378 120.209 108.136 117.435 106.788 115.932C106.675 115.806 106.551 115.682 106.394 115.614C105.983 115.436 105.525 115.694 105.128 115.9C104.06 116.451 102.814 116.668 101.617 116.509C100.866 116.409 100.112 116.166 99.3664 116.3C97.9261 116.56 97.9826 118.315 98.3781 119.392C98.6586 120.155 99.1537 120.826 99.7064 121.431C99.915 121.659 100.134 121.88 100.373 122.073Z" fill="black"/>
<path d="M144.827 44.141H101.908C102.083 32.747 111.62 23.561 123.367 23.561C135.115 23.561 144.652 32.747 144.827 44.141Z" fill="#EAA896"/>
<path d="M136.066 43.994H110.669C110.773 37.251 116.416 31.816 123.367 31.816C130.318 31.815 135.962 37.251 136.066 43.994Z" fill="#68A4E0"/>
<path d="M93.2293 109.004C95.4312 109.004 97.2163 107.934 97.2163 106.615C97.2163 105.296 95.4312 104.226 93.2293 104.226C91.0274 104.226 89.2423 105.296 89.2423 106.615C89.2423 107.934 91.0274 109.004 93.2293 109.004Z" fill="white"/>
<mask id="mask2_46_4481" style="mask-type:luminance" maskUnits="userSpaceOnUse" x="89" y="104" width="9" height="6">
<path d="M93.2293 109.004C95.4312 109.004 97.2163 107.934 97.2163 106.615C97.2163 105.296 95.4312 104.226 93.2293 104.226C91.0274 104.226 89.2423 105.296 89.2423 106.615C89.2423 107.934 91.0274 109.004 93.2293 109.004Z" fill="white"/>
</mask>
<g mask="url(#mask2_46_4481)">
<path d="M95.4287 106.708C95.4287 108.136 94.6109 109.293 93.6031 109.293C92.5943 109.293 91.7776 108.135 91.7776 106.708C91.7776 105.28 92.5954 104.123 93.6031 104.123C94.6109 104.123 95.4287 105.281 95.4287 106.708Z" fill="black"/>
</g>
<path d="M108.257 107.688C110.459 107.688 112.244 106.618 112.244 105.299C112.244 103.98 110.459 102.91 108.257 102.91C106.055 102.91 104.27 103.98 104.27 105.299C104.27 106.618 106.055 107.688 108.257 107.688Z" fill="white"/>
<mask id="mask3_46_4481" style="mask-type:luminance" maskUnits="userSpaceOnUse" x="104" y="102" width="9" height="6">
<path d="M108.257 107.688C110.459 107.688 112.244 106.618 112.244 105.299C112.244 103.98 110.459 102.91 108.257 102.91C106.055 102.91 104.27 103.98 104.27 105.299C104.27 106.618 106.055 107.688 108.257 107.688Z" fill="white"/>
</mask>
<g mask="url(#mask3_46_4481)">
<path d="M110.542 105.399C110.542 106.831 109.766 107.991 108.807 107.991C107.849 107.991 107.071 106.83 107.071 105.399C107.071 103.967 107.848 102.807 108.807 102.807C109.765 102.807 110.542 103.968 110.542 105.399Z" fill="black"/>
</g>
<path d="M101.499 101.955C101.253 104.384 101.048 107.006 102.337 109.099C102.847 109.927 103.598 110.707 103.599 111.672C103.6 112.821 102.264 113.767 101.142 113.413" stroke="black" stroke-miterlimit="10" stroke-linecap="round"/>
<path d="M73.9878 116.255C77.8016 116.255 80.8934 113.633 80.8934 110.399C80.8934 107.165 77.8016 104.543 73.9878 104.543C70.174 104.543 67.0823 107.165 67.0823 110.399C67.0823 113.633 70.174 116.255 73.9878 116.255Z" fill="#EAA896"/>
<path d="M71.7164 107.52C72.9081 107.17 74.2662 107.409 75.2565 108.144C76.2469 108.879 76.8447 110.09 76.8139 111.301" stroke="black" stroke-miterlimit="10" stroke-linecap="round"/>
<path d="M141.926 306.961C135.604 307.281 128.066 307.896 122.009 306.105" stroke="#1C0C00" stroke-miterlimit="10" stroke-linecap="round"/>
<path d="M124.913 301.096C131.506 302.077 138.156 302.522 144.819 302.831" stroke="#1C0C00" stroke-miterlimit="10" stroke-linecap="round"/>
<path d="M127.759 295.25C130.018 295.776 132.339 295.997 134.64 296.303C138.395 296.801 142.113 297.527 145.827 298.253" stroke="#1C0C00" stroke-miterlimit="10" stroke-linecap="round"/>
<path d="M120.343 360.899C121.893 361.696 123.852 361.687 125.395 360.876C126.938 360.064 128.019 358.474 128.182 356.775" stroke="#1C0C00" stroke-miterlimit="10" stroke-linecap="round"/>
<path d="M178.23 325.86C181.623 326.981 185.76 324.884 186.759 321.535" stroke="#1C0C00" stroke-miterlimit="10" stroke-linecap="round"/>
</g>
<mask id="mask4_46_4481" style="mask-type:luminance" maskUnits="userSpaceOnUse" x="0" y="3" width="462" height="375">
<path d="M440.8 95.963C431.269 77.838 419.539 61.811 406.957 47.712C393.482 32.613 378.661 19.228 362.083 11.865C342.493 3.16201 321.471 3.26101 300.869 3.44401C267.722 3.73901 234.575 4.033 201.428 4.328C169.633 4.611 137.495 4.94901 106.611 15.269C75.727 25.589 45.7461 46.99 27.0091 82.061C-0.412785 133.389 -8.19978 203.947 9.42262 262.911C25.052 315.209 64.3588 350.466 105.741 364.915C145.253 378.711 191.601 379.789 232.128 375.89C324.873 366.966 454.913 391.473 461.464 216C462.709 182.649 462.671 149.37 451.293 119.256C448.225 111.133 444.696 103.373 440.8 95.963Z" fill="white"/>
</mask>
<g mask="url(#mask4_46_4481)">
<path d="M287.444 384.269C322.632 405.795 376.907 404.524 409.294 379.193C443.111 352.743 461.468 310.214 462.797 268.006C463.179 255.884 462.185 243.397 456.854 232.436C452.707 223.907 446.064 216.651 438.3 211.002C420.214 197.844 396.011 193.538 373.942 198.183C367.277 199.586 361.031 202.223 354.409 203.293C346.972 204.495 342.198 205.206 336.552 211.04C322.715 225.337 319.885 246.481 310.218 263.724C302.472 277.539 290.502 288.552 279.935 300.464C269.562 312.157 257.449 327.547 259.814 343.688C262.368 361.106 272.163 374.921 287.444 384.269Z" fill="#D96F48"/>
<path d="M296.701 459.161C310.446 453.063 321.481 443.468 334.69 436.404C350.078 428.175 362.552 420.278 371.451 405.231C383.426 384.985 396.769 364.316 400.303 340.864C403.655 318.618 400.409 295.773 394.572 274.184C393.934 271.825 393.192 269.349 391.374 267.67C389.9 266.309 387.901 265.649 385.957 265.074C362.04 257.997 336.709 258.109 312.083 260.844C295.405 262.697 258.767 262.189 250.724 279.428C246.596 288.278 243.747 295.075 237.658 303.385C230.875 312.641 224.528 322.201 218.643 332.022C207.139 351.218 197.397 371.414 189.597 392.3C185.917 402.153 182.63 412.374 182.75 422.858C182.869 433.341 186.885 444.253 195.461 450.595C222.675 470.721 266.223 472.683 296.701 459.161Z" fill="black"/>
<path d="M415.271 288.436C415.846 288.354 416.42 288.25 416.985 288.13C428.99 285.592 439.039 275.798 441.631 264.109C443.058 257.675 442.37 250.971 441.112 244.503C439.917 238.359 438.183 232.239 435.021 226.796C432.298 222.109 428.755 222.726 424.578 220.58C418.723 217.573 411.32 218.257 405.556 221.426C399.792 224.595 395.554 229.97 392.812 235.835C390.042 241.76 388.518 249.588 389.564 256.039C390.504 261.839 389.696 268.469 392.347 273.913C394.666 278.676 399.202 281.995 403.607 285.058C405.413 286.314 407.27 287.581 409.4 288.189C411.298 288.731 413.305 288.715 415.271 288.436Z" fill="#EAA896"/>
<path d="M311.869 34.56C301.011 34.452 290.446 37.27 282.366 44.599C280.204 46.56 277.479 48.72 276.253 51.355C274.895 54.274 274.645 57.589 274.53 60.748C274.295 67.211 274.508 73.689 275.167 80.124C275.664 84.973 276.428 89.847 278.275 94.376C280.163 99.004 283.602 104.327 288.627 106.101C292.385 107.428 296.5 107.394 300.499 107.214C300.295 114.282 299.969 121.358 299.887 128.428C299.853 131.372 300.041 134.777 298.369 137.39C296.733 139.945 294.195 140.415 291.763 141.395C292.675 141.943 293.653 142.43 294.663 142.92C297.776 144.43 300.779 146.099 304.092 147.187C310.807 149.392 319.276 149.94 326.262 149.342C333.93 148.686 342.352 145.884 347.804 142.477C343.119 141.485 342.802 138.969 341.788 136.629C340.347 133.305 339.5 129.673 339.306 126.134C338.539 112.16 338.435 99.41 338.898 89.485C339.572 75.049 339.805 66.911 336.098 52.717C335.017 48.578 334.222 43.279 330.733 40.354C325.825 36.237 318.202 34.623 311.869 34.56Z" fill="#EAA896"/>
<path d="M341.932 88.704C339.808 93.557 335.943 97.418 330.864 95.579C329.051 94.923 327.318 94.074 325.714 93.013C320.161 89.339 317.348 83.779 317.069 77.37C316.939 74.398 318.135 66.455 313.045 66.778C311.684 66.864 310.452 67.925 308.882 66.271C306.12 63.363 309.197 58.784 309.04 55.448C309.022 55.054 308.956 54.638 308.694 54.338C308.336 53.928 307.712 53.852 307.162 53.909C305.281 54.104 303.773 55.439 302.318 56.614C298.373 59.797 293.779 62.249 288.835 63.56C283.892 64.871 278.599 65.02 273.638 63.774C272.763 63.554 271.847 63.259 271.27 62.582C270.592 61.788 270.54 60.632 270.816 59.635C271.092 58.638 271.648 57.74 272.092 56.803C273.585 53.656 273.819 50.083 275.022 46.82C276.081 43.946 277.923 40.498 280.126 38.31C282.392 36.059 285.651 34.454 288.557 33.15C295.973 29.824 304.313 28.876 312.475 29.093C320.719 29.312 333.32 31.001 339.349 37.226C345.648 43.73 347.112 60.707 346.523 68.854C345.975 76.385 344.785 82.182 341.932 88.704Z" fill="black"/>
<path d="M285.054 85.478C284.935 85.47 284.816 85.462 284.696 85.455C284.081 85.414 283.425 85.382 282.888 85.679C281.275 86.572 281.264 90.044 281.78 91.497C282.528 93.605 284.527 95.852 287.009 95.775C291.459 95.637 293.754 90.975 292.886 87.074C292.812 86.744 292.703 86.398 292.436 86.182C292.156 85.955 291.765 85.921 291.402 85.897C289.286 85.757 287.17 85.617 285.054 85.478Z" fill="black"/>
<path d="M317.539 78.407C322.187 78.407 325.955 74.7872 325.955 70.322C325.955 65.8568 322.187 62.237 317.539 62.237C312.892 62.237 309.124 65.8568 309.124 70.322C309.124 74.7872 312.892 78.407 317.539 78.407Z" fill="#EAA896"/>
<path d="M321.258 67.362C319.412 66.047 316.653 66.301 314.855 67.678C313.058 69.054 312.183 71.345 312.229 73.552" stroke="black" stroke-miterlimit="10" stroke-linecap="round"/>
<mask id="mask5_46_4481" style="mask-type:luminance" maskUnits="userSpaceOnUse" x="274" y="34" width="76" height="116">
<path d="M311.869 34.56C318.202 34.623 325.825 36.236 330.734 40.354C334.223 43.28 335.017 48.578 336.099 52.718C339.806 66.913 338.238 81.782 337.563 96.218C337.099 106.143 336.912 116.406 339.306 126.135C340.153 129.581 340.212 133.363 341.788 136.63C342.487 138.081 347.054 144.933 349.344 144.063C332.565 150.441 313.651 151.508 296.21 147.061C293.448 146.357 290.4 145.25 289.293 142.718C292.309 140.484 296.161 140.839 298.368 137.39C300.04 134.777 299.852 131.372 299.886 128.428C299.968 121.358 300.294 114.282 300.498 107.214C296.498 107.394 292.383 107.428 288.625 106.101C282.603 103.974 278.322 98.535 276.404 92.652C274.486 86.769 274.632 80.453 275.262 74.319C276.519 62.077 276.844 45.547 290.391 39.495C297.123 36.489 304.446 34.487 311.869 34.56Z" fill="white"/>
</mask>
<g mask="url(#mask5_46_4481)">
<path d="M314.209 103.097C313.655 102.026 312.533 101.182 311.288 101.151C309.484 101.106 308.128 102.617 306.812 103.803C304.296 106.071 300.988 107.506 297.559 107.847C297.325 108.72 297.052 109.585 296.764 110.446C296.232 112.329 295.673 114.205 295.103 116.078C294.927 116.77 294.742 117.46 294.52 118.141C294.513 118.163 294.504 118.187 294.497 118.209C294.626 118.319 294.756 118.427 294.886 118.515C295.739 119.091 296.946 118.859 297.828 118.325C298.71 117.791 299.392 117.003 300.218 116.391C302.919 114.388 306.733 114.508 309.758 112.992C312.278 111.73 314.125 109.295 314.603 106.604C314.814 105.426 314.762 104.168 314.209 103.097Z" fill="black"/>
</g>
<path d="M339.126 69.024C339.073 67.372 339.254 65.693 339.869 64.151C341.387 60.34 345.324 57.909 349.344 56.726C353.944 55.372 359.097 55.36 363.399 57.442C367.703 59.524 370.943 63.914 370.846 68.59C370.802 70.702 370.113 72.761 369.157 74.658C361.841 89.195 339.675 85.987 339.126 69.024Z" fill="black"/>
<path d="M287.938 154.256C288.934 144.39 298.546 128.67 281.478 127.188C273.638 126.507 265.686 125.83 257.939 127.17C248.954 128.724 240.69 133.038 233.869 138.87C225.678 145.874 222.954 152.622 219.938 162.617C213.6 183.622 208.452 204.967 204.528 226.523C203.099 234.373 201.101 259.044 206.427 265.101C209.178 268.229 214.248 254.355 218.296 255.548C232.949 259.866 250.894 256.581 259.73 244.411C264.854 237.353 266.307 228.479 268.297 220.056C273.578 197.719 285.613 177.326 287.938 154.256Z" fill="#68A4E0"/>
<path d="M242.822 272.034C243.106 278.698 243.186 285.368 243.103 292.037H404.418C403.945 285.486 403.097 278.998 402.314 272.479C402.087 270.595 401.852 268.697 401.751 266.802C401.51 262.345 403.141 262.19 407.048 260.182C410.501 258.408 444.073 243.135 443.73 241.266C441.342 228.211 436.076 215.566 431.982 202.946C427.881 190.306 422.681 178.011 415.988 166.454C407.047 151.015 394.078 136.031 376.419 131.653C375.758 131.489 375.089 131.34 374.414 131.206C360.138 128.377 345.769 130.546 331.577 127.265C318.063 124.14 302.947 124.766 289.03 125.423C271.285 126.261 257.039 127.369 254.793 147.314C252.907 164.053 252.673 180.259 244.713 195.529C238.117 208.181 236.872 218.863 239.006 232.829C240.991 245.821 242.264 258.913 242.822 272.034Z" fill="#68A4E0"/>
<path d="M258.203 164.163C259.216 149.667 268.9 141.1 278.405 137.717C280.005 137.148 281.075 138.984 279.721 139.91C271.537 145.51 266.591 154.538 264.162 163.819C263.369 166.845 257.989 167.215 258.203 164.163Z" fill="#EAA896"/>
<path d="M349.344 132.649C340.119 136.991 329.989 139.766 319.718 139.839C309.447 139.911 299.034 137.172 290.746 131.343" stroke="black" stroke-miterlimit="10" stroke-linecap="round"/>
<path d="M378.868 162.281C377.855 147.785 369.371 140.84 359.865 137.456C358.266 136.886 357.195 138.722 358.549 139.648C366.734 145.248 371.679 154.276 374.109 163.558C374.901 166.585 379.082 165.334 378.868 162.281Z" fill="#EAA896"/>
<path d="M363.484 117.102H270.556V245.495H363.484V117.102Z" fill="white"/>
<path d="M344.431 139.886C344.389 139.979 344.35 140.073 344.313 140.167C342.866 139.932 341.3 141.897 341.141 143.134C341.052 143.824 341.052 144.326 340.709 144.942C340.39 145.516 340.151 146.133 339.997 146.768C339.683 148.062 339.717 149.44 340.128 150.71C340.981 153.352 342.647 155.718 344.182 158.019C349.016 165.273 352.997 173.83 359.853 179.49C360.729 180.213 361.653 180.908 362.325 181.815C363.1 182.864 363.488 184.131 363.863 185.371C366.959 195.616 370.85 205.933 373.179 216.365C375.508 226.797 377.72 237.289 380.526 247.647C382.374 254.473 383.863 262.305 386.926 268.711C389.306 273.69 394.568 278.675 398.866 282.11C400.446 283.372 402.143 284.576 404.043 285.342C409.243 287.441 411.135 282.527 416.252 280.241C429.294 274.413 437.617 260.736 434.491 248.716C430.787 234.473 417.201 217.745 409.639 205.103C404.628 196.725 398.088 189.171 392.442 181.155C383.939 169.083 377.347 155.437 366.214 145.599C365.984 145.396 365.752 145.195 365.519 144.996C364.881 144.454 364.297 144.026 363.743 143.4C363.162 142.746 362.557 142.112 361.929 141.502C360.984 140.583 359.979 139.249 358.936 138.438C357.887 137.623 355.378 135.909 355.07 135.77C354.63 135.572 354.126 135.536 353.648 135.609C352.38 135.803 351.209 136.894 350.571 137.932C349.527 137.074 347.963 136.868 346.722 137.424C345.661 137.894 344.899 138.841 344.431 139.886Z" fill="#EAA896"/>
<path d="M301.83 211.026L296.56 229.945H279.242L309.986 132.524H323.412L354.281 229.945H336.839L331.569 211.026H301.83ZM316.637 158.22L306.221 195.636H327.176L316.637 158.22Z" fill="#EB845E"/>
<path d="M433.755 246.939C434.481 249.388 434.863 251.932 434.89 254.48" stroke="#1C0C00" stroke-miterlimit="10" stroke-linecap="round"/>
<path d="M409.214 279.708C410.589 280.966 412.624 281.5 414.46 281.085" stroke="#1C0C00" stroke-miterlimit="10" stroke-linecap="round"/>
<path d="M288.002 68.438C288.326 71.672 287.579 74.999 285.898 77.806C285.435 78.581 284.887 79.517 285.32 80.309C285.595 80.814 286.186 81.064 286.744 81.241" stroke="black" stroke-miterlimit="10" stroke-linecap="round"/>
<path d="M363.457 143.615C367.103 145.772 370.119 148.927 372.067 152.622" stroke="#1C0C00" stroke-miterlimit="10" stroke-linecap="round"/>
<path d="M341.51 144.349C342.379 147.44 344.229 150.185 346.295 152.681C348.359 155.176 350.947 158.65 352.932 161.207" stroke="#1C0C00" stroke-miterlimit="10" stroke-linecap="round"/>
<path d="M344.376 140.389C349.613 145.701 354.281 151.545 358.279 157.794" stroke="#1C0C00" stroke-miterlimit="10" stroke-linecap="round"/>
<path d="M351.007 138.075C356.325 142.545 360.78 147.985 364.071 154.028" stroke="#1C0C00" stroke-miterlimit="10" stroke-linecap="round"/>
<path d="M293.839 140.145C293.882 140.238 293.921 140.332 293.958 140.426C293.91 140.305 295.391 140.816 295.52 140.909C296.014 141.262 296.581 141.853 296.793 142.424C297.151 143.388 296.662 144.933 296.154 145.779C296.087 145.891 296.018 146.045 296.112 146.137C296.155 146.179 296.22 146.191 296.279 146.206C296.555 146.277 296.784 146.465 296.971 146.675C297.477 147.244 297.733 147.992 297.824 148.74C298.032 150.43 297.949 151.748 297.18 153.277C296.302 155.028 295.176 156.647 294.088 158.278C289.254 165.532 285.273 174.089 278.416 179.749C277.54 180.472 276.617 181.167 275.946 182.074C275.17 183.123 274.782 184.39 274.408 185.63C271.312 195.875 267.42 206.192 265.091 216.623C262.762 227.055 260.551 237.547 257.745 247.905C255.967 254.471 255.207 262.02 251.175 267.691C247.359 273.059 242.297 277.595 235.972 279.971C228.81 282.661 220.275 282.231 213.906 278.06C208.197 274.322 204.654 267.918 203.636 261.294C200.333 239.791 218.412 222.448 228.631 205.36C233.642 196.982 240.182 189.428 245.828 181.412C249.991 175.502 253.656 169.28 257.646 163.261C260.397 159.114 263.305 155.053 266.62 151.312C270.117 147.365 274.07 143.725 277.856 140.04C278.754 139.143 279.659 138.241 280.706 137.511C281.884 136.69 283.271 136.099 284.738 136.093C286.043 136.087 287.054 137.137 287.7 138.188C288.745 137.33 290.308 137.124 291.55 137.68C292.609 138.154 293.372 139.101 293.839 140.145Z" fill="#EAA896"/>
<path d="M273.389 144.665C268.908 148.852 267.676 149.733 265.289 153.605" stroke="#1C0C00" stroke-miterlimit="10" stroke-linecap="round"/>
<path d="M296.112 146.137C294.842 148.538 293.997 150.155 291.977 152.941C290.077 155.558 287.324 158.91 285.339 161.467" stroke="#1C0C00" stroke-miterlimit="10" stroke-linecap="round"/>
<path d="M293.895 140.649C288.658 145.961 283.99 151.805 279.991 158.054" stroke="#1C0C00" stroke-miterlimit="10" stroke-linecap="round"/>
<path d="M287.264 138.335C281.945 142.805 277.491 148.245 274.199 154.288" stroke="#1C0C00" stroke-miterlimit="10" stroke-linecap="round"/>
<path d="M216.446 271.632C217.84 274.185 221.721 275.036 224.105 273.31" stroke="#1C0C00" stroke-miterlimit="10" stroke-linecap="round"/>
<path d="M304.205 69.994C304.205 71.517 302.144 72.752 299.602 72.752C297.059 72.752 294.998 71.517 294.998 69.994C294.998 68.471 297.059 67.236 299.602 67.236C302.144 67.236 304.205 68.471 304.205 69.994Z" fill="white"/>
<mask id="mask6_46_4481" style="mask-type:luminance" maskUnits="userSpaceOnUse" x="294" y="67" width="11" height="6">
<path d="M304.205 69.994C304.205 71.517 302.144 72.752 299.602 72.752C297.059 72.752 294.998 71.517 294.998 69.994C294.998 68.471 297.059 67.236 299.602 67.236C302.144 67.236 304.205 68.471 304.205 69.994Z" fill="white"/>
</mask>
<g mask="url(#mask6_46_4481)">
<path d="M301.113 70.101C301.113 71.749 300.169 73.086 299.005 73.086C297.841 73.086 296.897 71.75 296.897 70.101C296.897 68.453 297.841 67.116 299.005 67.116C300.17 67.116 301.113 68.453 301.113 70.101Z" fill="black"/>
</g>
<path d="M283.885 69.994C283.885 71.517 281.824 72.752 279.281 72.752C276.739 72.752 274.678 71.517 274.678 69.994C274.678 68.471 276.739 67.236 279.281 67.236C281.824 67.236 283.885 68.471 283.885 69.994Z" fill="white"/>
<mask id="mask7_46_4481" style="mask-type:luminance" maskUnits="userSpaceOnUse" x="274" y="67" width="10" height="6">
<path d="M283.885 69.994C283.885 71.517 281.824 72.752 279.281 72.752C276.739 72.752 274.678 71.517 274.678 69.994C274.678 68.471 276.739 67.236 279.281 67.236C281.824 67.236 283.885 68.471 283.885 69.994Z" fill="white"/>
</mask>
<g mask="url(#mask7_46_4481)">
<path d="M280.794 70.101C280.794 71.749 279.85 73.086 278.686 73.086C277.522 73.086 276.578 71.75 276.578 70.101C276.578 68.453 277.522 67.116 278.686 67.116C279.85 67.116 280.794 68.453 280.794 70.101Z" fill="black"/>
</g>
<path d="M303.463 317.808C303.281 325.192 298.073 331.414 293.332 337.181C273.127 361.759 256.627 389.995 250.656 420.932" stroke="#EB845E" stroke-miterlimit="10" stroke-linecap="round"/>
</g>
<path d="M188.202 128.115H234.063C233.876 116.833 223.685 107.737 211.132 107.737C198.579 107.737 188.389 116.833 188.202 128.115Z" fill="#D96F48"/>
<mask id="mask8_46_4481" style="mask-type:luminance" maskUnits="userSpaceOnUse" x="188" y="107" width="47" height="22">
<path d="M188.202 128.115H234.063C233.876 116.833 223.685 107.737 211.132 107.737C198.579 107.737 188.389 116.833 188.202 128.115Z" fill="white"/>
</mask>
<g mask="url(#mask8_46_4481)">
<path d="M201.023 106.946L195.638 101.244L236.66 120.617L242.045 126.32L201.023 106.946Z" fill="black"/>
<path d="M195.276 111.362L189.89 105.66L230.913 125.033L236.298 130.736L195.276 111.362Z" fill="black"/>
<path d="M189.529 115.778L184.144 110.075L225.165 129.449L230.55 135.151L189.529 115.778Z" fill="black"/>
<path d="M183.782 120.193L178.397 114.491L219.418 133.865L224.803 139.567L183.782 120.193Z" fill="black"/>
</g>
<path d="M136.066 23.721H110.669C110.772 16.978 116.415 11.543 123.367 11.543C130.318 11.543 135.962 16.979 136.066 23.721Z" fill="black"/>
<path d="M253.637 30.932V6.21002C260.564 6.31102 266.148 11.804 266.148 18.571C266.147 25.337 260.563 30.831 253.637 30.932Z" fill="#EAA896"/>
<path d="M362.896 181.126C364.146 181.886 365.709 182.142 367.145 181.822" stroke="#1C0C00" stroke-miterlimit="10" stroke-linecap="round"/>
<path d="M275.373 182.645C274.602 182.777 273.833 182.909 273.062 183.041" stroke="#1C0C00" stroke-miterlimit="10" stroke-linecap="round"/>
<path d="M179.546 149.315C180.371 146.501 181.198 143.688 182.024 140.874" stroke="black" stroke-miterlimit="10" stroke-linecap="round"/>
<path d="M184.541 152.064C185.463 149.383 186.127 146.619 186.522 143.818" stroke="black" stroke-miterlimit="10" stroke-linecap="round"/>
</svg>
