<svg width="435" height="344" viewBox="0 0 435 344" fill="none" xmlns="http://www.w3.org/2000/svg">
<path d="M434.576 58.4407H244.709V178.776H434.576V58.4407Z" fill="#263238"/>
<path d="M329.993 127.653C328.082 125.864 326.78 123.584 326.252 121.102C325.724 118.619 325.994 116.046 327.028 113.707C328.061 111.369 329.812 109.37 332.058 107.963C334.305 106.557 336.946 105.806 339.648 105.806C342.349 105.806 344.99 106.557 347.237 107.963C349.483 109.37 351.234 111.369 352.267 113.707C353.301 116.046 353.571 118.619 353.043 121.102C352.515 123.584 351.213 125.864 349.302 127.653C346.741 130.05 343.268 131.397 339.648 131.397C336.027 131.397 332.554 130.05 329.993 127.653Z" fill="#FFC727"/>
<path d="M334.917 123.595V113.612L345.874 118.604L334.917 123.595Z" fill="white"/>
<path d="M408.661 169.007H269.263C269.026 169.007 268.799 169.095 268.631 169.252C268.463 169.409 268.369 169.622 268.369 169.844C268.369 170.066 268.463 170.279 268.631 170.436C268.799 170.592 269.026 170.681 269.263 170.681H408.661C408.898 170.681 409.126 170.592 409.293 170.436C409.461 170.279 409.555 170.066 409.555 169.844C409.555 169.622 409.461 169.409 409.293 169.252C409.126 169.095 408.898 169.007 408.661 169.007Z" fill="#C7C7C7"/>
<path d="M269.263 169.007C269.026 169.007 268.799 169.095 268.631 169.252C268.463 169.409 268.369 169.622 268.369 169.844C268.369 170.066 268.463 170.279 268.631 170.436C268.799 170.592 269.026 170.681 269.263 170.681H339.985V169.007H269.263Z" fill="#FFC727"/>
<path d="M338.24 169.844C338.24 169.513 338.345 169.189 338.541 168.914C338.738 168.639 339.017 168.424 339.343 168.298C339.67 168.171 340.029 168.138 340.375 168.202C340.722 168.267 341.04 168.426 341.29 168.66C341.54 168.894 341.71 169.193 341.779 169.517C341.848 169.842 341.812 170.178 341.677 170.484C341.542 170.79 341.313 171.051 341.019 171.235C340.725 171.419 340.38 171.517 340.027 171.517C339.792 171.517 339.56 171.474 339.343 171.39C339.126 171.306 338.929 171.183 338.763 171.027C338.598 170.872 338.466 170.687 338.376 170.484C338.286 170.281 338.24 170.064 338.24 169.844Z" fill="#FFC727"/>
<path d="M423.359 167.139V167.907V169.571H424.179V167.907H425.955V167.139H424.179H423.359Z" fill="white"/>
<path d="M428.708 167.139H426.932V167.907H428.708V169.571H429.528V167.907V167.139H428.708Z" fill="white"/>
<path d="M428.708 171.994H426.932V172.773H428.708H429.528V171.994V170.33H428.708V171.994Z" fill="white"/>
<path d="M424.179 170.33H423.359V171.994V172.773H424.179H425.955V171.994H424.179V170.33Z" fill="white"/>
<path d="M251.211 167.411V172.286L255.407 169.844L251.211 167.411Z" fill="white"/>
<path d="M257.682 169.912C257.678 169.719 257.736 169.529 257.848 169.367C257.891 169.287 257.958 169.22 258.039 169.174C258.121 169.127 258.214 169.102 258.31 169.102C258.406 169.102 258.499 169.127 258.581 169.174C258.662 169.22 258.729 169.287 258.772 169.367C258.881 169.532 258.938 169.723 258.938 169.917C258.938 170.111 258.881 170.301 258.772 170.467C258.729 170.546 258.662 170.613 258.581 170.66C258.499 170.707 258.406 170.731 258.31 170.731C258.214 170.731 258.121 170.707 258.039 170.66C257.958 170.613 257.891 170.546 257.848 170.467C257.734 170.302 257.676 170.108 257.682 169.912ZM258.658 169.912C258.659 169.769 258.619 169.628 258.544 169.503C258.471 169.406 258.388 169.357 258.315 169.367C258.266 169.367 258.218 169.38 258.175 169.404C258.133 169.428 258.099 169.462 258.076 169.503C257.996 169.626 257.956 169.768 257.962 169.912C257.956 170.059 257.996 170.204 258.076 170.33C258.098 170.371 258.131 170.406 258.172 170.43C258.213 170.455 258.261 170.468 258.31 170.468C258.359 170.468 258.407 170.455 258.448 170.43C258.489 170.406 258.522 170.371 258.544 170.33C258.619 170.202 258.659 170.058 258.658 169.912Z" fill="white"/>
<path d="M259.447 169.912C259.444 169.719 259.502 169.529 259.613 169.367C259.655 169.287 259.72 169.22 259.801 169.172C259.882 169.125 259.975 169.1 260.07 169.1C260.166 169.1 260.259 169.125 260.34 169.172C260.421 169.22 260.486 169.287 260.527 169.367C260.639 169.529 260.697 169.719 260.694 169.912C260.699 170.108 260.641 170.302 260.527 170.467C260.486 170.547 260.421 170.614 260.34 170.661C260.259 170.709 260.166 170.734 260.07 170.734C259.975 170.734 259.882 170.709 259.801 170.661C259.72 170.614 259.655 170.547 259.613 170.467C259.5 170.302 259.442 170.108 259.447 169.912ZM260.424 169.912C260.426 169.767 260.383 169.625 260.299 169.503C260.226 169.406 260.154 169.357 260.07 169.367C259.987 169.377 259.915 169.367 259.842 169.503C259.758 169.625 259.715 169.767 259.717 169.912C259.714 170.06 259.758 170.205 259.842 170.33C259.865 170.369 259.898 170.401 259.938 170.425C259.978 170.449 260.023 170.463 260.07 170.467C260.123 170.473 260.176 170.465 260.223 170.445C260.271 170.424 260.312 170.391 260.341 170.35C260.414 170.215 260.443 170.062 260.424 169.912Z" fill="white"/>
<path d="M261.441 169.474C261.478 169.474 261.515 169.484 261.545 169.504C261.576 169.523 261.6 169.55 261.614 169.582C261.628 169.614 261.632 169.649 261.625 169.683C261.618 169.717 261.6 169.749 261.574 169.773C261.548 169.798 261.514 169.814 261.478 169.821C261.442 169.828 261.404 169.824 261.37 169.811C261.336 169.798 261.307 169.775 261.286 169.747C261.265 169.718 261.255 169.684 261.255 169.649C261.255 169.603 261.274 169.558 261.309 169.525C261.344 169.492 261.392 169.474 261.441 169.474ZM261.441 170.398C261.491 170.398 261.539 170.417 261.574 170.45C261.609 170.483 261.628 170.527 261.628 170.574C261.628 170.62 261.609 170.665 261.574 170.697C261.539 170.73 261.491 170.749 261.441 170.749C261.392 170.749 261.344 170.73 261.309 170.697C261.274 170.665 261.255 170.62 261.255 170.574C261.255 170.527 261.274 170.483 261.309 170.45C261.344 170.417 261.392 170.398 261.441 170.398Z" fill="white"/>
<path d="M261.805 169.912C261.802 169.719 261.859 169.529 261.971 169.367C262.016 169.29 262.082 169.225 262.162 169.179C262.243 169.133 262.334 169.107 262.428 169.104C262.522 169.108 262.613 169.134 262.693 169.18C262.773 169.226 262.839 169.29 262.885 169.367C262.994 169.532 263.051 169.723 263.051 169.917C263.051 170.111 262.994 170.301 262.885 170.467C262.837 170.542 262.771 170.605 262.691 170.65C262.611 170.696 262.521 170.723 262.428 170.729C262.335 170.725 262.244 170.698 262.164 170.652C262.084 170.607 262.018 170.543 261.971 170.467C261.857 170.302 261.799 170.108 261.805 169.912ZM262.781 169.912C262.784 169.767 262.741 169.625 262.657 169.503C262.584 169.406 262.501 169.357 262.428 169.367C262.356 169.377 262.272 169.367 262.189 169.503C262.114 169.628 262.074 169.769 262.075 169.912C262.074 170.058 262.114 170.202 262.189 170.33C262.216 170.368 262.251 170.4 262.292 170.424C262.334 170.448 262.38 170.462 262.428 170.467C262.475 170.463 262.521 170.449 262.56 170.425C262.6 170.401 262.633 170.369 262.657 170.33C262.741 170.205 262.784 170.06 262.781 169.912Z" fill="white"/>
<path d="M263.561 169.912C263.557 169.719 263.615 169.529 263.727 169.367C263.77 169.287 263.837 169.22 263.918 169.174C264 169.127 264.093 169.102 264.189 169.102C264.285 169.102 264.378 169.127 264.46 169.174C264.541 169.22 264.608 169.287 264.651 169.367C264.76 169.532 264.817 169.723 264.817 169.917C264.817 170.111 264.76 170.301 264.651 170.467C264.608 170.546 264.541 170.613 264.46 170.66C264.378 170.707 264.285 170.731 264.189 170.731C264.093 170.731 264 170.707 263.918 170.66C263.837 170.613 263.77 170.546 263.727 170.467C263.613 170.302 263.555 170.108 263.561 169.912ZM264.537 169.912C264.538 169.769 264.498 169.628 264.423 169.503C264.35 169.406 264.267 169.357 264.194 169.367C264.145 169.367 264.097 169.38 264.054 169.404C264.012 169.428 263.978 169.462 263.955 169.503C263.875 169.626 263.835 169.768 263.841 169.912C263.835 170.059 263.875 170.204 263.955 170.33C263.977 170.371 264.01 170.406 264.051 170.43C264.092 170.455 264.14 170.468 264.189 170.468C264.238 170.468 264.286 170.455 264.327 170.43C264.368 170.406 264.401 170.371 264.423 170.33C264.484 170.199 264.509 170.055 264.495 169.912H264.537Z" fill="white"/>
<path d="M413.377 169.912C413.373 169.719 413.431 169.529 413.543 169.367C413.589 169.29 413.655 169.226 413.735 169.18C413.815 169.134 413.906 169.108 414 169.104C414.094 169.107 414.186 169.133 414.266 169.179C414.346 169.225 414.412 169.29 414.457 169.367C414.569 169.529 414.627 169.719 414.623 169.912C414.629 170.108 414.571 170.302 414.457 170.467C414.41 170.543 414.344 170.607 414.264 170.652C414.185 170.698 414.094 170.725 414 170.729C413.907 170.723 413.817 170.696 413.737 170.65C413.658 170.605 413.591 170.542 413.543 170.467C413.429 170.302 413.371 170.108 413.377 169.912ZM414.353 169.912C414.354 169.769 414.315 169.628 414.239 169.503C414.216 169.462 414.182 169.428 414.14 169.404C414.098 169.38 414.049 169.367 414 169.367C413.927 169.367 413.844 169.367 413.772 169.503C413.688 169.625 413.644 169.767 413.647 169.912C413.644 170.06 413.687 170.205 413.772 170.33C413.793 170.372 413.826 170.406 413.867 170.43C413.909 170.455 413.957 170.468 414.005 170.468C414.054 170.468 414.102 170.455 414.143 170.43C414.185 170.406 414.218 170.372 414.239 170.33C414.315 170.202 414.354 170.058 414.353 169.912Z" fill="white"/>
<path d="M416.046 169.747C416.105 169.799 416.152 169.863 416.185 169.933C416.217 170.003 416.233 170.079 416.233 170.155C416.226 170.305 416.159 170.447 416.045 170.553C415.932 170.659 415.781 170.722 415.62 170.729C415.54 170.73 415.461 170.714 415.388 170.684C415.314 170.654 415.249 170.61 415.195 170.554C415.18 170.543 415.167 170.529 415.159 170.513C415.15 170.497 415.146 170.48 415.146 170.462C415.146 170.444 415.15 170.426 415.159 170.41C415.167 170.394 415.18 170.38 415.195 170.369C415.221 170.346 415.257 170.333 415.293 170.333C415.33 170.333 415.365 170.346 415.392 170.369C415.421 170.401 415.458 170.427 415.5 170.443C415.541 170.46 415.586 170.468 415.631 170.467C415.717 170.462 415.799 170.428 415.86 170.37C415.922 170.313 415.958 170.236 415.963 170.155C415.965 170.113 415.956 170.071 415.938 170.032C415.92 169.994 415.893 169.959 415.859 169.931C415.831 169.901 415.796 169.878 415.756 169.863C415.716 169.848 415.674 169.841 415.631 169.844C415.587 169.841 415.542 169.847 415.501 169.863C415.46 169.878 415.422 169.901 415.392 169.931C415.365 169.955 415.33 169.968 415.293 169.968C415.257 169.968 415.221 169.955 415.195 169.931L415.267 169.328C415.276 169.293 415.298 169.261 415.33 169.241H415.392H416.119C416.158 169.241 416.195 169.255 416.222 169.28C416.249 169.306 416.264 169.341 416.264 169.377C416.264 169.394 416.261 169.412 416.253 169.428C416.246 169.444 416.235 169.458 416.221 169.47C416.208 169.482 416.192 169.491 416.174 169.497C416.156 169.502 416.138 169.505 416.119 169.503H415.517V169.737C415.571 169.727 415.628 169.727 415.683 169.737C415.802 169.702 415.93 169.706 416.046 169.747Z" fill="white"/>
<path d="M416.877 169.474C416.914 169.474 416.951 169.484 416.981 169.504C417.012 169.523 417.036 169.55 417.05 169.582C417.064 169.614 417.068 169.649 417.061 169.683C417.054 169.717 417.036 169.749 417.01 169.773C416.983 169.798 416.95 169.814 416.914 169.821C416.878 169.828 416.84 169.824 416.806 169.811C416.772 169.798 416.742 169.775 416.722 169.747C416.701 169.718 416.69 169.684 416.69 169.649C416.69 169.603 416.71 169.558 416.745 169.525C416.78 169.492 416.828 169.474 416.877 169.474ZM416.877 170.398C416.927 170.398 416.975 170.417 417.01 170.45C417.045 170.483 417.064 170.527 417.064 170.574C417.064 170.62 417.045 170.665 417.01 170.697C416.975 170.73 416.927 170.749 416.877 170.749C416.828 170.749 416.78 170.73 416.745 170.697C416.71 170.665 416.69 170.62 416.69 170.574C416.69 170.527 416.71 170.483 416.745 170.45C416.78 170.417 416.828 170.398 416.877 170.398Z" fill="white"/>
<path d="M418.217 169.747C418.33 169.852 418.394 169.996 418.394 170.145C418.391 170.298 418.328 170.443 418.217 170.554C418.16 170.609 418.093 170.653 418.018 170.683C417.943 170.713 417.862 170.729 417.781 170.729C417.699 170.729 417.619 170.714 417.544 170.684C417.469 170.654 417.401 170.609 417.345 170.554C417.318 170.53 417.304 170.496 417.304 170.462C417.304 170.427 417.318 170.394 417.345 170.369C417.371 170.345 417.406 170.331 417.443 170.331C417.48 170.331 417.516 170.345 417.542 170.369C417.574 170.398 417.611 170.42 417.652 170.436C417.693 170.451 417.737 170.458 417.781 170.457C417.823 170.457 417.865 170.449 417.904 170.434C417.944 170.419 417.979 170.397 418.009 170.369C418.043 170.342 418.07 170.307 418.088 170.268C418.106 170.23 418.115 170.188 418.113 170.145C418.108 170.064 418.072 169.988 418.01 169.93C417.949 169.873 417.867 169.839 417.781 169.834C417.765 169.841 417.747 169.845 417.729 169.845C417.711 169.845 417.693 169.841 417.677 169.834C417.663 169.822 417.653 169.808 417.645 169.792C417.638 169.776 417.634 169.759 417.634 169.742C417.634 169.724 417.638 169.707 417.645 169.691C417.653 169.675 417.663 169.661 417.677 169.649L417.937 169.406H417.532C417.513 169.406 417.494 169.402 417.477 169.395C417.46 169.389 417.445 169.378 417.432 169.366C417.42 169.353 417.41 169.338 417.404 169.321C417.398 169.305 417.395 169.287 417.397 169.27C417.397 169.236 417.411 169.204 417.436 169.18C417.461 169.157 417.496 169.143 417.532 169.143H418.259C418.277 169.142 418.296 169.144 418.313 169.15C418.331 169.156 418.347 169.165 418.361 169.177C418.375 169.189 418.385 169.203 418.393 169.219C418.4 169.235 418.404 169.252 418.404 169.27C418.41 169.292 418.41 169.316 418.404 169.338L418.092 169.639C418.139 169.67 418.18 169.706 418.217 169.747Z" fill="white"/>
<path d="M419.651 169.747C419.763 169.856 419.827 170.003 419.827 170.155C419.827 170.305 419.764 170.448 419.651 170.554C419.594 170.609 419.526 170.653 419.451 170.683C419.376 170.713 419.296 170.729 419.214 170.729C419.134 170.729 419.056 170.713 418.982 170.683C418.909 170.652 418.843 170.609 418.789 170.554C418.762 170.53 418.748 170.496 418.748 170.462C418.748 170.427 418.762 170.394 418.789 170.369C418.815 170.345 418.85 170.331 418.887 170.331C418.924 170.331 418.96 170.345 418.986 170.369C419.015 170.401 419.052 170.427 419.094 170.443C419.135 170.46 419.18 170.468 419.225 170.467C419.27 170.466 419.314 170.457 419.355 170.441C419.396 170.424 419.433 170.4 419.464 170.369C419.494 170.341 419.517 170.308 419.533 170.271C419.549 170.234 419.557 170.195 419.557 170.155C419.558 170.114 419.55 170.073 419.534 170.035C419.518 169.996 419.494 169.961 419.464 169.931C419.432 169.902 419.395 169.879 419.354 169.864C419.313 169.849 419.269 169.842 419.225 169.844C419.181 169.841 419.136 169.847 419.095 169.863C419.054 169.878 419.016 169.901 418.986 169.931C418.959 169.955 418.924 169.968 418.887 169.968C418.851 169.968 418.815 169.955 418.789 169.931L418.861 169.328C418.87 169.293 418.892 169.261 418.924 169.241H418.986H419.713C419.752 169.241 419.789 169.255 419.816 169.28C419.843 169.306 419.858 169.341 419.858 169.377C419.858 169.394 419.855 169.412 419.847 169.428C419.84 169.444 419.829 169.458 419.815 169.47C419.802 169.482 419.785 169.491 419.768 169.497C419.75 169.502 419.732 169.505 419.713 169.503H419.111V169.737C419.165 169.727 419.222 169.727 419.277 169.737C419.399 169.703 419.53 169.706 419.651 169.747Z" fill="white"/>
<path d="M407.592 71.0999C407.209 71.3269 406.787 71.4914 406.345 71.5864C405.289 71.8265 404.174 71.6845 403.224 71.1887C402.274 70.693 401.559 69.8799 401.221 68.9118C400.882 67.9437 400.946 66.8918 401.399 65.9658C401.852 65.0398 402.661 64.3079 403.665 63.9161C404.669 63.5243 405.793 63.5015 406.814 63.8521C407.835 64.2027 408.677 64.901 409.173 65.8077C409.669 66.7144 409.781 67.7628 409.488 68.7437C409.195 69.7246 408.518 70.566 407.592 71.0999Z" fill="#A6A6A6"/>
<path d="M406.636 67.1299C406.636 67.3743 406.559 67.6133 406.414 67.8165C406.269 68.0197 406.063 68.1781 405.822 68.2716C405.581 68.3651 405.316 68.3896 405.06 68.3419C404.804 68.2943 404.569 68.1766 404.384 68.0037C404.2 67.8309 404.074 67.6107 404.023 67.371C403.972 67.1313 403.998 66.8828 404.098 66.657C404.198 66.4312 404.367 66.2382 404.584 66.1024C404.801 65.9666 405.056 65.8942 405.317 65.8942C405.667 65.8942 406.002 66.0244 406.25 66.2561C406.497 66.4879 406.636 66.8022 406.636 67.1299Z" fill="white"/>
<path d="M407.592 70.5453V71.0999C407.209 71.3269 406.787 71.4915 406.345 71.5864C405.786 71.7174 405.205 71.7419 404.636 71.6583C404.067 71.5747 403.521 71.3848 403.032 71.0999V70.5939C403.011 70.3013 403.054 70.0078 403.159 69.7315C403.264 69.4553 403.429 69.2021 403.643 68.9879C403.856 68.7737 404.115 68.6028 404.402 68.4861C404.689 68.3693 404.999 68.309 405.312 68.309C405.625 68.309 405.935 68.3693 406.222 68.4861C406.509 68.6028 406.767 68.7737 406.981 68.9879C407.195 69.2021 407.359 69.4553 407.465 69.7315C407.57 70.0078 407.613 70.3013 407.592 70.5939V70.5453Z" fill="white"/>
<path d="M425.103 64.4735H419.328V65.5341H425.103V64.4735Z" fill="#A6A6A6"/>
<path d="M425.103 66.624H419.328V67.6846H425.103V66.624Z" fill="#A6A6A6"/>
<path d="M425.103 68.7841H419.328V69.8447H425.103V68.7841Z" fill="#A6A6A6"/>
<path d="M368.818 65.1741H254.181V67.5094H368.818V65.1741Z" fill="#A6A6A6"/>
<path d="M305.772 69.8058H254.181V71.6351H305.772V69.8058Z" fill="#C7C7C7"/>
<path d="M177.58 90.5801V91.3488V93.0224H178.4V91.3488H180.177V90.5801H178.4H177.58Z" fill="#A6A6A6"/>
<path d="M182.929 90.5801H181.153V91.3488H182.929V93.0224H183.75V91.3488V90.5801H182.929Z" fill="#A6A6A6"/>
<path d="M182.929 95.4453H181.153V96.214H182.929H183.75V95.4453V93.7814H182.929V95.4453Z" fill="#A6A6A6"/>
<path d="M178.4 93.7814H177.58V95.4453V96.214H178.4H180.177V95.4453H178.4V93.7814Z" fill="#A6A6A6"/>
<path d="M252.031 7.98865V136.371C252.099 138.046 251.454 139.677 250.239 140.907C249.024 142.136 247.337 142.864 245.55 142.93H181.631C179.842 142.866 178.153 142.14 176.935 140.91C175.718 139.68 175.072 138.047 175.139 136.371V7.98865C175.139 0.603291 178.037 0.204346 181.631 0.204346H194.438C195.185 0.204346 195.788 0.992507 195.788 1.97528V2.40341C195.788 4.69978 197.138 4.70951 198.79 4.70951H228.412C230.084 4.70951 231.414 4.70952 231.414 2.40341V2.0142C231.414 1.04116 232.016 0.243268 232.775 0.243268H245.581C249.165 0.243268 252.031 1.22604 252.031 7.98865Z" fill="white"/>
<path d="M245.581 143.173H181.631C179.773 143.104 178.019 142.349 176.754 141.073C175.489 139.796 174.815 138.102 174.879 136.362V7.98864C174.879 0.583822 177.809 0 181.631 0H194.438C195.331 0 196.047 0.904925 196.047 2.01419V2.44233C196.047 4.50517 197.138 4.50517 198.789 4.50517H228.412C230.064 4.50517 231.154 4.50517 231.154 2.44233V2.01419C231.154 0.885465 231.86 0 232.775 0H245.581C249.622 0 252.322 1.35252 252.322 7.98864V136.371C252.387 138.11 251.714 139.801 250.45 141.076C249.187 142.35 247.436 143.104 245.581 143.173ZM181.631 0.486519C178.421 0.486519 175.399 0.486518 175.399 7.98864V136.371C175.334 137.982 175.954 139.551 177.122 140.735C178.29 141.919 179.911 142.621 181.631 142.686H245.581C247.301 142.621 248.922 141.919 250.09 140.735C251.258 139.551 251.878 137.982 251.813 136.371V7.98864C251.813 1.06061 248.697 0.486519 245.581 0.486519H232.775C232.162 0.486519 231.674 1.16765 231.674 2.01419V2.44233C231.674 4.99169 230.012 4.99168 228.412 4.99168H198.789C197.19 4.99168 195.528 4.99169 195.528 2.44233V2.01419C195.528 1.18711 195.03 0.486519 194.489 0.486519H181.631Z" fill="#263238"/>
<path d="M192.225 3.12348L192.1 3.24025L192.028 3.30836C191.873 3.16079 191.689 3.04349 191.486 2.9633C191.283 2.88311 191.064 2.84164 190.844 2.8413C190.621 2.83807 190.4 2.87788 190.195 2.95824C189.989 3.0386 189.803 3.15779 189.649 3.30836L189.577 3.24025L189.452 3.12348L189.608 2.99699C189.721 2.91133 189.842 2.83636 189.971 2.77318C190.123 2.70566 190.284 2.65661 190.449 2.62723H190.688H190.896H191.062C191.212 2.63879 191.359 2.67161 191.498 2.72454C191.603 2.75666 191.704 2.79906 191.799 2.85103L192.09 3.03591L192.215 3.15267L192.225 3.12348Z" fill="#A6A6A6"/>
<path d="M190.034 3.66837L189.847 3.48349C190.058 3.28026 190.336 3.14994 190.636 3.11373C190.854 3.08238 191.076 3.09951 191.286 3.16375C191.495 3.228 191.685 3.33754 191.841 3.48349L191.644 3.66837C191.539 3.56896 191.415 3.49018 191.277 3.43669C191.14 3.38321 190.993 3.3561 190.844 3.35699C190.694 3.35644 190.545 3.38365 190.406 3.43708C190.267 3.49051 190.14 3.56911 190.034 3.66837Z" fill="#A6A6A6"/>
<path d="M191.446 3.85325L191.249 4.03813C191.197 3.98629 191.134 3.9449 191.064 3.91647C190.995 3.88803 190.92 3.87315 190.844 3.87271C190.766 3.87182 190.689 3.88605 190.617 3.91453C190.546 3.94301 190.481 3.9851 190.428 4.03813L190.231 3.85325C190.31 3.77764 190.405 3.71758 190.509 3.67659C190.613 3.63559 190.725 3.61447 190.838 3.61447C190.952 3.61447 191.064 3.63559 191.168 3.67659C191.272 3.71758 191.367 3.77764 191.446 3.85325Z" fill="#A6A6A6"/>
<path d="M190.844 4.36975C190.942 4.36975 191.021 4.29552 191.021 4.20395C191.021 4.11238 190.942 4.03815 190.844 4.03815C190.746 4.03815 190.667 4.11238 190.667 4.20395C190.667 4.29552 190.746 4.36975 190.844 4.36975Z" fill="#A6A6A6"/>
<path d="M180.156 3.47374C180.156 3.37944 180.186 3.28725 180.242 3.20884C180.298 3.13044 180.377 3.06933 180.47 3.03324C180.563 2.99716 180.665 2.98771 180.764 3.00611C180.863 3.02451 180.954 3.06992 181.025 3.1366C181.096 3.20328 181.144 3.28823 181.164 3.38072C181.184 3.4732 181.174 3.56907 181.135 3.65619C181.097 3.74332 181.031 3.81778 180.948 3.87017C180.864 3.92256 180.765 3.95052 180.665 3.95052C180.53 3.95052 180.4 3.90029 180.305 3.81087C180.209 3.72146 180.156 3.60019 180.156 3.47374Z" fill="#A6A6A6"/>
<path d="M181.766 3.47374C181.766 3.37944 181.796 3.28725 181.852 3.20884C181.907 3.13044 181.987 3.06933 182.08 3.03324C182.173 2.99716 182.275 2.98771 182.374 3.00611C182.473 3.02451 182.563 3.06992 182.635 3.1366C182.706 3.20328 182.754 3.28823 182.774 3.38072C182.793 3.4732 182.783 3.56907 182.745 3.65619C182.706 3.74332 182.641 3.81778 182.557 3.87017C182.474 3.92256 182.375 3.95052 182.275 3.95052C182.14 3.95052 182.01 3.90029 181.915 3.81087C181.819 3.72146 181.766 3.60019 181.766 3.47374Z" fill="#A6A6A6"/>
<path d="M183.365 3.47374C183.365 3.37944 183.395 3.28725 183.451 3.20884C183.507 3.13044 183.587 3.06933 183.68 3.03324C183.773 2.99716 183.875 2.98771 183.974 3.00611C184.072 3.02451 184.163 3.06992 184.234 3.1366C184.305 3.20328 184.354 3.28823 184.373 3.38072C184.393 3.4732 184.383 3.56907 184.345 3.65619C184.306 3.74332 184.241 3.81778 184.157 3.87017C184.073 3.92256 183.975 3.95052 183.874 3.95052C183.739 3.95052 183.61 3.90029 183.514 3.81087C183.419 3.72146 183.365 3.60019 183.365 3.47374Z" fill="#A6A6A6"/>
<path d="M184.975 3.47374C184.975 3.37944 185.005 3.28725 185.061 3.20884C185.117 3.13044 185.197 3.06933 185.29 3.03324C185.383 2.99716 185.485 2.98771 185.584 3.00611C185.682 3.02451 185.773 3.06992 185.844 3.1366C185.915 3.20328 185.964 3.28823 185.983 3.38072C186.003 3.4732 185.993 3.56907 185.954 3.65619C185.916 3.74332 185.851 3.81778 185.767 3.87017C185.683 3.92256 185.585 3.95052 185.484 3.95052C185.349 3.95052 185.22 3.90029 185.124 3.81087C185.029 3.72146 184.975 3.60019 184.975 3.47374Z" fill="#A6A6A6"/>
<path d="M186.596 3.47378C186.594 3.37676 186.622 3.28138 186.679 3.19989C186.735 3.11841 186.816 3.05455 186.911 3.01653C187.007 2.97851 187.112 2.96805 187.214 2.98652C187.315 3.00498 187.409 3.05151 187.482 3.12013C187.555 3.18875 187.605 3.27632 187.625 3.3716C187.644 3.46687 187.633 3.56549 187.593 3.65477C187.552 3.74406 187.484 3.81993 187.397 3.87264C187.31 3.92536 187.208 3.95249 187.105 3.95057C186.97 3.95057 186.84 3.90034 186.745 3.81092C186.649 3.72151 186.596 3.60024 186.596 3.47378Z" fill="#A6A6A6"/>
<path d="M246.287 4.5149H242.133V2.71478H246.287V4.5149ZM242.351 4.3203H246.08V2.90939H242.351V4.3203Z" fill="#A6A6A6"/>
<path d="M245.166 3.01645H242.486V4.20356H245.166V3.01645Z" fill="#A6A6A6"/>
<path d="M246.661 3.13321H246.287V4.09652H246.661V3.13321Z" fill="#A6A6A6"/>
<path d="M243.514 95.8346H183.687V96.1168H243.514V95.8346Z" fill="#A6A6A6"/>
<path d="M193.399 95.8346H183.687V96.1168H193.399V95.8346Z" fill="#FFC727"/>
<path opacity="0.2" d="M193.399 95.8346H183.687V96.1168H193.399V95.8346Z" fill="black"/>
<path d="M194.261 95.9805C194.261 96.1402 194.21 96.2964 194.116 96.4292C194.021 96.562 193.886 96.6655 193.729 96.7266C193.571 96.7877 193.398 96.8037 193.231 96.7726C193.063 96.7414 192.91 96.6645 192.789 96.5516C192.669 96.4386 192.587 96.2947 192.553 96.138C192.52 95.9814 192.537 95.819 192.602 95.6714C192.668 95.5238 192.778 95.3977 192.92 95.309C193.062 95.2202 193.228 95.1729 193.399 95.1729C193.512 95.1729 193.624 95.1937 193.729 95.2343C193.833 95.2749 193.928 95.3344 194.008 95.4094C194.088 95.4844 194.152 95.5734 194.195 95.6714C194.239 95.7694 194.261 95.8744 194.261 95.9805Z" fill="#FFC727"/>
<path d="M183.802 97.625C183.799 97.4862 183.842 97.3501 183.926 97.2358C183.959 97.1822 184.006 97.1372 184.062 97.1049C184.118 97.0726 184.182 97.0541 184.248 97.0509C184.315 97.055 184.38 97.0739 184.438 97.106C184.496 97.1381 184.545 97.1826 184.581 97.2358C184.657 97.3529 184.697 97.4878 184.695 97.625C184.698 97.7654 184.658 97.9038 184.581 98.0239C184.544 98.0761 184.495 98.1198 184.437 98.1518C184.379 98.1838 184.315 98.2033 184.248 98.2088C184.183 98.204 184.12 98.1848 184.064 98.1526C184.008 98.1205 183.961 98.0764 183.926 98.0239C183.841 97.9067 183.797 97.767 183.802 97.625ZM184.498 97.625C184.502 97.5221 184.473 97.4204 184.415 97.3331C184.363 97.265 184.3 97.2261 184.248 97.2358C184.196 97.2455 184.134 97.2358 184.082 97.3331C184.027 97.4218 183.999 97.5225 183.999 97.625C183.999 97.7275 184.027 97.8282 184.082 97.9169C184.094 97.949 184.117 97.9767 184.147 97.9963C184.176 98.0159 184.212 98.0264 184.248 98.0264C184.285 98.0264 184.32 98.0159 184.35 97.9963C184.38 97.9767 184.402 97.949 184.415 97.9169C184.48 97.8318 184.516 97.7299 184.518 97.625H184.498Z" fill="#A6A6A6"/>
<path d="M185.225 97.3136C185.242 97.3135 185.259 97.3169 185.275 97.3233C185.291 97.3298 185.305 97.3393 185.317 97.3512C185.328 97.3631 185.337 97.3771 185.343 97.3924C185.349 97.4077 185.351 97.424 185.349 97.4401C185.349 97.4554 185.346 97.4706 185.34 97.4848C185.334 97.4989 185.324 97.5118 185.313 97.5227C185.301 97.5335 185.287 97.5421 185.272 97.548C185.257 97.5538 185.241 97.5569 185.225 97.5569C185.207 97.5582 185.19 97.5562 185.174 97.5509C185.157 97.5457 185.142 97.5373 185.13 97.5263C185.117 97.5153 185.107 97.502 185.1 97.4872C185.093 97.4723 185.09 97.4563 185.09 97.4401C185.09 97.4066 185.104 97.3744 185.129 97.3506C185.154 97.3269 185.189 97.3136 185.225 97.3136ZM185.225 97.9753C185.241 97.9753 185.257 97.9783 185.272 97.9842C185.287 97.99 185.301 97.9986 185.313 98.0095C185.324 98.0203 185.334 98.0332 185.34 98.0473C185.346 98.0615 185.349 98.0767 185.349 98.092C185.351 98.1082 185.349 98.1244 185.343 98.1397C185.337 98.155 185.328 98.1691 185.317 98.181C185.305 98.1928 185.291 98.2023 185.275 98.2088C185.259 98.2153 185.242 98.2186 185.225 98.2185C185.189 98.2185 185.154 98.2052 185.129 98.1815C185.104 98.1578 185.09 98.1256 185.09 98.092C185.09 98.0758 185.093 98.0598 185.1 98.045C185.107 98.0301 185.117 98.0168 185.13 98.0058C185.142 97.9948 185.157 97.9865 185.174 97.9812C185.19 97.9759 185.207 97.9739 185.225 97.9753Z" fill="#A6A6A6"/>
<path d="M186.419 97.8974C186.419 97.9097 186.416 97.922 186.411 97.9333C186.406 97.9446 186.398 97.9547 186.388 97.963C186.378 97.9713 186.367 97.9775 186.354 97.9813C186.341 97.9851 186.328 97.9863 186.315 97.985V98.1114C186.315 98.1372 186.304 98.162 186.285 98.1802C186.265 98.1985 186.239 98.2088 186.211 98.2088C186.198 98.2088 186.185 98.2063 186.173 98.2013C186.161 98.1963 186.15 98.189 186.141 98.1798C186.132 98.1706 186.126 98.1597 186.122 98.148C186.118 98.1362 186.116 98.1237 186.118 98.1114V97.985H185.557C185.557 97.985 185.557 97.985 185.505 97.985C185.496 97.9768 185.489 97.967 185.484 97.9561C185.479 97.9452 185.476 97.9335 185.476 97.9217C185.476 97.9099 185.479 97.8982 185.484 97.8873C185.489 97.8764 185.496 97.8666 185.505 97.8585L186.159 97.0995H186.336V97.7709C186.352 97.771 186.367 97.7749 186.381 97.7822C186.395 97.7894 186.406 97.7999 186.415 97.8126C186.423 97.8252 186.428 97.8396 186.429 97.8545C186.429 97.8693 186.426 97.8841 186.419 97.8974ZM186.107 97.4011L185.754 97.8098H186.107V97.4011Z" fill="#A6A6A6"/>
<path d="M187.468 97.8098C187.478 97.8667 187.474 97.925 187.457 97.9804C187.44 98.0359 187.411 98.0873 187.371 98.1311C187.331 98.1749 187.282 98.2101 187.226 98.2342C187.17 98.2584 187.109 98.2709 187.047 98.2709C186.986 98.2709 186.925 98.2584 186.869 98.2342C186.813 98.2101 186.764 98.1749 186.724 98.1311C186.684 98.0873 186.654 98.0359 186.638 97.9804C186.621 97.925 186.617 97.8667 186.627 97.8098C186.628 97.7447 186.645 97.6807 186.677 97.6232C186.71 97.5656 186.757 97.5162 186.814 97.479C186.772 97.4365 186.75 97.3807 186.751 97.3233C186.751 97.2867 186.759 97.2504 186.775 97.2167C186.79 97.183 186.812 97.1525 186.84 97.1271C186.868 97.1017 186.902 97.0818 186.938 97.0687C186.975 97.0556 187.014 97.0495 187.053 97.0508C187.09 97.0508 187.128 97.0579 187.162 97.0717C187.197 97.0855 187.229 97.1058 187.255 97.1312C187.281 97.1566 187.301 97.1867 187.315 97.2198C187.328 97.2528 187.334 97.288 187.333 97.3233C187.333 97.3789 187.315 97.4333 187.281 97.479C187.338 97.5162 187.385 97.5656 187.417 97.6232C187.45 97.6807 187.467 97.7447 187.468 97.8098ZM187.271 97.8098C187.272 97.7822 187.268 97.7545 187.257 97.7286C187.247 97.7027 187.231 97.679 187.211 97.659C187.19 97.639 187.166 97.623 187.139 97.6122C187.111 97.6013 187.082 97.5957 187.053 97.5957C186.992 97.5957 186.934 97.6183 186.891 97.6584C186.848 97.6986 186.824 97.753 186.824 97.8098C186.824 97.8666 186.848 97.921 186.891 97.9612C186.934 98.0013 186.992 98.0239 187.053 98.0239C187.082 98.0239 187.111 98.0183 187.139 98.0074C187.166 97.9966 187.19 97.9806 187.211 97.9606C187.231 97.9406 187.247 97.9169 187.257 97.891C187.268 97.8651 187.272 97.8374 187.271 97.8098ZM186.949 97.3233C186.949 97.3356 186.951 97.3479 186.957 97.3592C186.962 97.3705 186.97 97.3806 186.98 97.3889C186.99 97.3972 187.001 97.4034 187.014 97.4072C187.026 97.411 187.04 97.4122 187.053 97.4109C187.077 97.4109 187.101 97.4016 187.119 97.3852C187.136 97.3688 187.146 97.3465 187.146 97.3233C187.146 97.2991 187.137 97.2757 187.119 97.2577C187.102 97.2397 187.078 97.2284 187.053 97.226C187.033 97.2234 187.013 97.226 186.996 97.2335C186.978 97.241 186.963 97.2531 186.952 97.2684C186.941 97.2836 186.935 97.3014 186.934 97.3197C186.934 97.3381 186.939 97.3562 186.949 97.3719V97.3233Z" fill="#A6A6A6"/>
<path d="M239.36 97.7028C239.36 97.69 239.362 97.6773 239.368 97.6655C239.373 97.6537 239.38 97.643 239.39 97.634C239.4 97.6249 239.411 97.6178 239.424 97.6129C239.436 97.608 239.45 97.6055 239.463 97.6055H239.796C239.81 97.6055 239.823 97.608 239.836 97.6129C239.848 97.6178 239.86 97.6249 239.869 97.634C239.879 97.643 239.887 97.6537 239.892 97.6655C239.897 97.6773 239.9 97.69 239.9 97.7028C239.897 97.7278 239.886 97.7513 239.867 97.7691C239.848 97.7869 239.823 97.7979 239.796 97.8001H239.463C239.437 97.7979 239.412 97.7869 239.393 97.7691C239.374 97.7513 239.362 97.7278 239.36 97.7028Z" fill="#A6A6A6"/>
<path d="M240.731 97.5081C240.81 97.5836 240.854 97.6847 240.855 97.7903C240.856 97.8443 240.845 97.8979 240.824 97.948C240.803 97.9981 240.771 98.0437 240.731 98.0822C240.646 98.1568 240.535 98.1985 240.419 98.199C240.361 98.1998 240.304 98.1899 240.251 98.1698C240.197 98.1498 240.149 98.12 240.107 98.0822C240.088 98.064 240.078 98.0396 240.078 98.0141C240.078 97.9887 240.088 97.9642 240.107 97.946C240.129 97.9318 240.154 97.9241 240.18 97.9241C240.206 97.9241 240.232 97.9318 240.253 97.946C240.273 97.9684 240.299 97.9862 240.328 97.998C240.356 98.0098 240.388 98.0153 240.419 98.0141C240.45 98.0146 240.481 98.0088 240.51 97.997C240.539 97.9853 240.564 97.9679 240.585 97.946C240.618 97.9147 240.639 97.8753 240.648 97.8326C240.657 97.7898 240.652 97.7456 240.635 97.7053C240.617 97.6651 240.587 97.6305 240.549 97.6058C240.511 97.5812 240.466 97.5675 240.419 97.5665C240.408 97.5711 240.395 97.5734 240.383 97.5734C240.37 97.5734 240.358 97.5711 240.346 97.5665C240.329 97.5474 240.32 97.5233 240.32 97.4984C240.32 97.4736 240.329 97.4495 240.346 97.4303L240.533 97.2649H240.242C240.229 97.265 240.216 97.2624 240.204 97.2574C240.192 97.2524 240.181 97.2451 240.172 97.2359C240.164 97.2267 240.157 97.2159 240.153 97.2041C240.149 97.1923 240.148 97.1799 240.149 97.1676C240.149 97.1444 240.159 97.1221 240.176 97.1057C240.194 97.0892 240.218 97.08 240.242 97.08H240.762C240.775 97.0786 240.788 97.0799 240.801 97.0837C240.813 97.0874 240.825 97.0937 240.835 97.102C240.845 97.1102 240.852 97.1204 240.858 97.1317C240.863 97.143 240.866 97.1552 240.866 97.1676C240.866 97.1676 240.866 97.1676 240.866 97.2162L240.648 97.4303C240.678 97.453 240.706 97.4792 240.731 97.5081Z" fill="#A6A6A6"/>
<path d="M241.302 97.3136C241.338 97.3136 241.372 97.3269 241.397 97.3506C241.423 97.3744 241.437 97.4065 241.437 97.4401C241.437 97.4736 241.423 97.5058 241.397 97.5295C241.372 97.5533 241.338 97.5666 241.302 97.5666C241.266 97.5666 241.232 97.5533 241.207 97.5295C241.181 97.5058 241.167 97.4736 241.167 97.4401C241.167 97.4065 241.181 97.3744 241.207 97.3506C241.232 97.3269 241.266 97.3136 241.302 97.3136ZM241.302 97.9753C241.319 97.9739 241.337 97.9759 241.353 97.9812C241.369 97.9865 241.384 97.9948 241.397 98.0058C241.41 98.0168 241.42 98.0301 241.427 98.045C241.434 98.0598 241.437 98.0758 241.437 98.092C241.437 98.1256 241.423 98.1578 241.397 98.1815C241.372 98.2052 241.338 98.2185 241.302 98.2185C241.266 98.2185 241.232 98.2052 241.207 98.1815C241.181 98.1578 241.167 98.1256 241.167 98.092C241.167 98.0758 241.17 98.0598 241.177 98.045C241.184 98.0301 241.194 98.0168 241.207 98.0058C241.22 97.9948 241.235 97.9865 241.251 97.9812C241.267 97.9759 241.285 97.9739 241.302 97.9753Z" fill="#A6A6A6"/>
<path d="M242.351 98.1114C242.352 98.1237 242.351 98.1361 242.347 98.1479C242.343 98.1597 242.336 98.1705 242.327 98.1797C242.319 98.1889 242.308 98.1962 242.296 98.2012C242.284 98.2062 242.271 98.2088 242.257 98.2087H241.645C241.625 98.2067 241.607 98.1996 241.591 98.1882C241.576 98.1769 241.564 98.1616 241.558 98.1444C241.551 98.1271 241.55 98.1084 241.555 98.0905C241.559 98.0727 241.568 98.0563 241.582 98.0433L242.102 97.6054C242.125 97.5859 242.144 97.5619 242.156 97.535C242.169 97.5081 242.175 97.4791 242.174 97.4497C242.175 97.4227 242.17 97.3957 242.16 97.3706C242.149 97.3455 242.133 97.3227 242.112 97.3038C242.092 97.2814 242.066 97.2636 242.037 97.2518C242.008 97.24 241.977 97.2345 241.946 97.2357C241.895 97.2233 241.841 97.2233 241.79 97.2357L241.738 97.2843C241.729 97.2929 241.719 97.2997 241.707 97.3043C241.696 97.3089 241.683 97.3113 241.671 97.3113C241.658 97.3113 241.645 97.3089 241.634 97.3043C241.622 97.2997 241.612 97.2929 241.603 97.2843C241.594 97.2761 241.587 97.2663 241.582 97.2555C241.577 97.2446 241.574 97.2329 241.574 97.2211C241.574 97.2093 241.577 97.1976 241.582 97.1867C241.587 97.1758 241.594 97.166 241.603 97.1578H241.655C241.731 97.0922 241.832 97.0572 241.935 97.0605C241.994 97.0592 242.052 97.0699 242.106 97.0917C242.16 97.1135 242.208 97.1461 242.247 97.187C242.319 97.262 242.359 97.3587 242.361 97.4595C242.36 97.5149 242.346 97.5695 242.321 97.6198C242.296 97.67 242.26 97.7149 242.216 97.7514L241.884 98.0336H242.268C242.289 98.0357 242.309 98.0446 242.324 98.0587C242.339 98.0729 242.349 98.0915 242.351 98.1114Z" fill="#A6A6A6"/>
<path d="M243.39 98.1115C243.391 98.1246 243.39 98.138 243.385 98.1505C243.38 98.163 243.373 98.1744 243.363 98.1838C243.353 98.1931 243.341 98.2002 243.327 98.2046C243.314 98.2089 243.3 98.2104 243.286 98.2088H242.683C242.664 98.2068 242.645 98.1997 242.63 98.1883C242.615 98.1769 242.603 98.1617 242.597 98.1444C242.59 98.1272 242.589 98.1085 242.593 98.0906C242.598 98.0727 242.607 98.0564 242.621 98.0434L243.14 97.6055C243.164 97.586 243.182 97.5619 243.195 97.5351C243.207 97.5082 243.214 97.4791 243.213 97.4498C243.214 97.4228 243.209 97.3958 243.198 97.3707C243.188 97.3456 243.171 97.3228 243.151 97.3039C243.13 97.2815 243.105 97.2637 243.076 97.2519C243.047 97.2401 243.016 97.2346 242.985 97.2358C242.933 97.2234 242.88 97.2234 242.829 97.2358L242.777 97.2844C242.757 97.2999 242.732 97.3076 242.707 97.3057C242.682 97.3039 242.658 97.2927 242.642 97.2747C242.625 97.2566 242.617 97.2331 242.619 97.2094C242.621 97.1857 242.633 97.1637 242.652 97.1482H242.704C242.78 97.0825 242.881 97.0476 242.985 97.0509C243.043 97.0496 243.101 97.0602 243.155 97.0821C243.209 97.1039 243.257 97.1364 243.296 97.1774C243.368 97.2523 243.409 97.3491 243.41 97.4498C243.409 97.5053 243.396 97.5599 243.371 97.6101C243.345 97.6604 243.31 97.7052 243.265 97.7417L242.933 98.0239H243.307C243.329 98.0263 243.351 98.0366 243.366 98.0528C243.381 98.0689 243.39 98.0898 243.39 98.1115Z" fill="#A6A6A6"/>
<path d="M183.542 122.749H182.908V123.897H183.542V122.749Z" fill="#C7C7C7"/>
<path d="M183.532 122.749L184.695 122.292V124.354L183.532 123.897V122.749Z" fill="#C7C7C7"/>
<path d="M237.178 122.973H186.907C186.735 122.973 186.596 123.103 186.596 123.264V123.381C186.596 123.542 186.735 123.673 186.907 123.673H237.178C237.351 123.673 237.49 123.542 237.49 123.381V123.264C237.49 123.103 237.351 122.973 237.178 122.973Z" fill="#C7C7C7"/>
<path d="M207.306 122.973H186.907C186.735 122.973 186.596 123.103 186.596 123.264V123.381C186.596 123.542 186.735 123.673 186.907 123.673H207.306C207.479 123.673 207.618 123.542 207.618 123.381V123.264C207.618 123.103 207.479 122.973 207.306 122.973Z" fill="#FFC727"/>
<path d="M240.377 122.749H239.744V123.897H240.377V122.749Z" fill="#C7C7C7"/>
<path d="M240.377 122.749L241.541 122.292V124.354L240.377 123.897V122.749Z" fill="#C7C7C7"/>
<path d="M242.538 122.116L242.849 121.824C243.06 122.021 243.228 122.254 243.342 122.511C243.457 122.768 243.515 123.044 243.515 123.323C243.515 123.601 243.457 123.877 243.342 124.134C243.228 124.392 243.06 124.625 242.849 124.821L242.538 124.529C242.878 124.209 243.069 123.775 243.069 123.323C243.069 122.871 242.878 122.437 242.538 122.116Z" fill="#C7C7C7"/>
<path d="M242.185 123.323C242.187 123.209 242.164 123.096 242.117 122.99C242.071 122.885 242.002 122.789 241.915 122.71L242.226 122.418C242.354 122.537 242.455 122.679 242.525 122.835C242.594 122.991 242.63 123.159 242.63 123.328C242.63 123.497 242.594 123.664 242.525 123.82C242.455 123.976 242.354 124.118 242.226 124.238L241.915 123.936C242.002 123.856 242.071 123.761 242.117 123.656C242.164 123.55 242.187 123.437 242.185 123.323Z" fill="#C7C7C7"/>
<path d="M208.48 123.323C208.48 123.483 208.43 123.639 208.335 123.772C208.24 123.904 208.106 124.008 207.948 124.069C207.79 124.13 207.617 124.146 207.45 124.115C207.283 124.084 207.129 124.007 207.008 123.894C206.888 123.781 206.806 123.637 206.773 123.48C206.739 123.324 206.756 123.161 206.822 123.014C206.887 122.866 206.997 122.74 207.139 122.651C207.281 122.563 207.448 122.515 207.618 122.515C207.847 122.515 208.066 122.6 208.228 122.752C208.389 122.903 208.48 123.109 208.48 123.323Z" fill="#FFC727"/>
<path d="M220.238 81.6964H183.802V83.8662H220.238V81.6964Z" fill="#FFC727"/>
<path d="M200.202 86.0068H183.802V87.7097H200.202V86.0068Z" fill="#A6A6A6"/>
<path d="M209.405 113.398V105.74L217.797 109.564L209.405 113.398Z" fill="#FFC727"/>
<path d="M233.616 111.442V107.696L237.718 109.564L233.616 111.442Z" fill="#FFC727"/>
<path d="M230.344 111.442V107.696L234.447 109.564L230.344 111.442Z" fill="#FFC727"/>
<path d="M193.586 107.696V111.442L189.483 109.564L193.586 107.696Z" fill="#FFC727"/>
<path d="M196.857 107.696V111.442L192.755 109.564L196.857 107.696Z" fill="#FFC727"/>
<path d="M240.971 86.8637C240.971 86.9284 240.943 86.9904 240.894 87.0361C240.846 87.0818 240.779 87.1075 240.71 87.1075C240.641 87.1075 240.575 87.0818 240.526 87.0361C240.478 86.9904 240.45 86.9284 240.45 86.8637C240.45 86.799 240.478 86.737 240.526 86.6913C240.575 86.6456 240.641 86.6199 240.71 86.6199C240.779 86.6199 240.846 86.6456 240.894 86.6913C240.943 86.737 240.971 86.799 240.971 86.8637Z" fill="#A6A6A6"/>
<path d="M242.206 86.8631C242.203 86.9285 242.173 86.9904 242.123 87.0357C242.072 87.0811 242.005 87.1064 241.935 87.1064C241.867 87.1064 241.801 87.0807 241.752 87.0351C241.703 86.9895 241.676 86.9276 241.676 86.8631C241.676 86.7976 241.703 86.7347 241.751 86.6876C241.8 86.6404 241.866 86.6126 241.935 86.6101C242.007 86.6101 242.076 86.6368 242.126 86.6842C242.177 86.7317 242.206 86.796 242.206 86.8631Z" fill="#A6A6A6"/>
<path d="M243.431 86.8631C243.431 86.9276 243.404 86.9895 243.355 87.0351C243.306 87.0807 243.24 87.1064 243.171 87.1064C243.102 87.1064 243.034 87.0811 242.984 87.0357C242.934 86.9904 242.904 86.9285 242.901 86.8631C242.901 86.796 242.93 86.7317 242.98 86.6842C243.031 86.6368 243.1 86.6101 243.171 86.6101C243.241 86.6126 243.307 86.6404 243.356 86.6876C243.404 86.7347 243.431 86.7976 243.431 86.8631Z" fill="#A6A6A6"/>
<path d="M240.004 24.5303H187.198V73.9995H240.004V24.5303Z" fill="#FFC727"/>
<path d="M373.004 234.454C389.228 249.331 391.949 272.353 388.532 292.515C388.439 292.982 387.681 292.855 387.681 292.427C387.681 287.834 387.836 283.281 387.816 278.746C387.732 278.542 387.66 278.347 387.566 278.133C383.329 275.214 379.444 271.993 377.024 267.527C374.313 262.535 373.253 256.902 371.176 251.686C370.989 251.19 371.55 251.336 371.924 251.599C381.791 258.41 384.938 265.756 387.774 275.555C387.699 270.426 387.111 265.314 386.019 260.288C383.879 250.985 379.662 241.8 372.516 234.853C372.46 234.792 372.431 234.713 372.437 234.632C372.443 234.552 372.482 234.477 372.547 234.424C372.612 234.371 372.696 234.345 372.782 234.35C372.868 234.356 372.948 234.393 373.004 234.454Z" fill="#263238"/>
<path d="M369.951 236.186C367.157 236.273 365.412 240.457 363.231 241.674C363.003 241.856 362.735 241.99 362.447 242.066C362.159 242.142 361.856 242.159 361.56 242.116C361.264 242.073 360.982 241.97 360.732 241.814C360.483 241.659 360.272 241.455 360.115 241.216C357.954 238.404 360.914 234.921 363.698 232.975C361.704 233.743 360.052 235.096 357.913 235.475C357.638 235.559 357.348 235.586 357.061 235.555C356.775 235.525 356.499 235.437 356.252 235.297C356.004 235.158 355.792 234.971 355.629 234.748C355.466 234.525 355.355 234.272 355.306 234.006C354.36 230.163 359.46 228.46 363.033 228.372C361.319 227.263 356.417 224.227 359.024 222.738C361.631 221.249 367.416 225.579 369.296 227C372.049 229.102 375.341 232.235 375.466 235.514C375.632 239.348 372.101 236.983 369.951 236.186Z" fill="#FFC727"/>
<path opacity="0.1" d="M369.951 236.186C367.157 236.273 365.412 240.457 363.231 241.674C363.003 241.856 362.735 241.99 362.447 242.066C362.159 242.142 361.856 242.159 361.56 242.116C361.264 242.073 360.982 241.97 360.732 241.814C360.483 241.659 360.272 241.455 360.115 241.216C357.954 238.404 360.914 234.921 363.698 232.975C361.704 233.743 360.052 235.096 357.913 235.475C357.638 235.559 357.348 235.586 357.061 235.555C356.775 235.525 356.499 235.437 356.252 235.297C356.004 235.158 355.792 234.971 355.629 234.748C355.466 234.525 355.355 234.272 355.306 234.006C354.36 230.163 359.46 228.46 363.033 228.372C361.319 227.263 356.417 224.227 359.024 222.738C361.631 221.249 367.416 225.579 369.296 227C372.049 229.102 375.341 232.235 375.466 235.514C375.632 239.348 372.101 236.983 369.951 236.186Z" fill="black"/>
<path d="M370.761 236.828C367.188 235.31 360.374 237.499 359.751 236.234C358.567 233.656 364.051 231.894 367.022 231.544C364.3 230.853 359.086 229.754 359.242 227.292C359.439 224.285 367.25 226.874 371.197 229.715C376.183 233.286 376.151 236.74 375.352 237.431C374.178 238.375 371.342 237.081 370.761 236.828Z" fill="#FFC727"/>
<path d="M409.908 232.975C393.092 247.269 389.436 270.174 392.033 290.452C392.105 290.909 392.864 290.812 392.884 290.384C393.071 285.801 393.102 281.247 393.3 276.713C393.404 276.508 393.487 276.314 393.58 276.109C397.932 273.385 401.952 270.271 404.548 265.883C407.457 261.018 408.703 255.403 411.03 250.266C411.248 249.779 410.666 249.905 410.282 250.149C400.145 256.61 396.707 263.83 393.476 273.502C393.747 268.378 394.529 263.29 395.813 258.303C398.316 249.078 402.907 240.01 410.355 233.364C410.41 233.308 410.439 233.235 410.436 233.159C410.433 233.083 410.398 233.012 410.339 232.96C410.28 232.908 410.201 232.881 410.12 232.884C410.039 232.886 409.963 232.919 409.908 232.975Z" fill="#263238"/>
<path d="M412.93 234.823C415.714 235.008 417.293 239.251 419.422 240.545C419.642 240.732 419.903 240.873 420.187 240.958C420.47 241.042 420.77 241.069 421.065 241.036C421.361 241.003 421.645 240.91 421.899 240.765C422.153 240.62 422.371 240.425 422.538 240.195C424.802 237.46 421.988 233.88 419.287 231.836C421.25 232.673 422.839 234.074 424.969 234.531C425.239 234.625 425.528 234.664 425.816 234.644C426.104 234.624 426.384 234.546 426.637 234.416C426.891 234.286 427.111 234.107 427.284 233.89C427.456 233.673 427.577 233.424 427.638 233.159C428.739 229.355 423.66 227.467 420.139 227.263C421.894 226.202 426.921 223.371 424.376 221.775C421.832 220.179 415.87 224.305 413.938 225.667C411.092 227.613 407.706 230.678 407.426 233.948C407.083 237.772 410.749 235.543 412.93 234.823Z" fill="#FFC727"/>
<path opacity="0.1" d="M412.93 234.823C415.714 235.008 417.293 239.251 419.422 240.545C419.642 240.732 419.903 240.873 420.187 240.958C420.47 241.042 420.77 241.069 421.065 241.036C421.361 241.003 421.645 240.91 421.899 240.765C422.153 240.62 422.371 240.425 422.538 240.195C424.802 237.46 421.988 233.88 419.287 231.836C421.25 232.673 422.839 234.074 424.969 234.531C425.239 234.625 425.528 234.664 425.816 234.644C426.104 234.624 426.384 234.546 426.637 234.416C426.891 234.286 427.111 234.107 427.284 233.89C427.456 233.673 427.577 233.424 427.638 233.159C428.739 229.355 423.66 227.467 420.139 227.263C421.894 226.202 426.921 223.371 424.376 221.775C421.832 220.179 415.87 224.305 413.938 225.667C411.092 227.613 407.706 230.678 407.426 233.948C407.083 237.772 410.749 235.543 412.93 234.823Z" fill="black"/>
<path d="M412.099 235.436C415.724 234.045 422.486 236.477 423.12 235.232C424.408 232.702 418.965 230.737 416.057 230.289C418.809 229.695 424.065 228.781 424.013 226.319C423.94 223.312 416.026 225.609 411.964 228.265C406.844 231.671 406.771 235.076 407.529 235.835C408.62 236.857 411.497 235.66 412.099 235.436Z" fill="#FFC727"/>
<path d="M392.749 270.728C391.624 278.371 389.888 285.923 387.556 293.322C387.511 293.455 387.415 293.567 387.287 293.637C387.159 293.708 387.008 293.731 386.862 293.704C386.717 293.676 386.587 293.599 386.499 293.487C386.41 293.375 386.369 293.237 386.382 293.099C387.483 286.132 389.498 279.301 390.599 272.334C391.806 265.291 392.238 258.15 391.887 251.024C391.181 239.29 387.785 226.805 379.61 217.62C379.434 217.406 379.808 217.095 379.995 217.299C396.364 235.174 393.757 257.086 393.746 259.052C396.063 251.657 398.441 243.172 407.249 235.631C407.633 235.31 407.924 235.466 407.862 236.02C406.293 249.74 402.222 256.911 393.726 264.238C393.424 266.418 393.123 268.627 392.749 270.728Z" fill="#263238"/>
<path d="M379.444 219.673C376.494 218.447 372.433 221.96 369.525 222.203C367.977 222.33 366.835 221.765 366.575 220.257C365.848 216.316 370.782 214.107 374.718 213.397C372.236 213.251 369.805 213.874 367.375 213.261C367.045 213.218 366.729 213.11 366.448 212.943C366.166 212.777 365.926 212.555 365.744 212.294C365.562 212.033 365.442 211.739 365.392 211.43C365.342 211.122 365.363 210.807 365.453 210.507C366.492 206.08 372.797 206.732 376.505 208.308C375.321 206.362 371.862 200.884 375.362 200.572C378.862 200.261 382.55 207.471 383.734 209.836C385.468 213.319 387.203 218.116 385.572 221.58C383.682 225.648 381.241 221.522 379.444 219.673Z" fill="#FFC727"/>
<path opacity="0.1" d="M379.444 219.673C376.494 218.447 372.433 221.96 369.525 222.203C367.977 222.33 366.835 221.765 366.575 220.257C365.848 216.316 370.782 214.107 374.718 213.397C372.236 213.251 369.805 213.874 367.375 213.261C367.045 213.218 366.729 213.11 366.448 212.943C366.166 212.777 365.926 212.555 365.744 212.294C365.562 212.033 365.442 211.739 365.392 211.43C365.342 211.122 365.363 210.807 365.453 210.507C366.492 206.08 372.797 206.732 376.505 208.308C375.321 206.362 371.862 200.884 375.362 200.572C378.862 200.261 382.55 207.471 383.734 209.836C385.468 213.319 387.203 218.116 385.572 221.58C383.682 225.648 381.241 221.522 379.444 219.673Z" fill="black"/>
<path d="M379.932 220.724C377.045 217.464 368.756 216.501 368.829 214.886C368.985 211.655 375.622 212.405 378.873 213.446C376.421 211.441 371.602 207.841 373.087 205.36C374.905 202.334 381.615 208.697 384.191 213.514C387.431 219.566 385.551 223.137 384.326 223.468C382.643 223.945 380.41 221.259 379.932 220.724Z" fill="#FFC727"/>
<path d="M403.52 274.854L410.739 326.513H366.814C367.728 321.939 375.902 274.796 375.902 274.796L403.52 274.854Z" fill="#FFC727"/>
<path d="M0 326.513L53.3976 326.279L106.806 326.192L213.601 326.036L320.396 326.192L373.804 326.279L427.202 326.513L373.804 326.756L320.396 326.843L213.601 326.999L106.806 326.834L53.3976 326.756L0 326.513Z" fill="#263238"/>
<path d="M12.6198 326.464H137.81L112.851 190.433H19.236L12.6198 326.464Z" fill="#DBDBDB"/>
<path d="M12.6198 326.464H23.5984L29.7577 190.433H19.236L12.6198 326.464Z" fill="#A6A6A6"/>
<path d="M66.9418 170.865C61.5096 190.998 51.3619 214.302 56.3267 235.32C60.2528 251.783 73.1842 264.842 87.4866 274.387C118.865 295.337 166.788 306.497 198.011 279.067C210.475 268.101 217.994 241.703 204.118 228.849C196.993 222.261 187.499 219.216 178.691 215.071C167.1 209.631 159.674 201.448 156.339 189.694C149.827 166.73 155.384 151.891 158.219 128.947C158.728 124.685 158.583 120.365 154.948 115.996C151.799 111.591 147.429 108.072 142.307 105.818C138.119 103.06 133.265 101.318 128.181 100.748C117.296 99.7753 105.05 106.976 95.557 111.121C86.0636 115.266 80.7664 120.647 77.9724 130.329C74.0567 143.786 70.6083 157.36 66.9418 170.865Z" fill="#263238"/>
<path d="M62.164 179.934C68.3959 161.777 75.033 143.766 81.535 125.707C81.535 125.59 81.7635 125.629 81.7323 125.707C76.8403 140.711 72.1767 155.774 67.0768 170.729C62.0705 185.383 55.8593 200.134 52.2447 215.148C44.1432 248.854 78.2113 269.785 109.371 274.037C110.784 274.231 110.296 276.323 108.873 276.08C81.6908 271.546 51.3411 256.726 49.2222 227.652C48.0589 211.753 57.0537 194.763 62.164 179.934Z" fill="#263238"/>
<path d="M156.817 126.836C156.835 126.762 156.884 126.698 156.952 126.658C157.02 126.618 157.102 126.605 157.181 126.621C157.259 126.638 157.327 126.684 157.37 126.747C157.413 126.811 157.427 126.888 157.409 126.962C154.241 145.742 148.653 167.363 156.371 185.753C160.194 194.805 166.853 202.559 175.472 207.997C182.306 212.278 190.158 214.049 197.647 216.988C226.906 228.469 218.742 267.109 193.274 277.89C192.745 278.114 192.308 277.258 192.838 277.014C211.025 268.374 220.872 248.193 211.524 230.201C204.056 215.771 183.584 215.956 171.14 206.537C145.33 187.037 150.243 153.74 156.817 126.836Z" fill="#263238"/>
<path d="M118.802 207.257C123.861 236.847 149.775 309.232 170.226 317.619C188.32 325.043 237.989 327.194 256.124 323.263C264.433 321.453 261.369 266.544 248.531 265.717C232.494 264.696 209.893 266.291 195.611 263.401C190.553 262.37 171.442 240.048 137.103 202.917C124.338 189.1 115.967 190.589 118.802 207.257Z" fill="#F7A9A0"/>
<path d="M231.809 320.558C232.847 321.044 247.388 327.914 256.414 330.366C263.145 332.186 282.651 336.953 285.497 330.22C287.47 325.627 276.346 321.56 268.556 318.543C264.454 316.938 259.395 312.91 260.6 310.438C262.678 306.118 273.282 310.438 280.241 314.243C293.682 321.56 311.578 334.725 319.794 328.342C322.91 325.919 319.285 321.531 314.019 317.21C322.567 322.241 331.676 326.357 335.249 323.808C337.326 322.348 337.388 320.353 336.287 318.076C338.926 318.874 341.263 318.719 342.883 317.103C345.667 314.369 344.306 310.351 341.273 306.225C341.795 306.169 342.295 305.999 342.733 305.729C343.172 305.458 343.536 305.095 343.797 304.668C349.686 296.261 320.209 272.11 310.02 269.853C280.034 263.178 248.136 265.61 248.136 265.61C236.358 274.465 231.777 320.538 231.809 320.558Z" fill="#F7A9A0"/>
<path d="M275.921 294.704C283.06 295.747 289.881 298.205 295.925 301.914C303.528 306.614 308.566 312.112 314.943 317.658C314.975 317.688 314.994 317.729 314.995 317.772C314.996 317.814 314.979 317.856 314.948 317.887C314.917 317.918 314.875 317.937 314.829 317.94C314.784 317.943 314.739 317.929 314.704 317.901C311.671 315.274 299.072 305.369 295.821 303.121C289.948 298.97 283.142 296.128 275.921 294.811C275.796 294.801 275.817 294.685 275.921 294.704Z" fill="#263238"/>
<path d="M281.488 282.784C289.371 284.799 297.442 286.842 304.754 290.335C312.762 294.159 319.025 300.387 325.184 306.381C328.882 309.981 332.496 313.656 336.028 317.405C336.173 317.57 335.945 317.814 335.789 317.658C329.557 311.457 323.11 305.443 316.449 299.618C310.325 294.18 303.114 289.93 295.229 287.114C290.721 285.499 286.079 284.195 281.457 282.94C281.374 282.891 281.394 282.755 281.488 282.784Z" fill="#263238"/>
<path d="M289.911 272.353C297.566 273.832 304.245 275.088 311.027 278.931C320.001 284.02 328.685 292.554 331.707 295.638C335.062 298.995 338.303 302.449 341.481 305.962C341.606 306.098 341.346 306.322 341.211 306.176C333.934 298.486 326.131 291.248 317.851 284.507C313.964 281.238 309.56 278.553 304.795 276.547C299.961 274.773 294.975 273.386 289.891 272.402C289.891 272.402 289.87 272.353 289.911 272.353Z" fill="#263238"/>
<path d="M178.182 239.98L126.623 245.147C126.623 245.147 117.743 222.193 114.741 208.843C110.763 191.173 116.818 185.646 135.722 198.947C148.362 207.841 178.182 239.98 178.182 239.98Z" fill="#FFC727"/>
<path d="M132.918 244.524C132.357 244.524 127.039 244.855 126.686 244.992C125.709 242.267 124.775 239.523 123.777 236.808C123.268 235.456 122.739 234.103 122.199 232.76C121.659 231.418 120.983 229.579 120.454 228.265C120.452 228.242 120.444 228.22 120.432 228.2C120.419 228.18 120.402 228.163 120.382 228.149C120.361 228.136 120.338 228.128 120.313 228.124C120.289 228.121 120.264 228.122 120.24 228.129C120.217 228.136 120.195 228.147 120.177 228.163C120.158 228.178 120.144 228.198 120.134 228.219C120.125 228.24 120.121 228.263 120.122 228.287C120.124 228.31 120.13 228.332 120.142 228.353C120.661 230.114 121.108 231.418 121.555 232.945C121.96 234.298 122.406 235.66 122.874 237.003C123.912 239.844 124.806 242.919 125.99 245.712C126.083 245.926 132.471 244.855 133.011 244.739C133.042 244.67 133.011 244.534 132.918 244.524Z" fill="#263238"/>
<path d="M172.428 235.923C164.877 236.186 157.337 236.555 149.806 237.236C146.046 237.574 142.297 237.966 138.558 238.414C134.818 238.861 131.121 239.669 127.382 240.058C127.346 240.067 127.314 240.086 127.291 240.114C127.269 240.141 127.257 240.175 127.257 240.209C127.257 240.244 127.269 240.277 127.291 240.305C127.314 240.332 127.346 240.351 127.382 240.36C131.09 239.786 134.922 239.669 138.661 239.29C142.401 238.91 146.171 238.521 149.921 238.171C157.42 237.48 164.929 236.76 172.439 236.224C172.688 236.205 172.636 235.913 172.428 235.923Z" fill="#263238"/>
<path d="M153.358 326.678L25.603 326.367C25.603 326.367 51.7046 225.268 79.8835 197.05C92.711 184.216 105.248 186.171 115.873 194.433C118.522 196.495 151.385 235.573 154.169 249.185C156.63 261.222 146.192 274.582 146.192 274.582L153.358 326.678Z" fill="#FFC727"/>
<path d="M133.146 215.11C137.301 221.269 141.746 227.204 145.89 233.325C148.02 236.33 149.949 239.456 151.665 242.685C153.424 245.901 154.39 249.446 154.49 253.058C154.709 251.232 154.635 249.386 154.272 247.58C153.891 245.774 153.303 244.012 152.517 242.325C150.912 238.995 149.037 235.784 146.908 232.722C144.935 229.929 142.909 227.146 140.822 224.451C140.479 223.478 140.063 222.563 139.669 221.619C139.054 220.251 138.339 218.925 137.529 217.649C137.96 219.074 138.488 220.471 139.108 221.833C139.305 222.213 139.482 222.582 139.648 222.972C137.55 220.325 135.383 217.704 133.146 215.11Z" fill="#263238"/>
<path d="M74.7214 245.06C74.6155 248.903 74.3 252.738 73.7762 256.551C73.2361 259.607 72.3637 262.847 69.9747 265.017C67.5858 267.187 63.8362 267.177 60.6268 266.671C55.5146 265.687 50.511 264.26 45.6804 262.409L44.0497 261.825L43.9043 262.146L45.5558 262.74C50.4026 264.621 55.4277 266.071 60.5645 267.07C62.2427 267.36 63.9567 267.422 65.6539 267.255C67.3926 267.108 69.0297 266.423 70.3071 265.309C72.8414 263.003 73.7139 259.684 74.2644 256.619C74.8461 252.912 75.0434 249.205 75.2407 245.498C75.08 245.339 74.9063 245.193 74.7214 245.06ZM113.609 214.896C109.135 213.948 104.583 213.358 100.002 213.134C96.5934 212.962 93.1787 213.357 89.917 214.302C86.6718 215.4 83.8017 217.295 81.6077 219.79C79.4685 222.287 77.9053 225.173 77.0169 228.265C76.1084 231.329 75.5102 234.466 75.2304 237.635C74.9915 239.922 74.8564 242.199 74.7422 244.447C74.9188 244.632 75.0849 244.768 75.2304 244.914C75.3446 242.491 75.4796 240.049 75.7497 237.645C76.0261 234.514 76.6244 231.415 77.5362 228.392C78.4112 225.361 79.9499 222.535 82.0544 220.092C84.1626 217.667 86.934 215.824 90.0728 214.759C93.2639 213.803 96.6162 213.407 99.9609 213.592C104.594 213.825 109.199 214.404 113.734 215.324C113.702 215.246 113.661 215.11 113.609 214.925V214.896ZM136.169 219.109L136.023 218.895C130.622 218.301 125.346 217.221 120.017 216.141C118.044 215.752 116.081 215.353 114.087 214.973C114.159 215.123 114.215 215.28 114.253 215.44L119.924 216.569C125.356 217.63 130.788 218.739 136.335 219.333L136.169 219.109ZM150.149 326.639C147.963 323.088 145.432 319.733 142.588 316.617C141.462 315.405 140.157 314.35 138.713 313.484C137.253 312.59 135.519 312.173 133.78 312.297C130.269 312.637 127.413 314.7 124.93 316.821C121.461 319.847 118.428 323.253 115.302 326.552H115.967C119 323.321 121.929 320.052 125.242 317.133C127.683 315.041 130.518 313.026 133.832 312.715C137.145 312.404 140.064 314.661 142.276 316.889C145.054 319.914 147.529 323.171 149.671 326.62L149.858 326.902L150.294 326.853C150.243 326.824 150.243 326.746 150.149 326.668V326.639ZM62.5795 321.618C58.4181 316.623 53.8592 311.929 48.9418 307.577C44.486 303.831 39.22 300.562 33.258 299.414L33.1646 299.735C39.033 300.873 44.2367 304.133 48.6718 307.879C53.6573 312.092 57.9263 317.006 62.2263 321.891C63.5662 323.399 64.9061 324.927 66.2563 326.435H66.8899C65.4358 324.868 64.0336 323.253 62.5795 321.648V321.618ZM73.1323 243.007C68.6245 239.017 63.213 235.543 57.033 234.366L56.3579 234.24C56.3203 234.352 56.2752 234.463 56.2228 234.57C56.4433 234.605 56.6617 234.651 56.8772 234.707C62.9949 235.835 68.3025 239.309 72.8414 243.289C73.4854 243.853 74.119 244.447 74.7214 245.031C74.7214 244.855 74.7214 244.67 74.7214 244.476C74.2229 244.009 73.6931 243.503 73.1323 243.036V243.007ZM154.314 250.382C152.333 251.296 150.5 252.469 148.871 253.866C143.792 258.098 139.617 263.1 134.787 267.488C132.441 269.738 129.867 271.768 127.101 273.55C124.356 275.35 121.25 276.611 117.971 277.258C114.691 277.852 111.3 277.607 108.156 276.547C105.056 275.369 102.209 273.674 99.7532 271.546C98.7976 270.728 97.8524 269.892 96.9799 269.026C96.8336 268.9 96.6949 268.767 96.5645 268.627C92.9084 265.085 89.6989 261.193 86.4271 257.339C82.8541 253.136 79.2708 248.864 75.2511 244.982C75.2402 245.167 75.2402 245.352 75.2511 245.536C79.0783 249.387 82.6941 253.417 86.0844 257.612C89.2835 261.378 92.4306 265.211 95.9932 268.734C96.1236 268.874 96.2623 269.007 96.4087 269.133C97.3746 270.106 98.3925 271.001 99.452 271.896C101.941 274.081 104.834 275.822 107.99 277.034C111.227 278.124 114.718 278.376 118.096 277.764C121.457 277.118 124.639 275.829 127.444 273.978C130.236 272.175 132.838 270.126 135.213 267.858C140.032 263.392 144.197 258.39 149.214 254.177C150.754 252.828 152.505 251.709 154.408 250.859C154.397 250.703 154.397 250.557 154.314 250.411V250.382ZM111.812 206.235C110.742 201.457 110.781 196.519 111.926 191.757L111.584 191.572C110.384 196.428 110.32 201.47 111.397 206.352C111.972 209.257 112.71 212.132 113.609 214.964L114.076 215.041C113.158 212.145 112.402 209.206 111.812 206.235ZM122.791 242.715C121.752 236.409 119.467 230.425 117.338 224.431C116.299 221.454 115.188 218.467 114.222 215.47C114.057 215.452 113.894 215.422 113.734 215.382C114.71 218.486 115.811 221.541 116.85 224.577C118.927 230.561 121.233 236.555 122.23 242.773C122.829 245.853 122.818 249.009 122.199 252.085C121.435 255.134 119.798 257.93 117.462 260.171C115.098 262.399 112.269 264.148 109.153 265.309C106.043 266.497 102.819 267.406 99.5247 268.023C98.5379 268.237 97.5616 268.403 96.5749 268.588C96.3721 268.613 96.171 268.649 95.9724 268.695C90.5402 269.609 85.0146 270.232 79.6239 271.614C76.4248 272.48 73.0076 273.667 70.868 276.265C69.8218 277.578 69.2735 279.181 69.31 280.819C69.3487 282.422 69.6212 284.013 70.1201 285.548C72.0624 291.659 75.4381 297.224 78.4918 302.819C81.5454 308.414 84.7237 314.068 86.801 320.081C87.5375 322.175 88.0489 324.333 88.3279 326.522H88.6291C88.3527 324.305 87.8448 322.118 87.1126 319.993C85.0353 313.941 81.9193 308.317 78.8553 302.673C75.7912 297.03 72.4675 291.483 70.546 285.441C69.6527 282.522 69.1542 279.028 71.2419 276.518C73.3296 274.008 76.6118 272.869 79.7797 272.032C85.2119 270.67 90.8518 270.086 96.3983 269.113C96.5956 269.065 96.793 269.045 97.0007 269.006C97.8732 268.87 98.7664 268.685 99.6493 268.5C102.973 267.893 106.225 266.983 109.361 265.785C112.549 264.606 115.442 262.82 117.857 260.541C120.254 258.23 121.931 255.35 122.708 252.212C123.354 249.078 123.386 245.859 122.801 242.715H122.791Z" fill="white"/>
<path d="M109.444 271.877C114.768 272.024 120.072 272.541 125.315 273.424C127.911 273.901 130.508 274.475 133.011 275.117C134.289 275.428 135.566 275.701 136.844 275.973C138.177 276.294 139.549 276.458 140.926 276.46C140.946 276.466 140.964 276.478 140.977 276.495C140.99 276.512 140.997 276.532 140.997 276.552C140.997 276.573 140.99 276.593 140.977 276.609C140.964 276.626 140.946 276.638 140.926 276.645C138.377 276.944 135.794 276.842 133.281 276.343C130.653 275.886 128.088 275.311 125.408 274.835C120.111 273.862 114.803 272.889 109.433 272.285C109.163 272.266 109.195 271.867 109.444 271.877Z" fill="#263238"/>
<path d="M96.6683 276.985C100.993 276.314 105.356 275.875 109.735 275.671C111.926 275.574 114.107 275.594 116.299 275.671C117.338 275.671 118.376 275.759 119.415 275.827C120.454 275.895 121.7 276.119 122.853 276.177C122.967 276.177 122.978 276.353 122.853 276.353C121.814 276.353 120.672 276.479 119.592 276.508L116.32 276.615C114.128 276.683 111.947 276.771 109.766 276.829C105.393 276.927 101.031 277.073 96.6683 277.316C96.4502 277.384 96.4502 277.014 96.6683 276.985Z" fill="#263238"/>
<path d="M97.7486 191.183C97.6136 193.498 104.209 210.643 114.918 213.066C118.408 213.854 123.892 196.213 123.892 196.213L124.608 194.997L134.715 177.959L116.185 157.895L113.453 155.161C113.453 155.161 111.012 160.026 108.052 166.039C107.907 166.312 107.772 166.594 107.626 166.895C107.481 167.197 107.273 167.547 107.128 167.869C106.671 168.764 106.203 169.688 105.767 170.612C105.435 171.313 105.102 171.994 104.728 172.743C104.354 173.493 104.064 174.213 103.69 174.952C100.511 182.357 97.8317 190.209 97.7486 191.183Z" fill="#F7A9A0"/>
<path d="M108.052 166.039C108.405 171.702 110.069 177.225 112.928 182.225C115.787 187.225 119.772 191.583 124.608 194.997L134.714 177.959L116.185 157.895L113.453 155.161C113.453 155.161 111.012 159.987 108.052 166.039Z" fill="#263238"/>
<path d="M168.876 152.232C167.692 186.405 145.714 189.606 137.851 189.353C130.705 189.129 106.421 187.524 103.825 153.419C101.228 119.314 118.563 109.048 134.922 108.727C151.281 108.406 170.06 118.059 168.876 152.232Z" fill="#F7A9A0"/>
<path d="M163.932 146.18C163.111 146.015 162.3 145.811 161.502 145.567C160.611 145.464 159.781 145.088 159.144 144.496C158.982 144.275 158.902 144.011 158.917 143.743C158.932 143.476 159.041 143.221 159.227 143.017C159.662 142.667 160.188 142.432 160.753 142.336C161.317 142.24 161.898 142.287 162.436 142.472C163.589 142.689 164.615 143.299 165.313 144.185C165.459 144.396 165.536 144.642 165.535 144.893C165.535 145.144 165.457 145.39 165.311 145.6C165.165 145.811 164.957 145.978 164.713 146.081C164.468 146.183 164.197 146.218 163.932 146.18Z" fill="#263238"/>
<path d="M138.942 144.827C139.779 144.751 140.612 144.631 141.435 144.467C142.331 144.452 143.198 144.165 143.907 143.65C144.104 143.445 144.221 143.183 144.24 142.908C144.259 142.632 144.178 142.359 144.01 142.132C143.618 141.744 143.123 141.46 142.576 141.308C142.029 141.156 141.449 141.141 140.894 141.266C139.698 141.364 138.585 141.882 137.779 142.716C137.608 142.911 137.501 143.149 137.473 143.4C137.445 143.651 137.496 143.905 137.619 144.129C137.743 144.354 137.934 144.54 138.169 144.664C138.404 144.788 138.673 144.844 138.942 144.827Z" fill="#263238"/>
<path d="M144.239 153.506C144.239 153.419 144.042 153.613 144.042 153.701C144.042 156.036 143.626 158.702 141.352 159.413C141.279 159.413 141.279 159.549 141.352 159.539C144.125 159.257 144.634 155.754 144.239 153.506Z" fill="#263238"/>
<path d="M142.099 151.006C138.111 150.607 137.55 158.109 141.248 158.479C144.945 158.848 145.433 151.346 142.099 151.006Z" fill="#263238"/>
<path d="M140.5 151.298C139.762 151.677 139.025 152.388 138.173 152.407C137.321 152.426 136.522 151.599 135.94 150.801C135.878 150.724 135.805 150.801 135.795 150.879C135.66 152.319 136.137 153.798 137.768 154.149C139.399 154.499 140.427 153.244 140.884 151.823C141.009 151.56 140.791 151.152 140.5 151.298Z" fill="#263238"/>
<path d="M158.053 153.925C158.053 153.837 158.24 154.042 158.23 154.139C157.949 156.455 158.053 159.15 160.234 160.084C160.307 160.084 160.234 160.23 160.234 160.211C157.513 159.646 157.399 156.075 158.053 153.925Z" fill="#263238"/>
<path d="M160.463 151.658C164.472 151.658 164.161 159.179 160.463 159.17C156.765 159.16 157.108 151.648 160.463 151.658Z" fill="#263238"/>
<path d="M162.114 152.212C162.738 152.631 163.33 153.38 164.088 153.458C164.846 153.536 165.646 152.747 166.238 151.988C166.3 151.911 166.352 151.988 166.352 152.076C166.352 153.516 165.77 154.995 164.275 155.219C162.779 155.443 161.99 154.149 161.678 152.709C161.668 152.436 161.865 152.047 162.114 152.212Z" fill="#263238"/>
<path d="M142.525 172.549C143.045 173.152 143.564 173.96 144.436 174.135C145.356 174.214 146.283 174.111 147.158 173.833C147.176 173.83 147.195 173.832 147.212 173.839C147.229 173.846 147.243 173.857 147.253 173.872C147.263 173.887 147.268 173.904 147.268 173.921C147.268 173.938 147.262 173.955 147.251 173.97C146.841 174.386 146.319 174.69 145.739 174.851C145.16 175.012 144.545 175.024 143.959 174.884C143.47 174.708 143.049 174.399 142.749 173.996C142.449 173.594 142.284 173.117 142.276 172.627C142.255 172.49 142.442 172.461 142.525 172.549Z" fill="#263238"/>
<path d="M152.32 169.279C151.263 170.577 149.868 171.599 148.269 172.247C147.389 172.571 146.423 172.629 145.506 172.413C143.501 171.926 143.429 170.204 143.803 168.735C144.001 167.951 144.301 167.193 144.696 166.477C146.852 168.151 149.524 169.133 152.32 169.279Z" fill="#263238"/>
<path d="M148.311 172.296C147.431 172.62 146.465 172.678 145.548 172.461C143.543 171.975 143.47 170.252 143.844 168.783C145.994 168.929 148.165 170.291 148.311 172.296Z" fill="#FF9CBD"/>
<path d="M153.421 164.716C153.421 164.716 153.712 168.209 153.608 169.854C153.608 170.009 153.172 170.058 152.569 170.058C152.569 170.058 152.569 170.058 152.496 170.058C150.981 170.232 149.443 170.012 148.053 169.422C146.662 168.831 145.472 167.893 144.613 166.711C144.499 166.545 144.738 166.39 144.883 166.497C147.022 168.052 149.643 168.913 152.351 168.949C152.496 168.501 151.624 162.974 151.904 162.974C153.256 163.156 154.573 163.513 155.82 164.035C155.425 156.727 153.795 149.537 153.525 142.258C153.528 142.208 153.549 142.16 153.584 142.123C153.62 142.085 153.668 142.06 153.72 142.051C153.773 142.042 153.828 142.05 153.875 142.073C153.922 142.097 153.96 142.134 153.982 142.18C156.267 149.595 156.911 157.992 157.524 165.533C157.617 166.458 154.096 165.027 153.421 164.716Z" fill="#263238"/>
<path d="M106.442 156.143C110.41 155.91 120.703 145.644 120.983 127.692C120.983 127.692 119.571 143.796 118.283 146.18C116.995 148.563 124.037 140.409 124.453 125.931C124.453 125.931 133.032 131.691 140.344 133.579C147.656 135.466 152.112 135.389 152.631 134.892C153.151 134.396 142.401 131.263 139.482 128.139C139.482 128.139 158.926 136.527 167.879 137.13C168.918 137.198 170.071 117.251 156.204 108.844C142.338 100.437 120.454 109.642 114.585 114.994C114.585 114.994 107.668 115.967 100.189 125.561C92.7111 135.155 102.173 156.396 106.442 156.143Z" fill="#263238"/>
<path d="M136.595 164.512C134.49 164.175 132.528 163.292 130.931 161.964C129.335 160.636 128.168 158.915 127.562 156.997C126.956 155.079 126.936 153.04 127.505 151.112C128.073 149.184 129.207 147.444 130.777 146.088C132.347 144.733 134.292 143.817 136.39 143.445C138.487 143.072 140.655 143.258 142.646 143.98C144.637 144.703 146.372 145.934 147.654 147.533C148.936 149.133 149.714 151.037 149.9 153.03C150.028 154.434 149.859 155.848 149.402 157.191C148.945 158.534 148.209 159.779 147.238 160.855C146.266 161.931 145.077 162.816 143.739 163.46C142.401 164.104 140.94 164.495 139.44 164.609C138.491 164.689 137.535 164.657 136.595 164.512ZM140.126 144.759C139.309 144.633 138.479 144.601 137.654 144.662C135.136 144.858 132.793 145.945 131.102 147.703C129.41 149.46 128.497 151.756 128.549 154.122C128.601 156.488 129.613 158.747 131.38 160.438C133.147 162.13 135.536 163.127 138.06 163.226C140.584 163.325 143.053 162.52 144.965 160.973C146.877 159.427 148.088 157.255 148.352 154.902C148.615 152.548 147.911 150.189 146.383 148.304C144.855 146.42 142.617 145.152 140.126 144.759Z" fill="#37474F"/>
<path d="M162.852 165.582C158.531 164.901 155.353 160.133 155.644 154.548C155.732 151.872 156.713 149.289 158.448 147.162C159.134 146.207 160.072 145.434 161.171 144.918C162.27 144.402 163.492 144.16 164.72 144.217C165.948 144.274 167.139 144.627 168.178 145.242C169.218 145.857 170.07 146.712 170.652 147.727C172.157 150 172.866 152.657 172.678 155.326C172.366 161.232 168.294 165.864 163.6 165.65C163.349 165.642 163.099 165.619 162.852 165.582ZM165.22 145.712C165.031 145.683 164.84 145.663 164.649 145.654C163.67 145.65 162.704 145.866 161.833 146.285C160.962 146.703 160.211 147.311 159.642 148.057C158.116 149.952 157.252 152.243 157.17 154.616C156.911 159.734 159.809 164.044 163.672 164.22C167.536 164.395 170.881 160.376 171.151 155.258C171.326 152.888 170.705 150.527 169.375 148.505C168.929 147.793 168.329 147.177 167.613 146.696C166.898 146.215 166.082 145.88 165.22 145.712Z" fill="#37474F"/>
<path d="M149.453 154.246L148.529 153.108C150.326 151.823 154.439 150.188 157.087 153.108L155.914 154.081C153.546 151.395 149.619 154.129 149.453 154.246Z" fill="#37474F"/>
<path d="M98.3093 154.664L96.9902 153.944C97.3434 153.37 100.584 148.281 104.032 147.921C107.252 147.59 127.652 150.334 128.524 150.451L128.327 151.862C122.479 151.064 106.712 149.079 104.219 149.342C101.955 149.585 99.2026 153.273 98.3093 154.664Z" fill="#37474F"/>
<path d="M103.326 166.01C103.841 166.271 104.389 166.47 104.957 166.604C105.507 166.767 106.083 166.846 106.66 166.837C107.407 166.859 108.149 166.723 108.831 166.438C109.37 166.228 109.874 165.946 110.327 165.601C110.969 165.111 111.514 164.518 111.937 163.85L111.095 154.557C111.095 154.557 104.541 143.105 99.0676 145.148C93.5938 147.191 97.5615 163.247 103.326 166.01Z" fill="#F7A9A0"/>
<path d="M100.324 149.712C100.305 149.709 100.285 149.712 100.268 149.722C100.251 149.731 100.238 149.746 100.232 149.764C100.225 149.781 100.226 149.801 100.234 149.818C100.241 149.835 100.255 149.849 100.272 149.858C104.292 151.93 106.047 155.852 107.117 159.831C106.079 158.226 104.438 157.233 102.163 158.401C102.049 158.459 102.163 158.634 102.256 158.625C103.026 158.486 103.824 158.574 104.538 158.877C105.252 159.18 105.849 159.684 106.245 160.318C106.905 161.382 107.437 162.511 107.834 163.684C107.979 164.064 108.686 163.947 108.603 163.529V163.432C109.33 158.391 106.037 150.889 100.324 149.712Z" fill="#263238"/>
<path d="M104.012 164.638C104.037 164.951 104.162 165.25 104.369 165.497C104.577 165.744 104.858 165.927 105.177 166.024C105.495 166.121 105.838 166.127 106.16 166.042C106.483 165.956 106.771 165.783 106.989 165.544C107.206 165.305 107.343 165.011 107.381 164.699C107.42 164.387 107.359 164.071 107.206 163.791C107.053 163.512 106.814 163.282 106.521 163.129C106.228 162.977 105.893 162.909 105.559 162.935C105.113 162.97 104.701 163.169 104.411 163.488C104.121 163.807 103.977 164.22 104.012 164.638Z" fill="white"/>
<path d="M100.864 161.884C100.884 162.105 100.972 162.315 101.118 162.488C101.265 162.661 101.463 162.79 101.687 162.858C101.912 162.926 102.152 162.931 102.38 162.87C102.607 162.81 102.81 162.689 102.963 162.521C103.116 162.353 103.213 162.146 103.241 161.926C103.269 161.707 103.227 161.485 103.12 161.288C103.014 161.09 102.847 160.927 102.641 160.819C102.436 160.71 102.201 160.661 101.965 160.678C101.808 160.689 101.655 160.729 101.515 160.796C101.374 160.862 101.249 160.954 101.147 161.067C101.045 161.179 100.967 161.309 100.919 161.449C100.87 161.589 100.852 161.737 100.864 161.884Z" fill="white"/>
<path d="M73.5581 203.18C48.7029 239.27 15.9851 299.637 33.7981 311.187C63.078 330.22 144.353 336.311 162.945 336.992C170.964 337.294 182.68 287.445 176.843 281.529C171.005 275.613 85.7832 277.637 84.7653 272.772C84.194 270.038 89.0446 245.789 94.7884 215.635C101.425 180.936 80.6522 192.846 73.5581 203.18Z" fill="#F7A9A0"/>
<path d="M162.592 278.62C162.592 278.62 186.918 276.606 202.903 275.993C211.814 275.652 227.145 276.333 233.813 278.912C243.795 282.726 282.921 304.668 277.437 313.669C272.483 321.823 241.427 298.966 241.427 298.966C241.427 298.966 274.944 319.4 267.05 328.215C259.157 337.031 227.727 306.809 227.727 306.809C227.727 306.809 261.66 328.556 252 336.408C244.73 342.344 214.608 316.5 214.608 316.5C214.608 316.5 243.639 335.387 236.42 341.799C228.423 348.883 199.029 326.659 199.029 326.659C177.715 340.048 161.73 338.248 150.513 335.708C147.771 335.066 162.592 278.62 162.592 278.62Z" fill="#F7A9A0"/>
<path d="M230.323 291.182C234.353 293.449 238.446 295.716 242.247 298.314C246.049 300.912 249.757 303.637 253.288 306.556C261.93 313.707 266.157 319.458 265.856 319.127C258.71 311.343 245.259 301.866 241.458 299.268C237.656 296.67 234.011 293.926 230.219 291.308C230.116 291.24 230.219 291.123 230.323 291.182Z" fill="#263238"/>
<path d="M220.061 303.86C225.078 306.974 230.178 309.884 235.039 313.202C239.9 316.52 244.169 320.013 248.76 323.633C249.113 323.905 248.843 323.993 248.469 323.73C243.732 320.295 239.069 317.473 234.291 314.097C229.513 310.72 224.86 307.169 219.978 303.967C219.895 303.919 219.989 303.821 220.061 303.86Z" fill="#263238"/>
<path d="M209.166 313.27C217.081 317.648 224.133 323.399 230.905 329.189C231.238 329.471 230.905 329.549 230.51 329.276C223.385 323.856 217.849 319.546 209 313.532C208.865 313.435 209 313.182 209.166 313.27Z" fill="#263238"/>
<path d="M41.7751 248.981L93.4382 244.826C93.4382 244.826 97.489 220.705 97.7175 207.063C98.0083 189.013 90.9246 184.683 75.0954 201.108C64.5115 212.103 41.7751 248.981 41.7751 248.981Z" fill="#FFC727"/>
<path d="M87.1438 245.352C87.6943 245.215 92.9811 244.622 93.3757 244.68C93.7704 241.829 94.134 238.978 94.5702 236.137C94.7779 234.716 95.0272 233.296 95.2869 231.875C95.5465 230.454 95.827 228.537 96.0867 227.156C96.0867 226.942 96.419 226.961 96.3983 227.156C96.2528 228.975 96.0867 230.338 95.9516 231.914C95.827 233.315 95.6712 234.736 95.4842 236.137C95.0895 239.105 94.7987 242.287 94.2378 245.225C94.2378 245.459 87.7046 245.546 87.1542 245.498C87.0503 245.517 87.0607 245.371 87.1438 245.352Z" fill="#263238"/>
<path d="M46.6049 243.97C54.0728 242.88 61.5512 241.888 69.0815 241.216C72.8311 240.876 76.591 240.584 80.3614 240.36C84.1317 240.136 87.9228 240.253 91.6724 239.971C91.7081 239.979 91.7398 239.999 91.7624 240.026C91.7851 240.053 91.7974 240.087 91.7974 240.121C91.7974 240.156 91.7851 240.19 91.7624 240.217C91.7398 240.244 91.7081 240.264 91.6724 240.272C87.9124 240.37 84.1317 240.953 80.3821 241.245C76.6326 241.537 72.8622 241.849 69.1023 242.17C61.6031 242.831 54.0832 243.464 46.6049 244.281C46.3763 244.301 46.3763 243.999 46.6049 243.97Z" fill="#263238"/>
<path d="M277.447 313.649C277.725 313.069 277.853 312.435 277.822 311.8C277.792 311.165 277.603 310.545 277.271 309.99C276.723 308.835 276.025 307.746 275.193 306.75C273.495 304.759 271.619 302.907 269.585 301.214C265.5 297.826 261.192 294.684 256.685 291.804C252.177 288.885 247.638 286.054 242.985 283.436C240.671 282.111 238.238 280.978 235.714 280.05C234.468 279.602 233.18 279.252 231.861 278.882C230.587 278.491 229.285 278.185 227.966 277.968C225.292 277.566 222.599 277.296 219.895 277.16C217.184 277.004 214.463 276.897 211.731 276.868C206.278 276.781 200.825 276.868 195.362 277.043C189.899 277.219 184.446 277.491 178.993 277.822C173.54 278.153 168.087 278.552 162.623 278.941C157.285 278.483 151.946 278.055 146.607 277.559C151.956 277.773 157.316 278.055 162.675 278.308H162.613C168.056 277.725 173.509 277.228 178.961 276.79C184.414 276.353 189.888 276.002 195.362 275.769C200.836 275.535 206.32 275.418 211.804 275.467C217.322 275.418 222.835 275.793 228.288 276.586C229.661 276.821 231.014 277.146 232.338 277.559C233.637 277.929 234.977 278.299 236.275 278.775C238.851 279.751 241.332 280.932 243.691 282.308C248.406 284.974 252.893 287.932 257.329 290.948C261.787 293.939 266.024 297.209 270.011 300.737C272 302.533 273.821 304.486 275.453 306.575C276.274 307.616 276.952 308.751 277.468 309.952C277.767 310.528 277.921 311.161 277.917 311.803C277.914 312.444 277.753 313.075 277.447 313.649Z" fill="#263238"/>
<path d="M271.444 338.452H144.104V343.804H271.444V338.452Z" fill="#455A64"/>
<path d="M271.454 338.452H207.359V343.804H271.454V338.452Z" fill="#37474F"/>
<path d="M211.243 343.804H335.342L351.566 264.842H227.467L211.243 343.804Z" fill="#37474F"/>
<path d="M216.291 343.804H340.39L356.614 264.842H232.515L216.291 343.804Z" fill="#455A64"/>
<path d="M278.902 304.318C278.789 305.222 278.884 306.138 279.18 307.005C279.476 307.871 279.967 308.669 280.619 309.343C281.271 310.018 282.07 310.554 282.961 310.916C283.853 311.277 284.817 311.456 285.788 311.44C287.845 311.405 289.817 310.665 291.331 309.359C292.845 308.054 293.796 306.274 294.004 304.357C294.108 303.456 294.008 302.546 293.708 301.685C293.408 300.824 292.916 300.033 292.265 299.364C291.613 298.695 290.818 298.163 289.93 297.804C289.043 297.445 288.084 297.268 287.117 297.283C285.068 297.317 283.103 298.05 281.59 299.345C280.077 300.641 279.121 302.409 278.902 304.318Z" fill="white"/>
<path d="M199.458 66.823V64.7016C199.458 56.5001 206.043 49.8514 214.167 49.8514C222.29 49.8514 228.875 56.5001 228.875 64.7016V66.823" stroke="white" stroke-width="2" stroke-linecap="round" stroke-linejoin="round"/>
<path d="M214.732 49.8514C219.419 49.8514 223.218 46.0521 223.218 41.3656C223.218 36.679 219.419 32.8798 214.732 32.8798C210.046 32.8798 206.247 36.679 206.247 41.3656C206.247 46.0521 210.046 49.8514 214.732 49.8514Z" stroke="white" stroke-width="2" stroke-linecap="round" stroke-linejoin="round"/>
</svg>
